<svg width="133" height="39" viewBox="0 0 133 39" fill="none" xmlns="http://www.w3.org/2000/svg">
<g clip-path="url(#clip0_124_503)">
<path d="M122.409 4.67968e-06H10.5973C10.1897 4.67968e-06 9.78703 4.67974e-06 9.38054 0.00195468C9.04027 0.00390468 8.70271 0.00956943 8.35918 0.0143372C7.61286 0.0220414 6.86829 0.079639 6.13195 0.186629C5.39665 0.295949 4.68438 0.502047 4.01923 0.797954C3.3549 1.09636 2.74787 1.48412 2.22019 1.94715C1.68973 2.40888 1.24756 2.94257 0.910662 3.52771C0.572839 4.11169 0.338591 4.73747 0.216009 5.38345C0.0922621 6.02861 0.0256726 6.68121 0.0168384 7.3354C0.00652418 7.63433 0.00543496 7.93426 0 8.23324V30.7696C0.00543496 31.0724 0.00652418 31.3657 0.0168384 31.6685C0.0256753 32.3226 0.0922648 32.9752 0.216009 33.6203C0.338253 34.2667 0.572514 34.8928 0.910662 35.477C1.2474 36.0603 1.68964 36.5918 2.22019 37.051C2.74587 37.5161 3.35329 37.9041 4.01923 38.2002C4.68437 38.4969 5.39656 38.7042 6.13195 38.8152C6.86842 38.9214 7.6129 38.979 8.35918 38.9876C8.70271 38.9943 9.04027 38.9981 9.38054 38.9981C9.78701 39 10.1897 39 10.5973 39H122.409C122.808 39 123.214 39 123.614 38.9981C123.952 38.9981 124.299 38.9943 124.638 38.9876C125.383 38.9795 126.126 38.9218 126.861 38.8152C127.599 38.7035 128.314 38.4962 128.982 38.2002C129.647 37.9039 130.254 37.5159 130.779 37.051C131.309 36.59 131.752 36.0589 132.093 35.477C132.428 34.8924 132.66 34.2663 132.781 33.6203C132.905 32.9751 132.974 32.3227 132.987 31.6685C132.991 31.3657 132.991 31.0724 132.991 30.7696C133 30.4154 133 30.0632 133 29.7032V9.29773C133 8.94068 133 8.58648 132.991 8.23324C132.991 7.93426 132.991 7.63433 132.987 7.33536C132.974 6.68112 132.905 6.02866 132.781 5.38341C132.66 4.7378 132.428 4.11207 132.093 3.52767C131.407 2.35482 130.319 1.40013 128.982 0.797867C128.314 0.502683 127.599 0.296639 126.861 0.186542C126.126 0.0790799 125.383 0.0214622 124.638 0.0142007C124.299 0.00944268 123.952 0.00372918 123.614 0.00182793C123.214 -0.00012207 122.808 -0.00012207 122.409 -0.00012207V4.67968e-06Z" fill="#A6A6A6"/>
<path d="M9.38587 38.1469C9.04724 38.1469 8.71679 38.1431 8.38081 38.1365C7.6848 38.1285 6.99042 38.0754 6.30336 37.9774C5.66271 37.8806 5.0421 37.7006 4.46199 37.4432C3.88719 37.188 3.36294 36.8533 2.9093 36.4521C2.44909 36.0555 2.06595 35.5956 1.77506 35.0905C1.48096 34.5821 1.27742 34.0372 1.17154 33.4747C1.0572 32.8703 0.995338 32.2592 0.986486 31.6466C0.97944 31.4409 0.970215 30.7563 0.970215 30.7563V8.23325C0.970215 8.23325 0.98004 7.55913 0.986542 7.36108C0.995018 6.74944 1.05652 6.13926 1.17052 5.53581C1.27659 4.97179 1.48029 4.4253 1.77455 3.91526C2.06437 3.41052 2.44539 2.95024 2.90282 2.55226C3.35974 2.15051 3.88567 1.81411 4.46144 1.55535C5.04022 1.29882 5.65966 1.12004 6.29901 1.02501C6.98833 0.926115 7.68512 0.872646 8.38354 0.865054L9.38642 0.853149H123.608L124.623 0.865532C125.315 0.872746 126.005 0.925738 126.688 1.02406C127.334 1.12028 127.96 1.3003 128.545 1.55821C129.699 2.07969 130.638 2.90471 131.23 3.91764C131.519 4.42416 131.72 4.96619 131.824 5.52534C131.94 6.13374 132.004 6.74872 132.018 7.36537C132.021 7.64149 132.021 7.93808 132.021 8.23325C132.03 8.59888 132.03 8.94689 132.03 9.29775V29.7032C132.03 30.0574 132.03 30.4031 132.021 30.7515C132.021 31.0686 132.021 31.359 132.017 31.658C132.004 32.2636 131.94 32.8676 131.827 33.4651C131.723 34.0317 131.52 34.5808 131.226 35.0934C130.933 35.593 130.553 36.049 130.098 36.4444C129.644 36.8479 129.118 37.1845 128.542 37.4414C127.958 37.7007 127.334 37.8814 126.688 37.9774C126.001 38.0759 125.307 38.129 124.611 38.1365C124.285 38.1431 123.944 38.1469 123.613 38.1469L122.409 38.1488L9.38587 38.1469Z" fill="black"/>
<path d="M27.5292 19.7933C27.5411 18.9795 27.7875 18.1815 28.2455 17.4737C28.7034 16.7659 29.358 16.1712 30.1483 15.745C29.6463 15.116 28.9839 14.5983 28.2139 14.2331C27.4438 13.8679 26.5873 13.6653 25.7124 13.6413C23.846 13.4694 22.0366 14.621 21.0856 14.621C20.1161 14.621 18.6517 13.6583 17.0749 13.6868C16.055 13.7157 15.0609 13.9759 14.1897 14.442C13.3185 14.9081 12.5997 15.5642 12.1035 16.3465C9.95397 19.6112 11.5573 24.4092 13.6164 27.0481C14.6466 28.3404 15.8506 29.7838 17.426 29.7326C18.9677 29.6765 19.5434 28.8702 21.4043 28.8702C23.248 28.8702 23.7881 29.7326 25.3955 29.7001C27.0498 29.6765 28.092 28.4021 29.0861 27.0976C29.8263 26.1769 30.3959 25.1593 30.7737 24.0825C29.8127 23.7259 28.9925 23.129 28.4155 22.3663C27.8386 21.6035 27.5303 20.7087 27.5292 19.7933Z" fill="white"/>
<path d="M24.4931 11.9057C25.3951 10.9558 25.8395 9.73495 25.7319 8.50232C24.3539 8.62928 23.081 9.20703 22.1668 10.1204C21.7199 10.5667 21.3775 11.0858 21.1594 11.6481C20.9413 12.2105 20.8517 12.805 20.8956 13.3978C21.5849 13.404 22.2668 13.273 22.8899 13.0145C23.5131 12.756 24.0612 12.3769 24.4931 11.9057Z" fill="white"/>
<path d="M47.0165 26.4612H41.7556L40.4922 29.7338H38.2639L43.247 17.6262H45.5621L50.5452 29.7338H48.2788L47.0165 26.4612ZM42.3005 24.9511H46.4706L44.4149 19.64H44.3574L42.3005 24.9511Z" fill="white"/>
<path d="M61.3069 25.3205C61.3069 28.0637 59.6332 29.8261 57.1075 29.8261C56.4677 29.8555 55.8314 29.7262 55.2715 29.453C54.7115 29.1799 54.2506 28.774 53.9414 28.2817H53.8936V32.654H51.8281V20.9064H53.8275V22.3746H53.8654C54.1888 21.8847 54.6576 21.4808 55.2218 21.206C55.786 20.9312 56.4245 20.7958 57.0695 20.814C59.6234 20.814 61.3069 22.585 61.3069 25.3205ZM59.1839 25.3205C59.1839 23.5334 58.131 22.3584 56.5247 22.3584C54.9465 22.3584 53.885 23.5581 53.885 25.3205C53.885 27.0991 54.9465 28.2903 56.5247 28.2903C58.131 28.2903 59.1839 27.1239 59.1839 25.3205Z" fill="white"/>
<path d="M72.3821 25.3205C72.3821 28.0637 70.7084 29.8261 68.1827 29.8261C67.5429 29.8554 66.9066 29.7262 66.3467 29.453C65.7867 29.1799 65.3258 28.7739 65.0166 28.2817H64.9688V32.654H62.9033V20.9064H64.9026V22.3746H64.9406C65.264 21.8847 65.7327 21.4808 66.2969 21.206C66.8611 20.9312 67.4997 20.7958 68.1447 20.814C70.6987 20.814 72.3821 22.585 72.3821 25.3205ZM70.2591 25.3205C70.2591 23.5333 69.2062 22.3584 67.5999 22.3584C66.0217 22.3584 64.9602 23.5581 64.9602 25.3205C64.9602 27.0991 66.0217 28.2903 67.5999 28.2903C69.2062 28.2903 70.2591 27.1239 70.2591 25.3205H70.2591Z" fill="white"/>
<path d="M79.702 26.3603C79.8551 27.5609 81.1847 28.3493 83.0016 28.3493C84.7426 28.3493 85.9952 27.5609 85.9952 26.4783C85.9952 25.5385 85.2397 24.9758 83.451 24.5902L81.6623 24.2122C79.1279 23.6752 77.9513 22.6354 77.9513 20.9482C77.9513 18.8592 80.0266 17.4243 82.9734 17.4243C85.8898 17.4243 87.8892 18.8592 87.9565 20.9482H85.8714C85.7466 19.7399 84.608 19.0106 82.9441 19.0106C81.2802 19.0106 80.1416 19.7485 80.1416 20.8225C80.1416 21.6785 80.8688 22.1822 82.6478 22.5678L84.1684 22.8953C87.0002 23.4828 88.1768 24.4807 88.1768 26.2517C88.1768 28.5168 86.1199 29.9355 82.8486 29.9355C79.7877 29.9355 77.7212 28.5501 77.5876 26.3602L79.702 26.3603Z" fill="white"/>
<path d="M92.6346 18.8174V20.9064H94.5481V22.3413H92.6346V27.2077C92.6346 27.9637 93.0177 28.316 93.8589 28.316C94.0861 28.3125 94.3129 28.2985 94.5384 28.2741V29.7004C94.1602 29.7624 93.7758 29.7905 93.3911 29.7842C91.3538 29.7842 90.5593 29.1129 90.5593 27.401V22.3413H89.0962V20.9064H90.5593V18.8174H92.6346Z" fill="white"/>
<path d="M95.6565 25.3206C95.6565 22.5431 97.5212 20.7979 100.429 20.7979C103.347 20.7979 105.203 22.5431 105.203 25.3206C105.203 28.1056 103.356 29.8433 100.429 29.8433C97.5027 29.8433 95.6565 28.1056 95.6565 25.3206ZM103.098 25.3206C103.098 23.4153 102.103 22.2908 100.429 22.2908C98.7553 22.2908 97.7611 23.4239 97.7611 25.3206C97.7611 27.2334 98.7553 28.3493 100.429 28.3493C102.103 28.3493 103.098 27.2334 103.098 25.3206H103.098Z" fill="white"/>
<path d="M106.905 20.9064H108.875V22.4089H108.923C109.056 21.9396 109.37 21.5249 109.811 21.2345C110.251 20.9441 110.793 20.7956 111.343 20.814C111.582 20.8133 111.819 20.836 112.051 20.8816V22.5765C111.751 22.4959 111.437 22.4589 111.123 22.467C110.823 22.4563 110.524 22.5027 110.246 22.603C109.969 22.7033 109.719 22.8552 109.514 23.0481C109.31 23.2411 109.155 23.4705 109.062 23.7208C108.968 23.971 108.937 24.2361 108.971 24.4979V29.7338H106.905L106.905 20.9064Z" fill="white"/>
<path d="M121.574 27.1411C121.297 28.7435 119.518 29.8433 117.242 29.8433C114.314 29.8433 112.497 28.1227 112.497 25.3624C112.497 22.5936 114.324 20.7979 117.155 20.7979C119.939 20.7979 121.69 22.4755 121.69 25.152V25.7728H114.582V25.8823C114.55 26.2072 114.596 26.5345 114.718 26.8424C114.841 27.1504 115.037 27.4319 115.293 27.6684C115.549 27.9049 115.859 28.0909 116.203 28.214C116.548 28.3372 116.918 28.3947 117.289 28.3827C117.777 28.4228 118.267 28.3236 118.686 28.0999C119.105 27.8762 119.43 27.5399 119.613 27.1411L121.574 27.1411ZM114.592 24.5065H119.623C119.641 24.2144 119.591 23.922 119.475 23.6479C119.358 23.3737 119.179 23.1236 118.947 22.9132C118.715 22.7028 118.436 22.5367 118.128 22.4254C117.819 22.314 117.488 22.2598 117.155 22.2661C116.818 22.2643 116.485 22.321 116.174 22.4329C115.862 22.5447 115.58 22.7096 115.341 22.9179C115.103 23.1262 114.914 23.3738 114.786 23.6464C114.657 23.9191 114.591 24.2114 114.592 24.5065V24.5065Z" fill="white"/>
<path d="M39.6462 14.3303V8.5127H42.312C43.558 8.5127 44.3069 9.06875 44.3069 9.96377C44.3072 10.2578 44.1916 10.5428 43.9798 10.7707C43.768 10.9985 43.4728 11.1551 43.1445 11.2139V11.2825C43.5519 11.2994 43.9358 11.4549 44.2146 11.7161C44.4935 11.9772 44.6453 12.3234 44.638 12.6812C44.638 13.7052 43.7881 14.3303 42.3717 14.3303L39.6462 14.3303ZM40.6763 10.9759H41.8984C42.8091 10.9759 43.2823 10.6816 43.2823 10.1294C43.2823 9.59287 42.8362 9.27866 42.0732 9.27866H40.6763V10.9759ZM42.1654 13.5643C43.0935 13.5643 43.5851 13.2334 43.5851 12.6169C43.5851 12.008 43.075 11.6895 42.1057 11.6895H40.6763V13.5643H42.1654Z" fill="white"/>
<path d="M45.6963 13.0887C45.6963 12.2984 46.3671 11.8428 47.5577 11.7781L48.9134 11.7095V11.3306C48.9134 10.8669 48.5639 10.605 47.8888 10.605C47.3374 10.605 46.9554 10.7826 46.8457 11.093H45.8895C45.9904 10.3389 46.7991 9.85522 47.9344 9.85522C49.1891 9.85522 49.8968 10.4032 49.8968 11.3306V14.3303H48.946V13.7133H48.8678C48.7092 13.9346 48.4865 14.1151 48.2224 14.2362C47.9583 14.3573 47.6622 14.4147 47.3645 14.4027C47.1544 14.4218 46.9421 14.4022 46.7412 14.3449C46.5403 14.2877 46.3553 14.1942 46.1981 14.0704C46.0409 13.9466 45.9151 13.7953 45.8286 13.6262C45.7422 13.4571 45.6971 13.274 45.6963 13.0887ZM48.9134 12.7136V12.3465L47.6912 12.4151C47.002 12.4555 46.6894 12.6612 46.6894 13.0482C46.6894 13.4434 47.0802 13.6733 47.6175 13.6733C47.7749 13.6873 47.9339 13.6734 48.0851 13.6323C48.2363 13.5913 48.3765 13.524 48.4974 13.4344C48.6183 13.3449 48.7174 13.2349 48.7889 13.1111C48.8604 12.9872 48.9027 12.8521 48.9134 12.7136Z" fill="white"/>
<path d="M51.3144 8.64169C51.3067 8.52947 51.3377 8.41782 51.4033 8.32122C51.4688 8.22462 51.5659 8.1475 51.682 8.09987C51.7981 8.05224 51.9278 8.03628 52.0543 8.05406C52.1809 8.07185 52.2984 8.12255 52.3917 8.19961C52.485 8.27667 52.5498 8.37654 52.5777 8.48627C52.6056 8.596 52.5952 8.71054 52.548 8.81506C52.5008 8.91958 52.4189 9.00926 52.313 9.07248C52.207 9.1357 52.0818 9.16955 51.9537 9.16965C51.8718 9.17332 51.7898 9.16241 51.7129 9.1376C51.6359 9.11278 51.5654 9.07457 51.5057 9.02525C51.446 8.97593 51.3982 8.91653 51.3654 8.85061C51.3325 8.7847 51.3151 8.71363 51.3144 8.64169ZM51.4609 9.93994H52.4454V14.3303H51.4609L51.4609 9.93994Z" fill="white"/>
<path d="M55.8348 12.774L54.7408 14.3303H53.6564L55.316 12.1451L53.6423 9.93994H54.7961L55.8717 11.4881H55.9499L57.0158 9.93994H58.1142L56.4644 12.1089L58.1327 14.3303H56.9983L55.9086 12.774H55.8348Z" fill="white"/>
<path d="M59.0042 13.0887C59.0042 12.2984 59.6749 11.8428 60.8656 11.7781L62.2213 11.7095V11.3306C62.2213 10.8669 61.8718 10.605 61.1967 10.605C60.6453 10.605 60.2632 10.7826 60.1536 11.093H59.1974C59.2983 10.3389 60.1069 9.85522 61.2422 9.85522C62.497 9.85522 63.2046 10.4032 63.2046 11.3306V14.3303H62.2538V13.7133H62.1757C62.0171 13.9346 61.7943 14.1151 61.5302 14.2362C61.2661 14.3573 60.9701 14.4147 60.6724 14.4027C60.4623 14.4218 60.25 14.4022 60.0491 14.3449C59.8481 14.2877 59.6631 14.1942 59.506 14.0704C59.3488 13.9466 59.2229 13.7953 59.1365 13.6262C59.0501 13.4571 59.005 13.274 59.0042 13.0887ZM62.2213 12.7136V12.3465L60.9991 12.4151C60.3099 12.4555 59.9973 12.6612 59.9973 13.0482C59.9973 13.4434 60.388 13.6733 60.9253 13.6733C61.0828 13.6873 61.2418 13.6734 61.393 13.6323C61.5441 13.5913 61.6843 13.524 61.8052 13.4344C61.9261 13.3449 62.0253 13.2349 62.0968 13.1111C62.1682 12.9872 62.2106 12.8521 62.2213 12.7136Z" fill="white"/>
<path d="M64.7515 9.93992H65.7023V10.6131H65.7761C65.8825 10.3794 66.0706 10.1813 66.3134 10.0473C66.5562 9.91325 66.8412 9.85016 67.1274 9.86707C67.2753 9.86533 67.4231 9.87746 67.5681 9.90325V10.7583C67.3868 10.7244 67.202 10.7068 67.0167 10.706C66.8538 10.6931 66.6896 10.7103 66.5347 10.7565C66.3799 10.8026 66.2377 10.8767 66.1174 10.9739C65.9971 11.0711 65.9013 11.1893 65.8361 11.3209C65.771 11.4525 65.738 11.5946 65.7392 11.7381V14.3303H64.7515L64.7515 9.93992Z" fill="white"/>
<path d="M71.3745 9.9399H72.3259V10.6373H72.3997C72.5249 10.3868 72.7361 10.1769 73.0038 10.0366C73.2715 9.89644 73.5824 9.83299 73.8932 9.85515C74.1367 9.83909 74.3813 9.8713 74.6087 9.94939C74.8361 10.0275 75.0405 10.1495 75.2069 10.3063C75.3732 10.4631 75.4972 10.6508 75.5697 10.8553C75.6422 11.0599 75.6612 11.2762 75.6255 11.4881V14.3302H74.6378V11.7057C74.6378 11.0001 74.2883 10.6493 73.5578 10.6493C73.3925 10.6425 73.2275 10.6672 73.074 10.7216C72.9206 10.776 72.7824 10.8589 72.6689 10.9646C72.5553 11.0703 72.4692 11.1963 72.4164 11.3339C72.3636 11.4715 72.3453 11.6175 72.3628 11.7618V14.3303H71.3746L71.3745 9.9399Z" fill="white"/>
<path d="M76.8682 13.0887C76.8682 12.2984 77.5389 11.8428 78.7296 11.7781L80.0853 11.7095V11.3306C80.0853 10.8669 79.7358 10.605 79.0607 10.605C78.5093 10.605 78.1272 10.7826 78.0176 11.093H77.0614C77.1623 10.3389 77.9709 9.85522 79.1063 9.85522C80.361 9.85522 81.0686 10.4032 81.0686 11.3306V14.3303H80.1178V13.7133H80.0397C79.8811 13.9346 79.6583 14.1151 79.3942 14.2362C79.1301 14.3573 78.8341 14.4147 78.5364 14.4027C78.3263 14.4218 78.114 14.4022 77.9131 14.3449C77.7122 14.2877 77.5272 14.1942 77.37 14.0704C77.2128 13.9466 77.0869 13.7953 77.0005 13.6262C76.9141 13.4571 76.869 13.274 76.8682 13.0887ZM80.0853 12.7136V12.3465L78.8631 12.4151C78.1739 12.4555 77.8613 12.6612 77.8613 13.0482C77.8613 13.4434 78.252 13.6733 78.7894 13.6733C78.9468 13.6873 79.1058 13.6734 79.257 13.6323C79.4081 13.5913 79.5483 13.524 79.6693 13.4344C79.7902 13.3449 79.8893 13.2349 79.9608 13.1111C80.0323 12.9872 80.0746 12.8521 80.0853 12.7136H80.0853Z" fill="white"/>
</g>
<defs>
<clipPath id="clip0_124_503">
<rect width="133" height="39" fill="white"/>
</clipPath>
</defs>
</svg>
