<svg width="1280" height="414" viewBox="0 0 1280 414" fill="none" xmlns="http://www.w3.org/2000/svg">
<path d="M349.649 359.74H406.131V134.916H349.649V359.74Z" fill="#B5C3C2"/>
<path d="M358.878 213.276H396.902V118.798H358.878V213.276Z" fill="#B5C3C2"/>
<path d="M367.343 160.979H388.436V108.574H367.343V160.979Z" fill="#B5C3C2"/>
<path d="M385.077 135.503H370.703V99.7886H385.077V135.503Z" fill="#B5C3C2"/>
<path d="M376.944 119.951H375.384V84.2375H376.944V119.951Z" fill="#B5C3C2"/>
<path d="M380.396 107.605H378.837V71.892H380.396V107.605Z" fill="#B5C3C2"/>
<path d="M407.638 136.735H348.141V134.34H407.638V136.735Z" fill="#B5C3C2"/>
<path d="M398.289 119.951H357.491V117.645H398.289V119.951Z" fill="#B5C3C2"/>
<path d="M389.32 109.373H365.807V107.605H389.32V109.373Z" fill="#B5C3C2"/>
<path d="M362.374 132.532H364.142V122.632H362.374V132.532Z" fill="#B5C3C2"/>
<path d="M367.265 132.532H367.343V122.632H367.265V132.532Z" fill="#B5C3C2"/>
<path d="M367.343 132.532H369.034V122.632H367.343V132.532Z" fill="#B5C3C2"/>
<path d="M372.157 132.532H373.924V122.632H372.157V132.532Z" fill="#B5C3C2"/>
<path d="M377.048 132.532H378.815V122.632H377.048V132.532Z" fill="#B5C3C2"/>
<path d="M381.938 132.532H383.707V122.632H381.938V132.532Z" fill="#B5C3C2"/>
<path d="M388.435 132.532H388.597V122.632H388.435V132.532Z" fill="#B5C3C2"/>
<path d="M386.83 132.532H388.435V122.632H386.83V132.532Z" fill="#B5C3C2"/>
<path d="M391.721 132.532H393.488V122.632H391.721V132.532Z" fill="#B5C3C2"/>
<path d="M358.878 155.625H354.606V143.881H358.878V155.625Z" fill="#B5C3C2"/>
<path d="M363.065 155.627H367.338V143.881H363.065V155.627Z" fill="#B5C3C2"/>
<path d="M375.796 155.625H371.525V143.881H375.796V155.625Z" fill="#B5C3C2"/>
<path d="M384.255 155.625H379.984V143.881H384.255V155.625Z" fill="#B5C3C2"/>
<path d="M392.714 155.625H388.444V143.881H392.714V155.625Z" fill="#B5C3C2"/>
<path d="M401.173 155.625H396.902V143.881H401.173V155.625Z" fill="#B5C3C2"/>
<path d="M358.878 173.933H354.606V162.188H358.878V173.933Z" fill="#B5C3C2"/>
<path d="M367.336 173.933H363.065V162.188H367.336V173.933Z" fill="#B5C3C2"/>
<path d="M375.796 173.933H371.525V162.188H375.796V173.933Z" fill="#B5C3C2"/>
<path d="M379.984 173.933H384.255V162.188H379.984V173.933Z" fill="#B5C3C2"/>
<path d="M392.714 173.933H388.444V162.188H392.714V173.933Z" fill="#B5C3C2"/>
<path d="M401.173 173.933H396.902V162.188H401.173V173.933Z" fill="#B5C3C2"/>
<path d="M358.878 192.24H354.606V180.496H358.878V192.24Z" fill="#B5C3C2"/>
<path d="M367.336 192.24H363.065V180.496H367.336V192.24Z" fill="#B5C3C2"/>
<path d="M375.796 192.24H371.525V180.496H375.796V192.24Z" fill="#B5C3C2"/>
<path d="M384.255 192.24H379.984V180.496H384.255V192.24Z" fill="#B5C3C2"/>
<path d="M388.444 192.24H392.713V180.496H388.444V192.24Z" fill="#B5C3C2"/>
<path d="M396.902 192.24H401.173V180.496H396.902V192.24Z" fill="#B5C3C2"/>
<path d="M354.606 210.549H358.878V198.803H354.606V210.549Z" fill="#B5C3C2"/>
<path d="M367.336 210.549H363.065V198.803H367.336V210.549Z" fill="#B5C3C2"/>
<path d="M375.796 210.549H371.525V198.803H375.796V210.549Z" fill="#B5C3C2"/>
<path d="M384.255 210.549H379.984V198.803H384.255V210.549Z" fill="#B5C3C2"/>
<path d="M392.714 210.549H388.444V198.803H392.714V210.549Z" fill="#B5C3C2"/>
<path d="M401.173 210.549H396.902V198.803H401.173V210.549Z" fill="#B5C3C2"/>
<path d="M358.878 228.857H354.606V217.112H358.878V228.857Z" fill="#B5C3C2"/>
<path d="M363.065 228.857H367.338V217.112H363.065V228.857Z" fill="#B5C3C2"/>
<path d="M375.796 228.857H371.525V217.112H375.796V228.857Z" fill="#B5C3C2"/>
<path d="M379.984 228.857H384.255V217.112H379.984V228.857Z" fill="#B5C3C2"/>
<path d="M392.714 228.857H388.444V217.112H392.714V228.857Z" fill="#B5C3C2"/>
<path d="M401.173 228.857H396.902V217.112H401.173V228.857Z" fill="#B5C3C2"/>
<path d="M358.878 247.164H354.606V235.42H358.878V247.164Z" fill="#B5C3C2"/>
<path d="M367.336 247.164H363.065V235.42H367.336V247.164Z" fill="#B5C3C2"/>
<path d="M375.796 247.164H371.525V235.42H375.796V247.164Z" fill="#B5C3C2"/>
<path d="M384.255 247.164H379.984V235.42H384.255V247.164Z" fill="#B5C3C2"/>
<path d="M392.714 247.164H388.444V235.42H392.714V247.164Z" fill="#B5C3C2"/>
<path d="M396.902 247.164H401.173V235.42H396.902V247.164Z" fill="#B5C3C2"/>
<path d="M358.878 265.472H354.606V253.727H358.878V265.472Z" fill="#B5C3C2"/>
<path d="M363.065 265.472H367.338V253.726H363.065V265.472Z" fill="#B5C3C2"/>
<path d="M371.525 265.472H375.796V253.726H371.525V265.472Z" fill="#B5C3C2"/>
<path d="M384.255 265.472H379.984V253.727H384.255V265.472Z" fill="#B5C3C2"/>
<path d="M392.714 265.472H388.444V253.727H392.714V265.472Z" fill="#B5C3C2"/>
<path d="M401.173 265.472H396.902V253.727H401.173V265.472Z" fill="#B5C3C2"/>
<path d="M358.878 283.78H354.606V272.035H358.878V283.78Z" fill="#B5C3C2"/>
<path d="M367.336 283.78H363.065V272.035H367.336V283.78Z" fill="#B5C3C2"/>
<path d="M375.796 283.78H371.525V272.035H375.796V283.78Z" fill="#B5C3C2"/>
<path d="M384.255 283.78H379.984V272.035H384.255V283.78Z" fill="#B5C3C2"/>
<path d="M388.444 283.78H392.713V272.035H388.444V283.78Z" fill="#B5C3C2"/>
<path d="M401.173 283.78H396.902V272.035H401.173V283.78Z" fill="#B5C3C2"/>
<path d="M358.878 302.087H354.606V290.342H358.878V302.087Z" fill="#B5C3C2"/>
<path d="M363.065 302.087H367.338V290.342H363.065V302.087Z" fill="#B5C3C2"/>
<path d="M375.796 302.087H371.525V290.342H375.796V302.087Z" fill="#B5C3C2"/>
<path d="M384.255 302.087H379.984V290.342H384.255V302.087Z" fill="#B5C3C2"/>
<path d="M392.714 302.087H388.444V290.342H392.714V302.087Z" fill="#B5C3C2"/>
<path d="M401.173 302.087H396.902V290.342H401.173V302.087Z" fill="#B5C3C2"/>
<path d="M358.878 320.396H354.606V308.65H358.878V320.396Z" fill="#B5C3C2"/>
<path d="M367.336 320.396H363.065V308.65H367.336V320.396Z" fill="#B5C3C2"/>
<path d="M375.796 320.396H371.525V308.65H375.796V320.396Z" fill="#B5C3C2"/>
<path d="M379.984 320.396H384.255V308.65H379.984V320.396Z" fill="#B5C3C2"/>
<path d="M392.714 320.396H388.444V308.65H392.714V320.396Z" fill="#B5C3C2"/>
<path d="M396.902 320.396H401.173V308.65H396.902V320.396Z" fill="#B5C3C2"/>
<path d="M354.606 338.703H358.878V326.957H354.606V338.703Z" fill="#B5C3C2"/>
<path d="M367.336 338.703H363.065V326.957H367.336V338.703Z" fill="#B5C3C2"/>
<path d="M371.525 338.703H375.796V326.957H371.525V338.703Z" fill="#B5C3C2"/>
<path d="M384.255 338.703H379.984V326.957H384.255V338.703Z" fill="#B5C3C2"/>
<path d="M392.714 338.703H388.444V326.957H392.714V338.703Z" fill="#B5C3C2"/>
<path d="M401.173 338.703H396.902V326.957H401.173V338.703Z" fill="#B5C3C2"/>
<path d="M185.609 332.863H276.406V143.469H185.609V332.863Z" fill="#B5C3C2"/>
<path d="M278.987 145.566H183.03V140.212H278.987V145.566Z" fill="#B5C3C2"/>
<path d="M188.661 158.803H273.354V133.36H188.661V158.803Z" fill="#B5C3C2"/>
<path d="M228.681 150.75H195.145V122.948H228.681V150.75Z" fill="#B5C3C2"/>
<path d="M214.553 130.783H195.145V116.149H209.064L214.553 130.783Z" fill="#B5C3C2"/>
<path d="M202.967 136.6H204.849V104.003H202.967V136.6Z" fill="#B5C3C2"/>
<path d="M205.597 102.314C205.597 103.246 204.84 104.002 203.908 104.002C202.974 104.002 202.218 103.246 202.218 102.314C202.218 101.38 202.974 100.623 203.908 100.623C204.84 100.623 205.597 101.38 205.597 102.314Z" fill="#B5C3C2"/>
<path d="M1028.29 347.28H928.904L916.502 68.8204L1028.29 92.0249V347.28Z" fill="#B5C3C2"/>
<path d="M594.675 188.255V95.1569H579.088V70.2201H573.519V33.6469H542.839V6.76813H540.108V33.6469H534.098V-0.000213623H531.369V33.6469H511.973V95.1569H501.954V188.255H493.365V357.822H600.714V188.255H594.675Z" fill="#B5C3C2"/>
<path d="M58.7137 372.072H1246.23V343.828H58.7137V372.072Z" fill="#B5C3C2"/>
<path d="M757.722 365.152H705.136L725.627 259.852H757.722V365.152Z" fill="#95A9A7"/>
<path d="M16.1072 413.787H1262.95V369.251H16.1072V413.787Z" fill="#95A9A7"/>
<path d="M714.628 170.296V123.633H697.744V105.87H688.711V90.9484H685.541V65.367H684.722V90.9484H681.551V105.87H672.518V123.633H655.763V170.296H652.28V255.01H626.302V351.581H652.28H678.26H717.982V170.296H714.628Z" fill="#95A9A7"/>
<path d="M811.665 223.896H729.94V225.381H733.637V363.572H807.966V225.381H811.665V223.896Z" fill="#95A9A7"/>
<path d="M438.998 373.432H366.539V258.317H438.998V373.432Z" fill="#95A9A7"/>
<path d="M355.624 373.432H231.008V317.295H355.624V373.432Z" fill="#95A9A7"/>
<path d="M325.159 191.877H297.802V329.731H325.159V191.877Z" fill="#95A9A7"/>
<path d="M305.264 230.071H303.842V155.104H305.264V230.071Z" fill="#95A9A7"/>
<path d="M309.882 235.755H308.462V160.788H309.882V235.755Z" fill="#95A9A7"/>
<path d="M316.632 201.824H299.912V183.35H316.632V201.824Z" fill="#95A9A7"/>
<path d="M398.351 373.432H350.741V278.924H398.351V373.432Z" fill="#95A9A7"/>
<path d="M450.744 373.432H540.113V178.911H450.744V373.432Z" fill="#95A9A7"/>
<path d="M459.522 204.623H531.332V172.225H459.522V204.623Z" fill="#95A9A7"/>
<path d="M547.04 185.255H443.816V182.981H547.04V185.255Z" fill="#95A9A7"/>
<path d="M476.66 373.432H434.551V275.193H476.66V373.432Z" fill="#95A9A7"/>
<path d="M181.267 373.432H132.947V271.462H181.267V373.432Z" fill="#95A9A7"/>
<path d="M148.58 373.432H244.864V243.75H148.58V373.432Z" fill="#95A9A7"/>
<path d="M247.351 243.75H142.963V238.775H247.351V243.75Z" fill="#95A9A7"/>
<path d="M195.157 251.567H152.843V225.274H195.157V251.567Z" fill="#95A9A7"/>
<path d="M216.085 241.263H208.979V225.274H216.085V241.263Z" fill="#95A9A7"/>
<path d="M231.008 241.263H223.191V225.274H231.008V241.263Z" fill="#95A9A7"/>
<path d="M157.107 373.432H106.655V333.994H157.107V373.432Z" fill="#95A9A7"/>
<path d="M111.488 373.432H87.5988V317.295H111.488V373.432Z" fill="#95A9A7"/>
<path d="M99.5442 373.432H58.7131V353.713H99.5442V373.432Z" fill="#95A9A7"/>
<path d="M531.332 373.432H1034.44V329.731H531.332V373.432Z" fill="#95A9A7"/>
<path d="M972.681 242.073L953.694 233.309C956.394 227.382 958.002 220.858 958.266 213.995L979.13 214.673C978.782 224.273 976.574 233.545 972.681 242.073ZM957.949 263.237C957.472 263.713 956.988 264.182 956.5 264.645L942.214 249.397C946.842 245.001 950.658 239.757 953.409 233.917L972.398 242.683C968.868 250.224 964.011 257.173 957.949 263.237ZM942.814 274.861L932.837 256.47C936.036 254.584 939.014 252.362 941.722 249.855L956.012 265.105C951.947 268.884 947.522 272.147 942.814 274.861ZM978.704 343.828H834.687L870.785 277.295C873.149 278.599 875.58 279.769 878.069 280.805L875.524 287.005C874.945 286.821 874.33 286.722 873.693 286.722C870.353 286.722 867.647 289.43 867.647 292.768C867.647 296.108 870.353 298.814 873.693 298.814C877.031 298.814 879.738 296.108 879.738 292.768C879.738 290.304 878.263 288.187 876.151 287.245L878.691 281.06C886.641 284.281 895.155 286.114 903.94 286.431L903.733 292.772C900.458 292.847 897.827 295.522 897.827 298.814C897.827 302.153 900.534 304.861 903.872 304.861C907.213 304.861 909.919 302.153 909.919 298.814C909.919 295.655 907.495 293.063 904.405 292.793L904.611 286.452C905.304 286.471 905.999 286.482 906.695 286.482C915.152 286.482 923.393 285.081 931.155 282.391L933.328 288.555C931.27 289.521 929.845 291.609 929.845 294.033C929.845 297.37 932.552 300.078 935.891 300.078C939.231 300.078 941.936 297.37 941.936 294.033C941.936 290.693 939.231 287.985 935.891 287.985C935.213 287.985 934.561 288.098 933.951 288.306L931.79 282.17C935.517 280.839 939.133 279.21 942.607 277.295L978.704 343.828ZM855.442 263.237C854.964 262.76 854.495 262.276 854.034 261.788L869.28 247.502C872.592 250.989 876.387 254.012 880.553 256.47L870.575 274.861C865.11 271.709 860.022 267.818 855.442 263.237ZM838.757 237.355L858.378 230.131C860.753 236.433 864.328 242.153 868.824 247.01L853.574 261.3C847.031 254.264 842.032 246.143 838.757 237.355ZM834.211 211.983C834.211 211.309 834.221 210.635 834.239 209.964L855.098 210.641C855.087 211.087 855.081 211.534 855.081 211.983C855.081 218.129 856.163 224.029 858.144 229.5L838.526 236.724C835.691 228.898 834.211 220.554 834.211 211.983ZM840.711 181.893L859.696 190.656C856.998 196.583 855.389 203.108 855.124 209.97L834.26 209.292C834.608 199.694 836.816 190.422 840.711 181.893ZM855.442 160.73C855.918 160.253 856.402 159.785 856.889 159.322L871.176 174.568C866.548 178.964 862.734 184.208 859.98 190.048L840.992 181.282C844.522 173.741 849.378 166.792 855.442 160.73ZM882.272 143.698L889.22 163.415C882.65 165.787 876.697 169.455 871.668 174.111L857.378 158.862C864.666 152.082 873.12 146.965 882.272 143.698ZM906.695 139.499C907.371 139.499 908.043 139.509 908.714 139.527L908.036 160.386C907.591 160.375 907.144 160.369 906.695 160.369C900.802 160.369 895.136 161.365 889.855 163.193L882.906 143.476C890.455 140.861 898.472 139.499 906.695 139.499ZM933.935 144.77L925.991 164.113C920.615 161.94 914.795 160.646 908.709 160.411L909.385 139.548C917.926 139.857 926.204 141.64 933.935 144.77ZM957.949 160.73C958.425 161.206 958.894 161.689 959.357 162.177L944.109 176.464C939.213 171.308 933.264 167.161 926.611 164.368L934.555 145.025C943.196 148.621 951.133 153.913 957.949 160.73ZM974.634 186.612L955.013 193.836C952.637 187.532 949.062 181.812 944.567 176.955L959.818 162.666C966.36 169.703 971.357 177.823 974.634 186.612ZM924.169 260.549C926.774 259.61 929.28 258.466 931.671 257.138L941.644 275.522C938.265 277.387 934.747 278.972 931.119 280.269L924.169 260.549ZM905.353 263.579C905.8 263.59 906.246 263.597 906.695 263.597C912.59 263.597 918.255 262.602 923.535 260.773L930.486 280.491C922.936 283.105 914.92 284.467 906.695 284.467C906.021 284.467 905.347 284.456 904.676 284.438L905.353 263.579ZM887.401 259.852C892.774 262.026 898.595 263.319 904.683 263.554L904.004 284.417C895.466 284.108 887.185 282.325 879.457 279.195L887.401 259.852ZM886.778 259.597L878.835 278.94C876.413 277.932 874.048 276.793 871.745 275.522L881.719 257.138C883.354 258.045 885.041 258.869 886.778 259.597ZM910.515 213.377C910.623 213.082 910.697 212.772 910.733 212.45L957.259 213.963C956.999 220.686 955.424 227.079 952.778 232.886L910.515 213.377ZM910.828 215.902L909.992 214.36C910.077 214.24 910.158 214.115 910.232 213.985L952.495 233.496C949.796 239.217 946.061 244.355 941.526 248.663L910.828 215.902ZM912.093 218.236L941.034 249.12C938.386 251.569 935.478 253.739 932.358 255.583L912.093 218.236ZM908.359 215.691C908.581 215.592 908.792 215.473 908.992 215.336L931.192 256.253C928.846 257.555 926.388 258.677 923.833 259.6L908.359 215.691ZM906.695 262.589C906.258 262.589 905.821 262.584 905.387 262.573L906.899 216.042C907.183 216.029 907.459 215.985 907.726 215.916L923.2 259.822C918.026 261.615 912.472 262.589 906.695 262.589ZM905.466 215.859C905.711 215.936 905.965 215.99 906.227 216.021L904.715 262.547C898.751 262.317 893.05 261.05 887.783 258.921L905.466 215.859ZM904.398 215.336C904.541 215.434 904.69 215.523 904.846 215.602L887.162 258.666C885.458 257.95 883.802 257.142 882.2 256.253L904.398 215.336ZM902.107 216.742L881.034 255.583C876.963 253.179 873.254 250.222 870.016 246.813L902.107 216.742ZM903.01 213.699C903.119 213.932 903.249 214.153 903.4 214.36L903.123 214.87L869.559 246.322C865.153 241.562 861.652 235.958 859.324 229.783L903.01 213.699ZM902.876 210.589C902.768 210.883 902.695 211.193 902.659 211.515L856.131 210.003C856.391 203.279 857.967 196.886 860.611 191.079L902.876 210.589ZM903.679 209.257C903.48 209.478 903.305 209.72 903.158 209.98L860.896 190.47C863.593 184.749 867.33 179.611 871.864 175.304L903.679 209.257ZM905.031 208.274C904.722 208.414 904.433 208.59 904.172 208.798L872.356 174.845C877.284 170.284 883.119 166.691 889.557 164.366L905.031 208.274ZM906.491 207.923C906.207 207.938 905.932 207.98 905.665 208.05L890.19 164.143C895.366 162.353 900.918 161.377 906.695 161.377C907.133 161.377 907.568 161.383 908.004 161.392L906.491 207.923ZM907.923 208.108C907.678 208.029 907.425 207.976 907.162 207.945L908.675 161.419C914.639 161.65 920.342 162.916 925.608 165.046L907.923 208.108ZM909.422 208.969C909.159 208.73 908.864 208.527 908.545 208.363L926.23 165.3C932.748 168.038 938.575 172.102 943.375 177.152L909.422 208.969ZM909.88 209.458L943.833 177.644C948.236 182.403 951.738 188.007 954.067 194.184L910.381 210.269C910.245 209.978 910.076 209.706 909.88 209.458ZM856.106 210.675L902.635 212.187C902.65 212.491 902.699 212.784 902.776 213.067L859.089 229.152C857.149 223.789 856.089 218.008 856.089 211.983C856.089 211.546 856.095 211.109 856.106 210.675ZM957.285 213.29L910.755 211.779C910.74 211.476 910.691 211.181 910.613 210.898L954.301 194.813C956.242 200.178 957.303 205.957 957.303 211.983C957.303 212.419 957.297 212.857 957.285 213.29ZM979.179 211.983C979.179 212.657 979.168 213.33 979.151 214.002L958.293 213.324C958.302 212.878 958.309 212.431 958.309 211.983C958.309 205.836 957.227 199.937 955.246 194.465L974.864 187.242C977.698 195.067 979.179 203.411 979.179 211.983ZM994.269 208.759C991.099 208.759 988.503 211.196 988.244 214.297L981.164 214.068C981.184 213.374 981.195 212.679 981.195 211.983C981.195 203.169 979.674 194.592 976.757 186.546L982.673 184.368C983.601 186.511 985.736 188.011 988.222 188.011C991.562 188.011 994.269 185.304 994.269 181.966C994.269 178.627 991.562 175.919 988.222 175.919C984.883 175.919 982.177 178.627 982.177 181.966C982.177 182.582 982.269 183.176 982.441 183.737L976.527 185.914C973.156 176.875 968.019 168.524 961.287 161.289L965.917 156.951C967.001 157.988 968.471 158.626 970.09 158.626C973.43 158.626 976.135 155.919 976.135 152.58C976.135 149.241 973.43 146.533 970.09 146.533C966.751 146.533 964.044 149.241 964.044 152.58C964.044 154.058 964.576 155.411 965.455 156.461L960.827 160.8C960.349 160.295 959.867 159.797 959.373 159.304C952.365 152.296 944.205 146.856 935.322 143.16L937.868 136.96C938.445 137.144 939.06 137.243 939.699 137.243C943.038 137.243 945.745 134.536 945.745 131.197C945.745 127.859 943.038 125.151 939.699 125.151C936.359 125.151 933.652 127.859 933.652 131.197C933.652 133.661 935.126 135.779 937.24 136.72L934.701 142.905C926.751 139.684 918.234 137.851 909.451 137.534L909.726 129.061L909.919 129.065C913.258 129.065 915.965 126.358 915.965 123.02C915.965 119.68 913.258 116.973 909.919 116.973C906.579 116.973 903.872 119.68 903.872 123.02C903.872 126.065 906.126 128.584 909.057 129.002L908.78 137.514C908.086 137.494 907.391 137.483 906.695 137.483C898.239 137.483 889.998 138.884 882.235 141.574L879.798 134.658C881.996 133.753 883.545 131.59 883.545 129.065C883.545 125.727 880.838 123.02 877.498 123.02C874.16 123.02 871.453 125.727 871.453 129.065C871.453 132.405 874.16 135.112 877.498 135.112C878.077 135.112 878.634 135.03 879.164 134.877L881.6 141.796C872.188 145.155 863.495 150.419 856.001 157.391L851.582 152.677C852.571 151.6 853.175 150.164 853.175 148.589C853.175 145.248 850.469 142.542 847.129 142.542C843.79 142.542 841.083 145.248 841.083 148.589C841.083 151.927 843.79 154.634 847.129 154.634C848.65 154.634 850.038 154.072 851.102 153.145L855.512 157.851C855.008 158.328 854.509 158.812 854.017 159.304C847.783 165.538 842.79 172.684 839.164 180.439L833.547 177.847C833.751 177.24 833.863 176.593 833.863 175.919C833.863 172.58 831.156 169.873 827.816 169.873C824.478 169.873 821.771 172.58 821.771 175.919C821.771 179.259 824.478 181.966 827.816 181.966C830.245 181.966 832.336 180.534 833.298 178.47L838.88 181.047C834.873 189.817 832.602 199.354 832.246 209.228L825.04 208.993C824.949 205.731 822.28 203.115 818.999 203.115C815.658 203.115 812.952 205.822 812.952 209.16C812.952 212.501 815.658 215.207 818.999 215.207C822.167 215.207 824.766 212.768 825.02 209.664L832.226 209.899C832.206 210.592 832.197 211.287 832.197 211.983C832.197 220.796 833.718 229.374 836.633 237.421L830.717 239.599C829.788 237.454 827.654 235.954 825.168 235.954C821.828 235.954 819.123 238.661 819.123 241.999C819.123 245.339 821.828 248.046 825.168 248.046C828.507 248.046 831.214 245.339 831.214 241.999C831.214 241.384 831.122 240.789 830.951 240.229L836.864 238.051C840.233 247.09 845.373 255.442 852.104 262.677L847.474 267.014C846.39 265.978 844.92 265.339 843.301 265.339C839.962 265.339 837.254 268.048 837.254 271.386C837.254 274.725 839.962 277.432 843.301 277.432C846.639 277.432 849.346 274.725 849.346 271.386C849.346 269.908 848.815 268.555 847.934 267.504L852.564 263.167C853.04 263.67 853.524 264.169 854.017 264.661C858.737 269.381 863.98 273.39 869.614 276.633L833.159 343.828H826.615V345.749H823.411V349.563H989.98V345.749H986.775V343.828H980.232L943.777 276.633C948.633 273.837 953.199 270.473 957.389 266.575L963.298 272.879C962.028 273.988 961.226 275.616 961.226 277.432C961.226 280.772 963.934 283.479 967.273 283.479C970.611 283.479 973.32 280.772 973.32 277.432C973.32 274.093 970.611 271.386 967.273 271.386C965.993 271.386 964.806 271.785 963.829 272.464L957.879 266.114C958.382 265.637 958.881 265.153 959.373 264.661C965.608 258.427 970.599 251.283 974.228 243.529L980.806 246.566C980.688 247.04 980.623 247.534 980.623 248.046C980.623 251.385 983.331 254.092 986.67 254.092C990.009 254.092 992.716 251.385 992.716 248.046C992.716 244.706 990.009 241.999 986.67 241.999C984.079 241.999 981.87 243.63 981.011 245.918L974.511 242.918C978.516 234.147 980.787 224.611 981.143 214.739L988.226 214.97C988.313 218.233 990.985 220.851 994.269 220.851C997.608 220.851 1000.31 218.145 1000.31 214.805C1000.31 211.466 997.608 208.759 994.269 208.759Z" fill="#95A9A7"/>
<path d="M1008.86 373.432H1086.55V259.6H1008.86V373.432Z" fill="#95A9A7"/>
<path d="M1152.87 372.79H1075.18V303.857H1152.87V372.79Z" fill="#95A9A7"/>
<path d="M773.894 351.581H817.477V293.734H773.894V351.581Z" fill="#95A9A7"/>
<path d="M1047.71 373.432H1102.66V151.346H1047.71V373.432Z" fill="#95A9A7"/>
<path d="M1193.14 373.432H1120.66V243.75H1175.61L1193.14 373.432Z" fill="#95A9A7"/>
<path d="M1224.88 373.432H1161.4V343.828H1224.88V373.432Z" fill="#95A9A7"/>
<path d="M1090.34 165.3H1088.45V104.949H1090.34V165.3Z" fill="#95A9A7"/>
<path d="M1096.74 178.251H1094.84V117.9H1096.74V178.251Z" fill="#95A9A7"/>
<path d="M1084.54 186.582H1082.64V126.231H1084.54V186.582Z" fill="#95A9A7"/>
<path d="M1149.44 253.697H1123.5V233.268H1149.44V253.697Z" fill="#95A9A7"/>
<path d="M1146.59 237.468H1126.34V225.985H1146.59V237.468Z" fill="#95A9A7"/>
<path d="M1164.72 247.502H1159.74V239.252H1164.72V247.502Z" fill="#95A9A7"/>
<path d="M1173.58 247.502H1166.48V231.726H1173.58V247.502Z" fill="#95A9A7"/>
<path d="M773.674 413.787H839.553V201.443H773.674V413.787Z" fill="#658280"/>
<path d="M844.473 204.853H768.753V202.701H844.473V204.853Z" fill="#658280"/>
<path d="M842.427 234.673H770.801V232.528H842.427V234.673Z" fill="#658280"/>
<path d="M842.427 263.56H770.801V261.415H842.427V263.56Z" fill="#658280"/>
<path d="M842.427 292.446H770.801V290.301H842.427V292.446Z" fill="#658280"/>
<path d="M842.427 321.332H770.801V319.188H842.427V321.332Z" fill="#658280"/>
<path d="M842.427 350.219H770.801V348.074H842.427V350.219Z" fill="#658280"/>
<path d="M842.427 379.105H770.801V376.961H842.427V379.105Z" fill="#658280"/>
<path d="M846.977 202.701H766.249V196.835H846.977V202.701Z" fill="#658280"/>
<path d="M779.604 228.792H786.448V211.828H779.604V228.792Z" fill="#658280"/>
<path d="M794.915 228.792H801.759V211.828H794.915V228.792Z" fill="#658280"/>
<path d="M810.224 228.792H817.069V211.828H810.224V228.792Z" fill="#658280"/>
<path d="M825.536 228.792H832.38V211.828H825.536V228.792Z" fill="#658280"/>
<path d="M779.604 256.526H786.448V239.562H779.604V256.526Z" fill="#658280"/>
<path d="M801.76 256.526H794.915V239.562H801.76V256.526ZM796.626 240.966V255.123H800.047V240.966H796.626Z" fill="#658280"/>
<path d="M810.224 256.526H817.069V239.562H810.224V256.526Z" fill="#658280"/>
<path d="M825.536 256.526H832.38V239.562H825.536V256.526Z" fill="#658280"/>
<path d="M779.604 285.412H786.448V268.449H779.604V285.412Z" fill="#658280"/>
<path d="M794.915 285.412H801.759V268.449H794.915V285.412Z" fill="#658280"/>
<path d="M810.224 285.412H817.069V268.449H810.224V285.412Z" fill="#658280"/>
<path d="M832.38 285.412H825.536V268.449H832.38V270.828H830.669V284.986H832.38V285.412Z" fill="#658280"/>
<path d="M779.604 314.298H786.448V297.335H779.604V314.298Z" fill="#658280"/>
<path d="M801.76 314.298H800.047V300.69H796.626V314.298H794.915V297.335H801.76V314.298Z" fill="#658280"/>
<path d="M813.648 314.298H810.224V297.335H817.069V300.69H813.648V314.298Z" fill="#658280"/>
<path d="M825.536 314.298H832.38V297.335H825.536V314.298Z" fill="#658280"/>
<path d="M786.448 343.185H779.604V326.222H786.448V343.185ZM779.604 327.818V341.974H783.026V327.818H779.604Z" fill="#658280"/>
<path d="M794.915 343.185H801.759V326.222H794.915V343.185Z" fill="#658280"/>
<path d="M810.224 343.185H817.069V326.222H810.224V343.185Z" fill="#658280"/>
<path d="M825.536 343.185H832.38V326.222H825.536V343.185Z" fill="#658280"/>
<path d="M779.604 372.072H786.448V355.109H779.604V372.072Z" fill="#658280"/>
<path d="M794.915 372.072H801.759V355.109H794.915V372.072Z" fill="#658280"/>
<path d="M813.648 372.072H810.224V355.108H817.069V358.072H813.648V372.072Z" fill="#658280"/>
<path d="M832.38 372.072H825.536V355.108H832.38V372.072Z" fill="#658280"/>
<path d="M786.449 400.958H779.604V383.994H786.449V400.958Z" fill="#658280"/>
<path d="M794.915 400.958H801.759V383.995H794.915V400.958Z" fill="#658280"/>
<path d="M817.069 400.958H810.224V383.994H817.069V400.958Z" fill="#658280"/>
<path d="M825.536 400.958H832.38V383.995H825.536V400.958Z" fill="#658280"/>
<path d="M800.239 199.768H777.833V188.739H800.239V199.768Z" fill="#658280"/>
<path d="M801.76 190.31H776.313V188.425H801.76V190.31Z" fill="#658280"/>
<path d="M679.254 413.787H591.499V212.031L679.254 190.565V413.787Z" fill="#658280"/>
<path d="M595.353 413.787H587.643V208.479H595.353V413.787Z" fill="#658280"/>
<path d="M617.292 413.787H609.582V202.694H617.292V413.787Z" fill="#658280"/>
<path d="M639.232 413.787H631.521V196.686H639.232V413.787Z" fill="#658280"/>
<path d="M661.169 413.787H653.459V191.789H661.169V413.787Z" fill="#658280"/>
<path d="M683.109 413.787H675.398V186.582H683.109V413.787Z" fill="#658280"/>
<path d="M607.586 241.3H597.35V225.708H599.91V234.523H605.027V225.708H607.586V241.3Z" fill="#658280"/>
<path d="M629.523 241.3H619.289V225.708H621.847V234.523H626.965V225.708H629.523V241.3Z" fill="#658280"/>
<path d="M641.228 241.3H651.464V225.708H641.228V241.3Z" fill="#658280"/>
<path d="M673.402 241.3H663.167V225.708H665.726V234.523H670.843V225.708H673.402V241.3Z" fill="#658280"/>
<path d="M597.35 268.45H607.586V252.858H597.35V268.45Z" fill="#658280"/>
<path d="M619.289 268.45H629.523V252.858H619.289V268.45Z" fill="#658280"/>
<path d="M651.464 268.45H641.228V252.858H643.787V259.347H648.904V252.858H651.464V268.45Z" fill="#658280"/>
<path d="M673.402 268.45H663.167V252.858H665.726V259.347H670.843V252.858H673.402V268.45Z" fill="#658280"/>
<path d="M607.586 295.6H597.35V280.008H599.91V284.172H605.027V280.008H607.586V295.6Z" fill="#658280"/>
<path d="M629.523 295.6H619.289V280.008H621.847V284.172H626.965V280.008H629.523V295.6Z" fill="#658280"/>
<path d="M651.464 295.6H641.228V280.008H643.787V284.172H648.904V280.008H651.464V295.6Z" fill="#658280"/>
<path d="M663.167 295.6H673.402V280.008H663.167V295.6Z" fill="#658280"/>
<path d="M607.586 322.75H605.027V319.423H599.91V322.75H597.35V307.157H599.91V308.997H605.027V307.157H607.586V322.75Z" fill="#658280"/>
<path d="M619.289 322.75H629.523V307.157H619.289V322.75Z" fill="#658280"/>
<path d="M651.464 322.75H648.904V319.423H643.787V322.75H641.228V307.157H643.787V308.997H648.904V307.157H651.464V322.75Z" fill="#658280"/>
<path d="M673.402 322.75H670.843V319.423H665.726V322.75H663.167V307.157H665.726V308.997H670.843V307.157H673.402V322.75Z" fill="#658280"/>
<path d="M607.586 349.897H605.027V344.246H599.91V349.897H597.35V334.307H607.586V349.897Z" fill="#658280"/>
<path d="M629.523 349.897H626.965V344.246H621.847V349.897H619.289V334.307H629.523V349.897Z" fill="#658280"/>
<path d="M641.228 349.897H651.464V334.307H641.228V349.897Z" fill="#658280"/>
<path d="M673.402 349.897H670.843V344.246H665.726V349.897H663.167V334.307H673.402V349.897Z" fill="#658280"/>
<path d="M607.585 377.047H597.351V361.457H607.585V377.047Z" fill="#658280"/>
<path d="M629.523 377.047H619.289V361.457H629.523V377.047Z" fill="#658280"/>
<path d="M641.228 377.049H651.464V361.457H641.228V377.049Z" fill="#658280"/>
<path d="M663.167 377.049H673.402V361.457H663.167V377.049Z" fill="#658280"/>
<path d="M597.35 404.197H607.586V388.605H597.35V404.197Z" fill="#658280"/>
<path d="M629.523 404.197H619.289V388.605H629.523V404.197Z" fill="#658280"/>
<path d="M641.228 404.197H651.464V388.605H641.228V404.197Z" fill="#658280"/>
<path d="M673.402 404.197H663.167V388.605H673.402V404.197Z" fill="#658280"/>
<path d="M341.163 221.696V223.79H339.077V229.76H375.796V413.787H315.54V239.362V229.76V223.79H313.354V221.696H341.163Z" fill="#658280"/>
<path d="M495.427 413.787H443.816V305.285H495.427V413.787Z" fill="#658280"/>
<path d="M218.862 413.787H260.817V280.412H218.862V413.787Z" fill="#658280"/>
<path d="M298.226 413.787H252.506V308.203H298.226V413.787Z" fill="#658280"/>
<path d="M233.956 291.021H252.506V275.06H233.956V291.021Z" fill="#658280"/>
<path d="M304.381 310.367H255.644V306.464H304.381V310.367Z" fill="#658280"/>
<path d="M344.575 413.787H293.316V353.489H344.575V413.787Z" fill="#658280"/>
<path d="M169.344 413.787H127.648V304.443H169.344V413.787Z" fill="#658280"/>
<path d="M146.318 413.787H91.4645V358.933H146.318V413.787Z" fill="#658280"/>
<path d="M65.3745 413.787H31.0638V349.967H65.3745V413.787Z" fill="#658280"/>
<path d="M139.809 413.787H58.7131V393.797H139.809V413.787Z" fill="#658280"/>
<path d="M41.5633 413.787H0V387.336H41.5633V413.787Z" fill="#658280"/>
<path d="M233.956 413.787H169.344V373.432H233.956V413.787Z" fill="#658280"/>
<path d="M459.524 413.787H358.878V396.401H459.524V413.787Z" fill="#658280"/>
<path d="M637.965 413.787H537.32V396.401H637.965V413.787Z" fill="#658280"/>
<path d="M455.605 345.363H417.35L401.173 405.095H455.605V345.363Z" fill="#658280"/>
<path d="M474.351 324.714H473.285V258.452H474.351V324.714Z" fill="#658280"/>
<path d="M480.035 319.973H478.615V280.875H480.035V319.973Z" fill="#658280"/>
<path d="M490.354 307.157H471V287.803H490.354V307.157Z" fill="#658280"/>
<path d="M493.365 288.033H467.732V286.3H493.365V288.033Z" fill="#658280"/>
<path d="M548.577 413.787H486.04V357.823H548.577V413.787Z" fill="#658280"/>
<path d="M576.795 296.215H536.619V404.197H576.795V296.215Z" fill="#658280"/>
<path d="M757.722 413.787H693.532V316.516H757.722V413.787Z" fill="#658280"/>
<path d="M746.589 413.787H673.402V377.945H746.589V413.787Z" fill="#658280"/>
<path d="M754.168 413.787H801.76V400.958H754.168V413.787Z" fill="#658280"/>
<path d="M904.846 377.945H827.468V413.787H904.846V377.945Z" fill="#658280"/>
<path d="M858.297 413.787H954.581V284.105H858.297V413.787Z" fill="#658280"/>
<path d="M855.809 284.105H960.198V279.13H855.809V284.105Z" fill="#658280"/>
<path d="M908.004 291.922H950.318V265.63H908.004V291.922Z" fill="#658280"/>
<path d="M887.076 281.619H894.181V265.63H887.076V281.619Z" fill="#658280"/>
<path d="M872.152 281.619H879.969V265.63H872.152V281.619Z" fill="#658280"/>
<path d="M1020.77 413.787H1096.99V224.393H1020.77V413.787Z" fill="#658280"/>
<path d="M1018.6 226.49H1099.15V221.135H1018.6V226.49Z" fill="#658280"/>
<path d="M1023.33 239.729H1094.42V214.283H1023.33V239.729Z" fill="#658280"/>
<path d="M1060.83 231.673H1088.98V203.872H1060.83V231.673Z" fill="#658280"/>
<path d="M1072.69 211.709H1088.98V197.074H1077.3L1072.69 211.709Z" fill="#658280"/>
<path d="M1082.41 217.524H1080.84V184.927H1082.41V217.524Z" fill="#658280"/>
<path d="M1080.21 183.236C1080.21 184.17 1080.84 184.927 1081.63 184.927C1082.41 184.927 1083.04 184.17 1083.04 183.236C1083.04 182.304 1082.41 181.548 1081.63 181.548C1080.84 181.548 1080.21 182.304 1080.21 183.236Z" fill="#658280"/>
<path d="M1120.66 413.787H1086.55V335.6H1120.66V413.787Z" fill="#658280"/>
<path d="M989.395 297.481H1028.29V413.787H989.395V297.481Z" fill="#658280"/>
<path d="M1008.86 413.787H954.067V351.581L1000.31 372.071L1008.86 413.787Z" fill="#658280"/>
<path d="M1193.14 413.787H1109.46V380.003H1193.14V413.787Z" fill="#658280"/>
<path d="M1162.23 413.787H1210.84V278.923H1162.23V413.787Z" fill="#658280"/>
<path d="M1280 413.787H1199.47V388.605H1280V413.787Z" fill="#658280"/>
<path d="M1213.06 280.875H1159.74V276.454H1213.06V280.875Z" fill="#658280"/>
<path d="M1203.26 257.425H1204.32V284.603H1203.26V257.425Z" fill="#658280"/>
<path d="M1197.22 282.667H1196.15V260.865H1197.22V282.667Z" fill="#658280"/>
<path d="M1228.84 329.731H1207.17V391.519H1238.08L1228.84 329.731Z" fill="#658280"/>
<path d="M223.191 290.342H226.367V287.167H223.191V290.342Z" fill="#B5C3C2"/>
<path d="M229.572 290.342H232.747V287.167H229.572V290.342Z" fill="#B5C3C2"/>
<path d="M223.191 297.802H226.367V294.628H223.191V297.802Z" fill="#B5C3C2"/>
<path d="M229.572 297.802H232.747V294.628H229.572V297.802Z" fill="#B5C3C2"/>
<path d="M223.191 305.015H226.367V301.84H223.191V305.015Z" fill="#B5C3C2"/>
<path d="M236.664 290.342H239.84V287.167H236.664V290.342Z" fill="#B5C3C2"/>
<path d="M455.605 203.778H457.772V191.789H455.605V203.778Z" fill="#CAD4D3"/>
<path d="M463.069 203.778H465.236V191.789H463.069V203.778Z" fill="#CAD4D3"/>
<path d="M470.534 203.778H472.7V191.789H470.534V203.778Z" fill="#CAD4D3"/>
<path d="M477.998 203.778H480.164V191.789H477.998V203.778Z" fill="#CAD4D3"/>
<path d="M485.463 203.778H487.628V191.789H485.463V203.778Z" fill="#CAD4D3"/>
<path d="M492.927 203.778H495.093V191.789H492.927V203.778Z" fill="#CAD4D3"/>
<path d="M500.391 203.778H502.558V191.789H500.391V203.778Z" fill="#CAD4D3"/>
<path d="M507.855 203.778H510.022V191.789H507.855V203.778Z" fill="#CAD4D3"/>
<path d="M515.32 203.778H517.485V191.789H515.32V203.778Z" fill="#CAD4D3"/>
<path d="M522.784 203.778H524.95V191.789H522.784V203.778Z" fill="#CAD4D3"/>
<path d="M531.332 203.778H532.415V191.789H531.332V203.778Z" fill="#CAD4D3"/>
<path d="M530.249 203.778H531.332V191.789H530.249V203.778Z" fill="#CAD4D3"/>
<path d="M455.605 220.469H457.772V208.48H455.605V220.469Z" fill="#CAD4D3"/>
<path d="M463.069 220.469H465.236V208.48H463.069V220.469Z" fill="#CAD4D3"/>
<path d="M470.534 220.469H472.7V208.48H470.534V220.469Z" fill="#CAD4D3"/>
<path d="M477.998 220.469H480.164V208.48H477.998V220.469Z" fill="#CAD4D3"/>
<path d="M485.463 220.469H487.628V208.48H485.463V220.469Z" fill="#CAD4D3"/>
<path d="M492.927 220.469H495.093V208.48H492.927V220.469Z" fill="#CAD4D3"/>
<path d="M500.391 220.469H502.558V208.48H500.391V220.469Z" fill="#CAD4D3"/>
<path d="M507.855 220.469H510.022V208.48H507.855V220.469Z" fill="#CAD4D3"/>
<path d="M515.32 220.469H517.485V208.48H515.32V220.469Z" fill="#CAD4D3"/>
<path d="M522.784 220.469H524.95V208.48H522.784V220.469Z" fill="#CAD4D3"/>
<path d="M530.249 220.469H532.415V208.48H530.249V220.469Z" fill="#CAD4D3"/>
<path d="M455.605 237.159H457.772V225.17H455.605V237.159Z" fill="#CAD4D3"/>
<path d="M463.069 237.159H465.236V225.17H463.069V237.159Z" fill="#CAD4D3"/>
<path d="M470.534 237.159H472.7V225.17H470.534V237.159Z" fill="#CAD4D3"/>
<path d="M477.998 237.159H480.164V225.17H477.998V237.159Z" fill="#CAD4D3"/>
<path d="M485.463 237.159H487.628V225.17H485.463V237.159Z" fill="#CAD4D3"/>
<path d="M492.927 237.159H495.093V225.17H492.927V237.159Z" fill="#CAD4D3"/>
<path d="M500.391 237.159H502.558V225.17H500.391V237.159Z" fill="#CAD4D3"/>
<path d="M507.855 237.159H510.022V225.17H507.855V237.159Z" fill="#CAD4D3"/>
<path d="M515.32 237.159H517.485V225.17H515.32V237.159Z" fill="#CAD4D3"/>
<path d="M522.784 237.159H524.95V225.17H522.784V237.159Z" fill="#CAD4D3"/>
<path d="M530.249 237.159H532.415V225.17H530.249V237.159Z" fill="#CAD4D3"/>
<path d="M477.998 253.85H480.164V241.861H477.998V253.85Z" fill="#CAD4D3"/>
<path d="M485.463 253.85H487.628V241.861H485.463V253.85Z" fill="#CAD4D3"/>
<path d="M492.927 253.85H495.093V241.861H492.927V253.85Z" fill="#CAD4D3"/>
<path d="M500.391 253.85H502.558V241.861H500.391V253.85Z" fill="#CAD4D3"/>
<path d="M507.855 253.85H510.022V241.861H507.855V253.85Z" fill="#CAD4D3"/>
<path d="M515.32 253.85H517.485V241.861H515.32V253.85Z" fill="#CAD4D3"/>
<path d="M522.784 253.85H524.95V241.861H522.784V253.85Z" fill="#CAD4D3"/>
<path d="M530.249 253.85H532.415V241.861H530.249V253.85Z" fill="#CAD4D3"/>
<path d="M485.463 271.466H487.628V259.477H485.463V271.466Z" fill="#CAD4D3"/>
<path d="M492.927 271.466H495.093V259.477H492.927V271.466Z" fill="#CAD4D3"/>
<path d="M500.391 271.466H502.558V259.477H500.391V271.466Z" fill="#CAD4D3"/>
<path d="M507.855 271.466H510.022V259.477H507.855V271.466Z" fill="#CAD4D3"/>
<path d="M515.32 271.466H517.485V259.477H515.32V271.466Z" fill="#CAD4D3"/>
<path d="M522.784 271.466H524.95V259.477H522.784V271.466Z" fill="#CAD4D3"/>
<path d="M530.249 271.466H532.415V259.477H530.249V271.466Z" fill="#CAD4D3"/>
<path d="M599.91 225.708H605.027V221.544H599.91V225.708Z" fill="#98ABAA"/>
<path d="M599.91 234.523H605.027V225.708H599.91V234.523Z" fill="#98ABAA"/>
<path d="M599.91 252.858H605.027V246.37H599.91V252.858Z" fill="#98ABAA"/>
<path d="M599.91 259.347H605.027V252.858H599.91V259.347Z" fill="#98ABAA"/>
<path d="M599.91 280.009H605.027V271.195H599.91V280.009Z" fill="#98ABAA"/>
<path d="M599.91 284.172H605.027V280.008H599.91V284.172Z" fill="#98ABAA"/>
<path d="M599.91 307.157H605.027V296.017H599.91V307.157Z" fill="#98ABAA"/>
<path d="M599.91 308.997H605.027V307.157H599.91V308.997Z" fill="#98ABAA"/>
<path d="M599.91 332.4H605.027V322.75H599.91V332.4Z" fill="#98ABAA"/>
<path d="M599.91 322.75H605.027V319.423H599.91V322.75Z" fill="#98ABAA"/>
<path d="M599.91 357.225H605.027V349.898H599.91V357.225Z" fill="#98ABAA"/>
<path d="M599.91 349.897H605.027V344.246H599.91V349.897Z" fill="#98ABAA"/>
<path d="M621.848 225.708H626.965V221.544H621.848V225.708Z" fill="#98ABAA"/>
<path d="M621.848 234.523H626.965V225.708H621.848V234.523Z" fill="#98ABAA"/>
<path d="M621.848 252.858H626.965V246.37H621.848V252.858Z" fill="#98ABAA"/>
<path d="M621.848 259.347H626.965V252.858H621.848V259.347Z" fill="#98ABAA"/>
<path d="M621.848 280.009H626.965V271.195H621.848V280.009Z" fill="#98ABAA"/>
<path d="M621.848 284.172H626.965V280.008H621.848V284.172Z" fill="#98ABAA"/>
<path d="M621.848 307.157H626.965V296.017H621.848V307.157Z" fill="#98ABAA"/>
<path d="M621.848 308.997H626.965V307.157H621.848V308.997Z" fill="#98ABAA"/>
<path d="M621.848 332.4H626.965V322.75H621.848V332.4Z" fill="#98ABAA"/>
<path d="M621.848 322.75H626.965V319.423H621.848V322.75Z" fill="#98ABAA"/>
<path d="M621.848 357.225H626.965V349.898H621.848V357.225Z" fill="#98ABAA"/>
<path d="M621.848 349.897H626.965V344.246H621.848V349.897Z" fill="#98ABAA"/>
<path d="M643.787 225.708H648.904V221.544H643.787V225.708Z" fill="#98ABAA"/>
<path d="M643.787 234.523H648.904V225.708H643.787V234.523Z" fill="#98ABAA"/>
<path d="M643.787 252.858H648.904V246.37H643.787V252.858Z" fill="#98ABAA"/>
<path d="M643.787 259.347H648.904V252.858H643.787V259.347Z" fill="#98ABAA"/>
<path d="M643.787 280.009H648.904V271.195H643.787V280.009Z" fill="#98ABAA"/>
<path d="M643.787 284.172H648.904V280.008H643.787V284.172Z" fill="#98ABAA"/>
<path d="M643.787 307.157H648.904V296.017H643.787V307.157Z" fill="#98ABAA"/>
<path d="M643.787 308.997H648.904V307.157H643.787V308.997Z" fill="#98ABAA"/>
<path d="M643.787 332.4H648.904V322.75H643.787V332.4Z" fill="#98ABAA"/>
<path d="M643.787 322.75H648.904V319.423H643.787V322.75Z" fill="#98ABAA"/>
<path d="M643.787 357.225H648.904V349.898H643.787V357.225Z" fill="#98ABAA"/>
<path d="M643.787 349.897H648.904V344.246H643.787V349.897Z" fill="#98ABAA"/>
<path d="M665.726 225.708H670.843V221.544H665.726V225.708Z" fill="#98ABAA"/>
<path d="M665.726 234.523H670.843V225.708H665.726V234.523Z" fill="#98ABAA"/>
<path d="M665.726 252.858H670.843V246.37H665.726V252.858Z" fill="#98ABAA"/>
<path d="M665.726 259.347H670.843V252.858H665.726V259.347Z" fill="#98ABAA"/>
<path d="M665.726 280.009H670.843V271.195H665.726V280.009Z" fill="#98ABAA"/>
<path d="M665.726 284.172H670.843V280.008H665.726V284.172Z" fill="#98ABAA"/>
<path d="M665.726 307.157H670.843V296.017H665.726V307.157Z" fill="#98ABAA"/>
<path d="M665.726 308.997H670.843V307.157H665.726V308.997Z" fill="#98ABAA"/>
<path d="M665.726 332.4H670.843V322.75H665.726V332.4Z" fill="#98ABAA"/>
<path d="M665.726 322.75H670.843V319.423H665.726V322.75Z" fill="#98ABAA"/>
<path d="M665.726 357.225H670.843V349.898H665.726V357.225Z" fill="#98ABAA"/>
<path d="M665.726 349.897H670.843V344.246H665.726V349.897Z" fill="#98ABAA"/>
<path d="M517.485 51.916H521.742V40.558H517.485V51.916Z" fill="#DAE1E1"/>
<path d="M527.992 51.916H532.249V40.558H527.992V51.916Z" fill="#DAE1E1"/>
<path d="M538.496 51.916H542.753V40.558H538.496V51.916Z" fill="#DAE1E1"/>
<path d="M549.002 51.916H553.259V40.558H549.002V51.916Z" fill="#DAE1E1"/>
<path d="M517.485 70.832H521.742V59.474H517.485V70.832Z" fill="#DAE1E1"/>
<path d="M527.992 70.832H532.249V59.474H527.992V70.832Z" fill="#DAE1E1"/>
<path d="M538.496 70.832H542.753V59.474H538.496V70.832Z" fill="#DAE1E1"/>
<path d="M549.002 70.832H553.259V59.474H549.002V70.832Z" fill="#DAE1E1"/>
<path d="M517.485 89.7488H521.742V78.3902H517.485V89.7488Z" fill="#DAE1E1"/>
<path d="M527.992 89.7488H532.249V78.3902H527.992V89.7488Z" fill="#DAE1E1"/>
<path d="M560.918 51.916H565.175V40.558H560.918V51.916Z" fill="#DAE1E1"/>
<path d="M233.956 166.037H236.664V158.803H233.956V166.037Z" fill="#D3DBDA"/>
<path d="M233.956 158.803H236.664V155.626H233.956V158.803Z" fill="#D3DBDA"/>
<path d="M243.511 166.037H246.218V158.803H243.511V166.037Z" fill="#D3DBDA"/>
<path d="M243.511 158.803H246.218V155.626H243.511V158.803Z" fill="#D3DBDA"/>
<path d="M254.686 166.037H257.393V158.803H254.686V166.037Z" fill="#D3DBDA"/>
<path d="M254.686 158.803H257.393V155.626H254.686V158.803Z" fill="#D3DBDA"/>
<path d="M264.239 166.037H266.948V158.803H264.239V166.037Z" fill="#D3DBDA"/>
<path d="M264.239 158.803H266.948V155.626H264.239V158.803Z" fill="#D3DBDA"/>
<path d="M212.731 166.037H215.438V158.803H212.731V166.037Z" fill="#D3DBDA"/>
<path d="M212.731 158.803H215.438V155.626H212.731V158.803Z" fill="#D3DBDA"/>
<path d="M222.285 166.037H224.992V158.803H222.285V166.037Z" fill="#D3DBDA"/>
<path d="M222.285 158.803H224.992V155.626H222.285V158.803Z" fill="#D3DBDA"/>
<path d="M233.956 184.117H236.664V173.706H233.956V184.117Z" fill="#D3DBDA"/>
<path d="M243.511 184.117H246.218V173.706H243.511V184.117Z" fill="#D3DBDA"/>
<path d="M254.686 184.117H257.393V173.706H254.686V184.117Z" fill="#D3DBDA"/>
<path d="M264.239 184.117H266.948V173.706H264.239V184.117Z" fill="#D3DBDA"/>
<path d="M212.731 184.117H215.438V173.706H212.731V184.117Z" fill="#D3DBDA"/>
<path d="M222.285 184.117H224.992V173.706H222.285V184.117Z" fill="#D3DBDA"/>
<path d="M233.956 202.196H236.664V191.785H233.956V202.196Z" fill="#D3DBDA"/>
<path d="M243.511 202.196H246.218V191.785H243.511V202.196Z" fill="#D3DBDA"/>
<path d="M254.686 202.196H257.393V191.785H254.686V202.196Z" fill="#D3DBDA"/>
<path d="M264.239 202.196H266.948V191.785H264.239V202.196Z" fill="#D3DBDA"/>
<path d="M212.731 202.196H215.438V191.785H212.731V202.196Z" fill="#D3DBDA"/>
<path d="M222.285 202.196H224.992V191.785H222.285V202.196Z" fill="#D3DBDA"/>
<path d="M739.233 251.567H743.428V235.42H739.233V251.567Z" fill="#CAD4D3"/>
<path d="M752.071 251.567H756.265V235.42H752.071V251.567Z" fill="#CAD4D3"/>
<path d="M764.15 251.567H768.346V235.42H764.15V251.567Z" fill="#CAD4D3"/>
<path d="M1028.29 247.856H1031.48V239.729H1028.29V247.856Z" fill="#BAC7C6"/>
<path d="M1028.29 239.729H1031.48V238.775H1028.29V239.729Z" fill="#BAC7C6"/>
<path d="M1038.28 247.856H1041.46V239.729H1038.28V247.856Z" fill="#BAC7C6"/>
<path d="M1038.28 239.729H1041.46V238.775H1038.28V239.729Z" fill="#BAC7C6"/>
<path d="M1047.71 247.856H1050.89V239.729H1047.71V247.856Z" fill="#98ABAA"/>
<path d="M1047.71 239.729H1050.89V238.775H1047.71V239.729Z" fill="#98ABAA"/>
<path d="M1057.69 247.856H1060.87V239.729H1057.69V247.856Z" fill="#98ABAA"/>
<path d="M1057.69 239.729H1060.87V238.775H1057.69V239.729Z" fill="#98ABAA"/>
<path d="M1028.29 264.14H1031.48V255.059H1028.29V264.14Z" fill="#BAC7C6"/>
<path d="M1038.28 264.14H1041.46V255.059H1038.28V264.14Z" fill="#BAC7C6"/>
<path d="M1047.71 264.14H1050.89V255.059H1047.71V264.14Z" fill="#98ABAA"/>
<path d="M1057.69 264.14H1060.87V255.059H1057.69V264.14Z" fill="#98ABAA"/>
<path d="M1028.29 281.471H1031.48V272.391H1028.29V281.471Z" fill="#BAC7C6"/>
<path d="M1038.28 281.471H1041.46V272.391H1038.28V281.471Z" fill="#BAC7C6"/>
<path d="M1047.71 281.471H1050.89V272.391H1047.71V281.471Z" fill="#98ABAA"/>
<path d="M1057.69 281.471H1060.87V272.391H1057.69V281.471Z" fill="#98ABAA"/>
<path d="M1068.6 247.856H1071.78V239.729H1068.6V247.856Z" fill="#98ABAA"/>
<path d="M1068.6 239.729H1071.78V238.775H1068.6V239.729Z" fill="#98ABAA"/>
<path d="M1068.6 264.14H1071.78V255.059H1068.6V264.14Z" fill="#98ABAA"/>
<path d="M1078.58 247.856H1081.77V239.729H1078.58V247.856Z" fill="#98ABAA"/>
<path d="M1078.58 239.729H1081.77V238.775H1078.58V239.729Z" fill="#98ABAA"/>
<path d="M779.604 225.985H783.027V211.828H779.604V225.985Z" fill="#98ABAA"/>
<path d="M796.626 225.985H800.047V211.828H796.626V225.985Z" fill="#98ABAA"/>
<path d="M813.648 225.985H817.069V211.828H813.648V225.985Z" fill="#98ABAA"/>
<path d="M832.38 225.985H834.091V211.828H832.38V225.985Z" fill="#98ABAA"/>
<path d="M830.669 225.985H832.38V211.828H830.669V225.985Z" fill="#98ABAA"/>
<path d="M779.604 255.123H783.027V240.966H779.604V255.123Z" fill="#98ABAA"/>
<path d="M796.626 255.123H800.047V240.966H796.626V255.123Z" fill="#98ABAA"/>
<path d="M813.648 255.123H817.069V240.966H813.648V255.123Z" fill="#98ABAA"/>
<path d="M832.38 255.123H834.091V240.966H832.38V255.123Z" fill="#98ABAA"/>
<path d="M830.669 255.123H832.38V240.966H830.669V255.123Z" fill="#98ABAA"/>
<path d="M779.604 284.986H783.027V270.828H779.604V284.986Z" fill="#98ABAA"/>
<path d="M796.626 284.986H800.047V270.828H796.626V284.986Z" fill="#98ABAA"/>
<path d="M813.648 284.986H817.069V270.828H813.648V284.986Z" fill="#98ABAA"/>
<path d="M832.38 284.986H834.091V270.828H832.38V284.986Z" fill="#98ABAA"/>
<path d="M830.669 284.986H832.38V270.828H830.669V284.986Z" fill="#98ABAA"/>
<path d="M779.604 314.848H783.027V314.299H779.604V314.848Z" fill="#98ABAA"/>
<path d="M779.604 314.298H783.027V300.69H779.604V314.298Z" fill="#98ABAA"/>
<path d="M796.626 314.848H800.047V314.299H796.626V314.848Z" fill="#98ABAA"/>
<path d="M796.626 314.298H800.047V300.69H796.626V314.298Z" fill="#98ABAA"/>
<path d="M817.069 314.848H813.648V314.299H817.069V300.691V314.848Z" fill="#98ABAA"/>
<path d="M813.648 314.298H817.069V300.69H813.648V314.298Z" fill="#98ABAA"/>
<path d="M834.091 314.848H830.669V314.299H832.38V300.691H834.091V314.848Z" fill="#98ABAA"/>
<path d="M830.669 314.298H832.38V300.69H830.669V314.298Z" fill="#98ABAA"/>
<path d="M779.604 341.974H783.027V327.818H779.604V341.974Z" fill="#98ABAA"/>
<path d="M796.626 341.974H800.047V327.818H796.626V341.974Z" fill="#98ABAA"/>
<path d="M813.648 341.974H817.069V327.818H813.648V341.974Z" fill="#98ABAA"/>
<path d="M779.604 372.229H783.027V372.072H779.604V372.229Z" fill="#98ABAA"/>
<path d="M779.604 372.072H783.027V358.072H779.604V372.072Z" fill="#98ABAA"/>
<path d="M796.626 372.229H800.047V372.072H796.626V372.229Z" fill="#98ABAA"/>
<path d="M796.626 372.072H800.047V358.072H796.626V372.072Z" fill="#98ABAA"/>
<path d="M817.069 372.229H813.648V372.071H817.069V358.072V372.229Z" fill="#98ABAA"/>
<path d="M813.648 372.072H817.069V358.072H813.648V372.072Z" fill="#98ABAA"/>
<path d="M832.38 341.974H834.091V327.818H832.38V341.974Z" fill="#98ABAA"/>
<path d="M830.669 341.974H832.38V327.818H830.669V341.974Z" fill="#98ABAA"/>
<path d="M1166.53 294.801H1170.03V286.675H1166.53V294.801Z" fill="#98ABAA"/>
<path d="M1166.53 307.92H1170.03V299.794H1166.53V307.92Z" fill="#98ABAA"/>
<path d="M1175.5 294.801H1179V286.675H1175.5V294.801Z" fill="#98ABAA"/>
</svg>
