<svg width="133" height="39" viewBox="0 0 133 39" fill="none" xmlns="http://www.w3.org/2000/svg">
<path d="M128.074 39H4.92593C2.21667 39 0 36.8063 0 34.125V4.875C0 2.19375 2.21667 0 4.92593 0H128.074C130.783 0 133 2.19375 133 4.875V34.125C133 36.8063 130.783 39 128.074 39Z" fill="#100F0D"/>
<path d="M128.074 0H4.92593C2.21667 0 0 2.19375 0 4.875V34.125C0 36.8063 2.21667 39 4.92593 39H128.074C130.783 39 133 36.8063 133 34.125V4.875C133 2.19375 130.783 0 128.074 0ZM128.074 0.780003C130.356 0.780003 132.212 2.6169 132.212 4.875V34.125C132.212 36.3831 130.356 38.2204 128.074 38.2204H4.92593C2.64424 38.2204 0.788148 36.3831 0.788148 34.125V4.875C0.788148 2.6169 2.64424 0.780003 4.92593 0.780003H128.074Z" fill="#A3A3A1"/>
<path d="M105.352 29.2499H107.19V17.0613H105.352V29.2499ZM121.91 21.4519L119.802 26.7363H119.739L117.552 21.4519H115.572L118.852 28.8378L116.982 32.9462H118.9L123.954 21.4519H121.91ZM111.484 27.8655C110.881 27.8655 110.042 27.5677 110.042 26.8304C110.042 25.8896 111.088 25.529 111.991 25.529C112.8 25.529 113.179 25.7014 113.671 25.9369C113.528 27.0658 112.545 27.8655 111.484 27.8655ZM111.706 21.1852C110.375 21.1852 108.997 21.7657 108.426 23.0515L110.058 23.7256C110.407 23.0515 111.056 22.8317 111.738 22.8317C112.688 22.8317 113.655 23.3965 113.671 24.4001V24.5254C113.338 24.3372 112.625 24.055 111.753 24.055C109.995 24.055 108.204 25.0113 108.204 26.7991C108.204 28.43 109.646 29.4807 111.262 29.4807C112.498 29.4807 113.179 28.9319 113.607 28.2891H113.671V29.2298H115.445V24.5566C115.445 22.393 113.813 21.1852 111.706 21.1852ZM100.345 22.9357H97.7302V18.7577H100.345C101.719 18.7577 102.499 19.8838 102.499 20.8466C102.499 21.7912 101.719 22.9357 100.345 22.9357ZM100.298 17.0613H95.8928V29.2499H97.7302V24.6321H100.298C102.335 24.6321 104.338 23.1722 104.338 20.8466C104.338 18.5211 102.335 17.0613 100.298 17.0613ZM76.2778 27.8678C75.0078 27.8678 73.9445 26.8155 73.9445 25.3701C73.9445 23.9096 75.0078 22.8413 76.2778 22.8413C77.5316 22.8413 78.5156 23.9096 78.5156 25.3701C78.5156 26.8155 77.5316 27.8678 76.2778 27.8678ZM78.3886 22.1344H78.3251C77.9126 21.6476 77.1186 21.2078 76.1189 21.2078C74.0238 21.2078 72.1035 23.0297 72.1035 25.3701C72.1035 27.6949 74.0238 29.5013 76.1189 29.5013C77.1186 29.5013 77.9126 29.0614 78.3251 28.5591H78.3886V29.1559C78.3886 30.7426 77.5316 31.5907 76.1508 31.5907C75.0239 31.5907 74.3255 30.7894 74.0395 30.1141L72.4367 30.7738C72.897 31.8733 74.1192 33.2242 76.1508 33.2242C78.3093 33.2242 80.1346 31.9674 80.1346 28.9045V21.4591H78.3886V22.1344ZM81.4042 29.2499H83.2453V17.0609H81.4042V29.2499ZM85.9595 25.2289C85.9118 23.6265 87.2133 22.81 88.1497 22.81C88.8803 22.81 89.499 23.171 89.7049 23.6898L85.9595 25.2289ZM91.6733 23.8467C91.3245 22.9197 90.2605 21.2078 88.0861 21.2078C85.9276 21.2078 84.1342 22.8885 84.1342 25.3545C84.1342 27.6793 85.9118 29.5013 88.2924 29.5013C90.2132 29.5013 91.3245 28.3389 91.7846 27.6636L90.3561 26.721C89.8802 27.4123 89.229 27.8678 88.2924 27.8678C87.3561 27.8678 86.6896 27.4436 86.2609 26.6113L91.8634 24.3178L91.6733 23.8467ZM47.0363 22.4801V24.2393H51.2898C51.1629 25.2289 50.8296 25.9513 50.3216 26.454C49.7028 27.0668 48.7346 27.7421 47.0363 27.7421C44.4174 27.7421 42.3701 25.6531 42.3701 23.0613C42.3701 20.4696 44.4174 18.3803 47.0363 18.3803C48.449 18.3803 49.4804 18.9302 50.2423 19.637L51.4961 18.3962C50.4328 17.3907 49.0201 16.6211 47.0363 16.6211C43.4491 16.6211 40.4336 19.5114 40.4336 23.0613C40.4336 26.6113 43.4491 29.5013 47.0363 29.5013C48.9728 29.5013 50.4328 28.8733 51.5755 27.6949C52.75 26.5325 53.1152 24.899 53.1152 23.5797C53.1152 23.171 53.0836 22.7944 53.0197 22.4801H47.0363ZM57.9511 27.8678C56.6811 27.8678 55.5858 26.8311 55.5858 25.3545C55.5858 23.8623 56.6811 22.8413 57.9511 22.8413C59.2206 22.8413 60.3158 23.8623 60.3158 25.3545C60.3158 26.8311 59.2206 27.8678 57.9511 27.8678ZM57.9511 21.2078C55.6335 21.2078 53.7447 22.9513 53.7447 25.3545C53.7447 27.7421 55.6335 29.5013 57.9511 29.5013C60.2681 29.5013 62.1569 27.7421 62.1569 25.3545C62.1569 22.9513 60.2681 21.2078 57.9511 21.2078ZM67.1263 27.8678C65.8568 27.8678 64.7615 26.8311 64.7615 25.3545C64.7615 23.8623 65.8568 22.8413 67.1263 22.8413C68.3959 22.8413 69.4911 23.8623 69.4911 25.3545C69.4911 26.8311 68.3959 27.8678 67.1263 27.8678ZM67.1263 21.2078C64.8089 21.2078 62.9205 22.9513 62.9205 25.3545C62.9205 27.7421 64.8089 29.5013 67.1263 29.5013C69.4435 29.5013 71.3323 27.7421 71.3323 25.3545C71.3323 22.9513 69.4435 21.2078 67.1263 21.2078Z" fill="white"/>
<path d="M10.2804 7.35853C9.99357 7.65825 9.82471 8.12362 9.82471 8.72734V30.2725C9.82471 30.8758 9.99357 31.3412 10.2804 31.6413L10.3531 31.7118L22.5482 19.6424V19.4999V19.3575L10.3531 7.28804L10.2804 7.35853Z" fill="#72D0F5"/>
<path d="M26.613 23.6669L22.5483 19.6424V19.3575L26.6142 15.3333L26.7061 15.3851L31.5224 18.0934C32.8982 18.8669 32.8982 20.1329 31.5224 20.9064L26.7061 23.6147L26.613 23.6669Z" fill="url(#paint0_linear_124_534)"/>
<path d="M26.7059 23.6148L22.5481 19.5L10.2803 31.6414C10.734 32.1163 11.4825 32.1754 12.3256 31.7009L26.7059 23.6148Z" fill="url(#paint1_linear_124_534)"/>
<path d="M26.7059 15.3852L12.3256 7.29875C11.4825 6.82461 10.734 6.88369 10.2803 7.35861L22.5481 19.5L26.7059 15.3852Z" fill="url(#paint2_linear_124_534)"/>
<path d="M41.4846 11.9564H42.5333C43.2152 11.9564 43.756 11.7629 44.155 11.376C44.5545 10.9894 44.7539 10.447 44.7539 9.75005C44.7539 9.05838 44.5545 8.51794 44.155 8.12794C43.756 7.73911 43.2152 7.54372 42.5333 7.54372H41.4846V11.9564ZM40.7253 12.675V6.82505H42.5333C43.4411 6.82505 44.1677 7.09581 44.713 7.6382C45.258 8.17981 45.53 8.88357 45.53 9.75005C45.53 10.6161 45.258 11.3203 44.713 11.8619C44.1677 12.4043 43.4411 12.675 42.5333 12.675H40.7253Z" fill="white"/>
<path d="M41.4848 11.9564V12.0539H42.5334C43.2335 12.0547 43.8046 11.8532 44.2245 11.4457C44.6462 11.0378 44.8528 10.4646 44.8525 9.75008C44.8532 9.04096 44.6458 8.46922 44.2245 8.05865C43.805 7.64886 43.2335 7.44547 42.5334 7.44625H41.4848H41.3862V12.0539H41.4848V11.9564H41.5833V7.64125H42.5334C43.1973 7.64242 43.7072 7.82943 44.0862 8.19769V8.1973C44.4634 8.56672 44.6547 9.07597 44.6555 9.75008C44.6547 10.4296 44.463 10.9407 44.0862 11.3063C43.7075 11.6727 43.1973 11.8577 42.5334 11.8589H41.4848V11.9564H41.5833H41.4848ZM40.7255 12.6751H40.824V6.92258H42.5334C43.4224 6.92336 44.1175 7.18495 44.6435 7.70716C45.1685 8.23045 45.4309 8.90339 45.4316 9.75008C45.4309 10.5964 45.1685 11.2697 44.6435 11.793C44.1175 12.3152 43.4224 12.5768 42.5334 12.5776H40.7255V12.6751H40.824H40.7255V12.7726H42.5334C43.4605 12.7734 44.2182 12.4934 44.7831 11.9309C45.3474 11.3706 45.6294 10.6356 45.6286 9.75008C45.6294 8.86381 45.3474 8.12953 44.7831 7.56969C44.2182 7.00672 43.4605 6.7268 42.5334 6.72758H40.627V12.7726H40.7255V12.6751Z" fill="white"/>
<path d="M46.5955 12.675V6.82505H47.3551V12.675H46.5955Z" fill="white"/>
<path d="M46.5957 12.6751H46.6943V6.92258H47.2567V12.5776H46.5957V12.6751H46.6943H46.5957V12.7726H47.3553H47.4539V6.72758H46.5957H46.4971V12.7726H46.5957V12.6751Z" fill="white"/>
<path d="M50.3766 12.8055C49.9471 12.8055 49.5281 12.6669 49.1178 12.3892C48.7072 12.1112 48.4389 11.722 48.3127 11.2204L49.0066 10.9427C49.089 11.2642 49.2574 11.5353 49.5134 11.7555C49.7705 11.976 50.0572 12.0865 50.3766 12.0865C50.7065 12.0865 50.9893 12.0008 51.2233 11.8294C51.4569 11.658 51.573 11.4249 51.573 11.1305C51.573 10.8041 51.4569 10.552 51.2233 10.3749C50.9893 10.1978 50.6191 10.0332 50.1126 9.88054C49.5896 9.71752 49.1928 9.50614 48.9239 9.24718C48.654 8.98851 48.5185 8.65799 48.5185 8.25463C48.5185 7.83489 48.6868 7.47044 49.0228 7.16C49.3587 6.84966 49.7962 6.69385 50.335 6.69385C50.8365 6.69385 51.2433 6.81846 51.5569 7.06601C51.8705 7.31395 52.0745 7.58471 52.1677 7.87906L51.4749 8.16435C51.4248 7.98007 51.3029 7.80789 51.1078 7.64984C50.9123 7.49257 50.6602 7.4133 50.3516 7.4133C50.0599 7.4133 49.8109 7.49325 49.605 7.65442C49.3979 7.8151 49.2948 8.01507 49.2948 8.25463C49.2948 8.47245 49.3902 8.65643 49.58 8.80609C49.7705 8.95576 50.0495 9.09099 50.4178 9.21062C50.7095 9.30354 50.9527 9.39304 51.149 9.48021C51.3441 9.56708 51.5427 9.6832 51.7424 9.8276C51.9436 9.97151 52.0945 10.1517 52.1965 10.3669C52.2989 10.5821 52.3496 10.8312 52.3496 11.1141C52.3496 11.3974 52.2908 11.6508 52.1726 11.8739C52.0541 12.0979 51.8967 12.2747 51.7012 12.4052C51.5061 12.5359 51.2964 12.6353 51.0701 12.7035C50.8442 12.7716 50.6129 12.8055 50.3766 12.8055Z" fill="white"/>
<path d="M50.3762 12.8056V12.7081C49.9686 12.7077 49.5703 12.5774 49.1732 12.3089C48.7817 12.0431 48.5297 11.6782 48.4077 11.1972L48.3123 11.2204L48.3492 11.3111L49.0427 11.0334L49.0062 10.9427L48.9107 10.9671C48.9977 11.3065 49.1782 11.5971 49.4483 11.829V11.8294C49.72 12.0629 50.0332 12.1848 50.3762 12.184C50.7229 12.1844 51.0296 12.0926 51.2812 11.9079C51.5384 11.7217 51.6735 11.45 51.6711 11.1305C51.6731 10.7817 51.5414 10.4918 51.2824 10.2976C51.0323 10.1087 50.6532 9.94229 50.141 9.78727H50.1418C49.628 9.62766 49.2455 9.42164 48.9919 9.17711C48.7417 8.936 48.6178 8.63628 48.6166 8.25467C48.6178 7.86164 48.7706 7.528 49.0896 7.23131C49.406 6.93959 49.8143 6.79217 50.3346 6.79139C50.8199 6.79178 51.2016 6.91102 51.4948 7.14219C51.7978 7.38175 51.9874 7.63691 52.0732 7.90805L52.1672 7.8791L52.1295 7.78891L51.4367 8.07449L51.4744 8.16438L51.5699 8.13923C51.5134 7.93019 51.3759 7.74123 51.1697 7.57441H51.1693C50.9542 7.40037 50.6763 7.31545 50.3511 7.31584C50.0413 7.31545 49.7669 7.40232 49.5434 7.57792V7.57753C49.3171 7.75157 49.1943 7.98654 49.1958 8.25467C49.1947 8.50144 49.3098 8.71974 49.518 8.88237L49.5184 8.88267C49.7227 9.04305 50.0113 9.18131 50.3865 9.30318H50.3869V9.30357C50.6763 9.39532 50.9164 9.48404 51.1082 9.56936C51.2963 9.65282 51.4887 9.76553 51.6842 9.90641C51.8728 10.0416 52.0117 10.2077 52.1071 10.4084C52.2018 10.6084 52.2507 10.8426 52.2507 11.1141C52.2507 11.3846 52.1953 11.6207 52.0849 11.829C51.9732 12.0396 51.8269 12.203 51.6454 12.3245H51.6458C51.4583 12.4498 51.2578 12.5451 51.0412 12.6102C50.8241 12.6757 50.6032 12.7081 50.3762 12.7081V12.8056V12.9031C50.6221 12.9031 50.8629 12.8677 51.0985 12.7968C51.3337 12.7259 51.5526 12.622 51.7558 12.4864L51.7562 12.486C51.9652 12.3463 52.1345 12.1562 52.2595 11.9193C52.3857 11.6809 52.4477 11.4108 52.4477 11.1141C52.4477 10.8198 52.3946 10.5559 52.2854 10.3254C52.1768 10.0958 52.0136 9.90154 51.8001 9.74837V9.74876C51.5953 9.60104 51.3914 9.48141 51.1889 9.39152C50.9881 9.30162 50.7414 9.21143 50.4474 9.11774H50.4481C50.0863 9.00074 49.817 8.86862 49.6403 8.72998L49.6399 8.72959L49.6407 8.72998C49.4699 8.59289 49.3944 8.44362 49.3928 8.25467C49.3948 8.04368 49.478 7.8788 49.6654 7.73099V7.7306C49.8535 7.58435 50.0776 7.51123 50.3511 7.51084C50.6432 7.51123 50.8695 7.58435 51.045 7.72563L51.0462 7.72641L51.045 7.72524C51.2289 7.87461 51.3359 8.02954 51.3794 8.18993L51.4086 8.29737L52.2053 7.96899L52.2884 7.93477L52.2615 7.84985C52.1606 7.53258 51.9424 7.24613 51.618 6.98941C51.284 6.72548 50.8518 6.596 50.3346 6.59639C49.7774 6.59561 49.3102 6.7598 48.9549 7.08886C48.6028 7.41295 48.4185 7.8087 48.4196 8.25467C48.4185 8.67938 48.5659 9.04149 48.8545 9.31722C49.1397 9.59071 49.5499 9.80745 50.0829 9.97349H50.0833H50.0837C50.5835 10.1243 50.9453 10.2873 51.1627 10.4522C51.3713 10.6126 51.4726 10.8262 51.4741 11.1305C51.4726 11.3994 51.3744 11.5944 51.1639 11.7509C50.9481 11.9091 50.6891 11.9886 50.3762 11.989C50.0798 11.9882 49.82 11.8892 49.5776 11.682C49.3359 11.4733 49.1797 11.2224 49.1015 10.9188L49.0735 10.8106L48.2754 11.1301L48.196 11.1617L48.2168 11.244C48.3469 11.7654 48.6317 12.1794 49.0619 12.4697C49.4845 12.7564 49.9251 12.9031 50.3762 12.9031V12.8056Z" fill="white"/>
<path d="M54.1983 9.58625H55.4702C55.7896 9.58625 56.0456 9.48036 56.238 9.2683C56.4304 9.05536 56.5266 8.82185 56.5266 8.56562C56.5266 8.30968 56.4304 8.075 56.238 7.86294C56.0456 7.64999 55.7896 7.54372 55.4702 7.54372H54.1983V9.58625ZM54.1983 12.675H53.4395V6.82505H55.4541C55.9543 6.82505 56.388 6.98953 56.7536 7.31898C57.1204 7.64844 57.3028 8.06437 57.3028 8.56562C57.3028 9.06638 57.1204 9.48153 56.7536 9.81099C56.388 10.1408 55.9543 10.3057 55.4541 10.3057H54.1983V12.675Z" fill="white"/>
<path d="M54.1987 9.58628V9.68378H55.4706C55.8116 9.68495 56.1013 9.56688 56.3118 9.33346C56.5173 9.10678 56.6262 8.84626 56.6255 8.56565C56.6262 8.28495 56.5177 8.02404 56.3118 7.79784C56.1017 7.56355 55.8116 7.44509 55.4706 7.44626H54.1987H54.1002V9.68378H54.1987V9.58628H54.2972V7.64126H55.4706C55.7684 7.64282 55.9901 7.73651 56.1648 7.928L56.1663 7.92956L56.1648 7.928C56.3438 8.12651 56.4277 8.33409 56.4285 8.56565C56.4277 8.79721 56.3442 9.00401 56.1648 9.2032C55.9905 9.3944 55.7684 9.48771 55.4706 9.48878H54.1987V9.58628H54.2972H54.1987ZM54.1987 12.6751V12.5776H53.5383V6.92258H55.4544C55.9327 6.92336 56.3383 7.07761 56.6878 7.39146C57.035 7.70482 57.2035 8.08761 57.2046 8.56565C57.2035 9.04282 57.035 9.42521 56.6878 9.73906H56.6874C56.3383 10.0532 55.9327 10.2075 55.4544 10.2082H54.1987H54.1002V12.6751H54.1987V12.5776V12.6751H54.2972V10.4032H55.4544C55.9763 10.404 56.4384 10.2284 56.8202 9.88298C57.2062 9.53792 57.4032 9.09001 57.4016 8.56565C57.4032 8.04081 57.2062 7.59251 56.8202 7.24706C56.4384 6.90201 55.9763 6.7268 55.4544 6.72758H53.3413V12.7726H54.1987H54.2972V12.6751H54.1987Z" fill="white"/>
<path d="M59.3207 11.4291C59.7583 11.8675 60.2936 12.0865 60.9267 12.0865C61.5597 12.0865 62.0954 11.8675 62.5322 11.4291C62.9702 10.9908 63.1892 10.4304 63.1892 9.74989C63.1892 9.06934 62.9702 8.50901 62.5322 8.07065C62.0954 7.63229 61.5597 7.4133 60.9267 7.4133C60.2936 7.4133 59.7583 7.63229 59.3207 8.07065C58.8839 8.50901 58.6646 9.06934 58.6646 9.74989C58.6646 10.4304 58.8839 10.9908 59.3207 11.4291ZM63.0941 11.9189C62.5129 12.5103 61.7902 12.8055 60.9267 12.8055C60.0623 12.8055 59.3399 12.5103 58.7601 11.9189C58.1785 11.3281 57.8892 10.605 57.8892 9.74989C57.8892 8.89482 58.1785 8.17156 58.7601 7.58091C59.3399 6.98937 60.0623 6.69385 60.9267 6.69385C61.7856 6.69385 62.5064 6.99093 63.0902 7.58471C63.6733 8.17848 63.965 8.90018 63.965 9.74989C63.965 10.605 63.674 11.3281 63.0941 11.9189Z" fill="white"/>
<path d="M59.3206 11.4292L59.2506 11.4977C59.7043 11.9536 60.2704 12.1852 60.9266 12.184C61.5823 12.1852 62.1492 11.9536 62.6022 11.4977C63.0589 11.0414 63.2887 10.451 63.2876 9.74992C63.2887 9.0488 63.0589 8.45844 62.6022 8.00214C62.1492 7.54623 61.5823 7.31467 60.9266 7.31584C60.2704 7.31467 59.7043 7.54623 59.2506 8.00214L59.2475 8.00516L59.2506 8.00214C58.7949 8.45844 58.5652 9.0488 58.566 9.74992C58.5652 10.451 58.7949 11.0414 59.2506 11.4977L59.3206 11.4292L59.3907 11.3606C58.9728 10.9397 58.7638 10.4103 58.763 9.74992C58.7638 9.08956 58.9728 8.56013 59.3907 8.13923C59.8124 7.71842 60.3161 7.51201 60.9266 7.51084C61.5365 7.51201 62.0414 7.71842 62.4621 8.13923C62.8808 8.56013 63.0897 9.08956 63.0905 9.74992C63.0897 10.4103 62.8808 10.9397 62.4621 11.3606C62.0414 11.7814 61.5365 11.9878 60.9266 11.989C60.3161 11.9878 59.8124 11.7814 59.3907 11.3606L59.3206 11.4292ZM63.094 11.9189L63.0235 11.8511C62.4585 12.424 61.7678 12.7069 60.9266 12.7081C60.0849 12.7069 59.3941 12.424 58.8303 11.8511L58.8276 11.8481L58.8303 11.8511C58.2666 11.2764 57.9883 10.5833 57.9876 9.74992C57.9883 8.91659 58.2666 8.22346 58.8303 7.6487C59.3941 7.07589 60.0849 6.79255 60.9266 6.79138C61.7624 6.79255 62.4516 7.07706 63.0197 7.65289C63.5854 8.23029 63.8652 8.92234 63.8664 9.74992C63.8652 10.5833 63.5862 11.2764 63.0235 11.8511L63.094 11.9189L63.1647 11.9867C63.762 11.3796 64.0641 10.6266 64.0634 9.74992C64.0641 8.87818 63.7608 8.12674 63.1609 7.51698C62.5606 6.90487 61.8086 6.59531 60.9266 6.59639C60.0399 6.59531 59.2855 6.90341 58.6891 7.51318V7.51279C58.0907 8.12021 57.7897 8.8732 57.7905 9.74992C57.7897 10.6266 58.0907 11.3796 58.6891 11.9871V11.9867C59.2855 12.5964 60.0399 12.9039 60.9266 12.9031C61.8128 12.9039 62.5671 12.5964 63.1644 11.9867L63.094 11.9189Z" fill="white"/>
<path d="M65.0312 12.675V6.82505H65.9556L68.8284 11.376H68.8612L68.8284 10.2486V6.82505H69.5885V12.675H68.7957L65.7901 7.90359H65.7574L65.7901 9.03138V12.675H65.0312Z" fill="white"/>
<path d="M65.0311 12.6751H65.1297V6.92258H65.9009L68.7737 11.4735H68.861H68.9622L68.9269 10.2471V6.92258H69.4899V12.5776H68.8502L65.8447 7.80613H65.7573H65.6561L65.6915 9.03258V12.5776H65.0311V12.6751H65.1297H65.0311V12.7726H65.79H65.8885V9.02985L65.8558 7.901L65.7573 7.90363V8.00113H65.79V7.90363L65.7065 7.9555L68.7409 12.7726H69.5884H69.6869V6.72758H68.8283H68.7298V10.2498L68.7625 11.3786L68.861 11.376V11.2785H68.8283V11.376L68.9118 11.3242L66.0101 6.72758H65.0311H64.9326V12.7726H65.0311V12.6751Z" fill="white"/>
<path d="M71.6522 6.36767H70.991L71.4208 5.3214H72.2463L71.6522 6.36767ZM70.9421 12.675V6.82505H71.701V12.675H70.9421Z" fill="white"/>
<path d="M71.652 6.36771V6.27021H71.1371L71.4873 5.41894H72.078L71.5658 6.31964L71.652 6.36771V6.27021V6.36771L71.7375 6.41529L72.4148 5.22394H71.4207H71.3545L70.8443 6.46521H71.652H71.7094L71.7375 6.41529L71.652 6.36771ZM70.942 12.6751H71.0405V6.92258H71.6024V12.5776H70.942V12.6751H71.0405H70.942V12.7726H71.7009H71.7994V6.72758H70.942H70.8435V12.7726H70.942V12.6751Z" fill="white"/>
<path d="M74.5161 12.675L72.436 6.82505H73.2781L74.8963 11.572H74.929L76.6134 6.82505H77.4551L75.3088 12.675H74.5161Z" fill="white"/>
<path d="M74.5163 12.6751L74.6091 12.6427L72.5756 6.92258H73.2075L74.8257 11.6696H74.9293H74.9989L76.6833 6.92258H77.3148L75.2402 12.5776H74.5163V12.6751L74.6091 12.6427L74.5163 12.6751V12.7726H75.3091H75.3779L77.5962 6.72758H76.6137H76.5436L74.8361 11.5397L74.9293 11.5721V11.4746H74.8966V11.5721L74.9897 11.5409L73.3488 6.72758H72.4363H72.2974L74.4466 12.7726H74.5163V12.6751Z" fill="white"/>
<path d="M81.7644 7.54372H79.0725V9.39856H81.5001V10.1015H79.0725V11.9564H81.7644V12.675H78.3132V6.82505H81.7644V7.54372Z" fill="white"/>
<path d="M81.7646 7.54376V7.44626H78.9741V9.49609H81.4017V10.0038L78.9741 10.0041V12.0539H81.666V12.5776H78.4119V6.92258H81.666V7.54376H81.7646V7.44626V7.54376H81.8631V6.82508V6.72758H78.2148V12.7726H81.8631V11.9564V11.8589H79.1712V10.1991H81.5988V9.39859V9.30109H79.1712V7.64126H81.8631V7.54376H81.7646Z" fill="white"/>
<path d="M82.9541 12.675V6.82505H83.7134V11.9564H86.2721V12.675H82.9541Z" fill="white"/>
<path d="M82.9537 12.6751H83.0523V6.92258H83.6145V12.0539H86.1732V12.5776H82.9537V12.6751H83.0523H82.9537V12.7726H86.3703V11.9564V11.8589H83.8115V6.72758H82.9537H82.8552V12.7726H82.9537V12.6751Z" fill="white"/>
<path d="M89.2114 12.675V6.82505H90.1355L93.0083 11.376H93.0408L93.0083 10.2486V6.82505H93.7689V12.675H92.9758L89.97 7.90359H89.9375L89.97 9.03138V12.675H89.2114Z" fill="white"/>
<path d="M89.2116 12.6751H89.3101V6.92258H90.0815L92.9543 11.4735H93.041H93.1424L93.107 10.2471V6.92258H93.6705V12.5776H93.0311L90.0253 7.80613H89.9376H89.8362L89.8716 9.03297V12.5776H89.2116V12.6751H89.3101H89.2116V12.7726H89.9701H90.0687V9.02985L90.0362 7.901L89.9376 7.90363V8.00113H89.9701V7.90363L89.8864 7.9555L92.9218 12.7726H93.769H93.8675V6.72758H93.0085H92.9099V10.2498L92.9425 11.3786L93.041 11.376V11.2785H93.0085V11.376L93.0922 11.3242L90.1908 6.72758H89.2116H89.113V12.7726H89.2116V12.6751Z" fill="white"/>
<path d="M96.1837 11.4291C96.6211 11.8675 97.156 12.0865 97.7895 12.0865C98.422 12.0865 98.958 11.8675 99.3954 11.4291C99.8328 10.9908 100.052 10.4304 100.052 9.74989C100.052 9.06934 99.8328 8.50901 99.3954 8.07065C98.958 7.63229 98.422 7.4133 97.7895 7.4133C97.156 7.4133 96.6211 7.63229 96.1837 8.07065C95.7472 8.50901 95.5275 9.06934 95.5275 9.74989C95.5275 10.4304 95.7472 10.9908 96.1837 11.4291ZM99.9569 11.9189C99.3757 12.5103 98.6535 12.8055 97.7895 12.8055C96.9255 12.8055 96.2024 12.5103 95.6231 11.9189C95.0418 11.3281 94.7522 10.605 94.7522 9.74989C94.7522 8.89482 95.0418 8.17156 95.6231 7.58091C96.2024 6.98937 96.9255 6.69385 97.7895 6.69385C98.6486 6.69385 99.3688 6.99093 99.953 7.58471C100.536 8.17848 100.828 8.90018 100.828 9.74989C100.828 10.605 100.537 11.3281 99.9569 11.9189Z" fill="white"/>
<path d="M96.1838 11.4292L96.1139 11.4977C96.567 11.9536 97.1335 12.1852 97.7897 12.184C98.4458 12.1852 99.0123 11.9536 99.4655 11.4977C99.9216 11.0414 100.152 10.451 100.151 9.74992C100.152 9.0488 99.9216 8.45844 99.4655 8.00214C99.0123 7.54623 98.4458 7.31467 97.7897 7.31584C97.1335 7.31467 96.567 7.54623 96.1139 8.00214C95.6577 8.45844 95.4282 9.0488 95.4292 9.74992C95.4282 10.451 95.6577 11.0414 96.1139 11.4977L96.1838 11.4292L96.2538 11.3606C95.836 10.9397 95.6272 10.4103 95.6262 9.74992C95.6272 9.08956 95.836 8.56013 96.2538 8.13923C96.6754 7.71842 97.1788 7.51201 97.7897 7.51084C98.3995 7.51201 98.9049 7.71842 99.3246 8.13923L99.3285 8.14234L99.3256 8.13923C99.7443 8.56013 99.9531 9.08956 99.9541 9.74992C99.9531 10.4103 99.7443 10.9397 99.3256 11.3606C98.9049 11.7814 98.3995 11.9878 97.7897 11.989C97.1788 11.9878 96.6754 11.7814 96.2538 11.3606L96.1838 11.4292ZM99.9571 11.9189L99.8861 11.8511C99.3216 12.424 98.631 12.7069 97.7897 12.7081C96.9483 12.7069 96.2567 12.424 95.6932 11.8511L95.6902 11.8481L95.6932 11.8511C95.1296 11.2764 94.8518 10.5833 94.8508 9.74992C94.8518 8.91659 95.1296 8.22346 95.6932 7.6487C96.2567 7.07589 96.9483 6.79255 97.7897 6.79138C98.6261 6.79255 99.3147 7.07706 99.8822 7.65289C100.449 8.23029 100.728 8.92234 100.729 9.74992C100.728 10.5833 100.449 11.2764 99.8861 11.8511L99.9571 11.9189L100.028 11.9867C100.625 11.3796 100.927 10.6266 100.926 9.74992C100.927 8.87818 100.624 8.12674 100.024 7.51698C99.4231 6.90487 98.6714 6.59531 97.7897 6.59639C96.903 6.59531 96.1483 6.90341 95.5523 7.51318V7.51279C94.9533 8.12021 94.6528 8.8732 94.6538 9.74992C94.6528 10.6266 94.9533 11.3796 95.5523 11.9871V11.9867C96.1483 12.5964 96.903 12.9039 97.7897 12.9031C98.6763 12.9039 99.43 12.5964 100.028 11.9867L99.9571 11.9189Z" fill="white"/>
<defs>
<linearGradient id="paint0_linear_124_534" x1="30.6281" y1="19.5002" x2="6.80942" y2="19.5002" gradientUnits="userSpaceOnUse">
<stop stop-color="#F9E106"/>
<stop offset="1" stop-color="#F79011"/>
</linearGradient>
<linearGradient id="paint1_linear_124_534" x1="24.4466" y1="21.7359" x2="2.27693" y2="44.1372" gradientUnits="userSpaceOnUse">
<stop stop-color="#EF2F41"/>
<stop offset="1" stop-color="#C80D6B"/>
</linearGradient>
<linearGradient id="paint2_linear_124_534" x1="1.94413" y1="-5.00585" x2="20.0453" y2="13.2844" gradientUnits="userSpaceOnUse">
<stop stop-color="#39A36A"/>
<stop offset="0.736963" stop-color="#6CC858"/>
<stop offset="1" stop-color="#6CC858"/>
</linearGradient>
</defs>
</svg>
