<svg width="611" height="397" viewBox="0 0 611 397" fill="none" xmlns="http://www.w3.org/2000/svg">
<g clip-path="url(#clip0_75_2044)">
<path d="M109 362.356H514V121.073H463.21V144.782H452.928V81.9766H419.373V151.15H392.967V78.0129L338.135 103.667V183.166H290.958V154.321H273.149V169.404H260.577V124.579H233.938V162.179H212.15C211.541 163.29 211.379 164.587 211.379 165.918C211.379 166.9 211.467 167.899 211.529 168.857C211.549 169.181 211.561 169.513 211.561 169.849C211.561 172.157 211.001 174.619 208.982 175.655C208.316 175.997 207.615 176.124 206.892 176.124C206.522 176.124 206.145 176.091 205.765 176.036C210.568 181.437 213.046 185.07 214.606 190.983C215.635 194.879 214.347 198.788 211.685 201.775L213.048 205.384C213.048 205.385 213.048 205.385 213.048 205.385L215.965 213.111L237.48 208.894L238.466 212.594L238.769 213.73L215.786 223.532C214.949 223.89 214.098 224.053 213.272 224.054C211.045 224.054 209 222.86 207.885 221.045C206.056 233.482 203.44 248.229 202.903 255.002C199.353 256 195.325 256.505 191.137 256.505C179.434 256.505 166.497 252.559 159.377 244.404C163.728 228.987 175.728 217.997 178.459 214.183C181.19 210.362 183.009 205.712 182.604 200.87C182.531 200.019 182.393 199.174 182.21 198.334C182.208 198.332 182.206 198.329 182.204 198.326C182.117 197.927 182.021 197.528 181.916 197.13C180.013 196.941 178.12 196.496 176.271 195.993C172.527 194.975 168.793 193.684 165.634 191.465C162.513 189.272 159.982 186.058 159.329 182.353C159.32 182.309 159.313 182.265 159.306 182.221C159.22 181.699 159.178 181.169 159.179 180.638C159.18 177.338 160.805 173.997 163.739 172.419C165.733 171.346 168.322 170.99 169.553 169.116C170.022 168.403 170.204 167.609 170.204 166.784C170.204 165.312 169.621 163.738 169.045 162.334C168.503 161.017 167.999 159.521 168 158.129C168.001 157.208 168.224 156.331 168.806 155.584C171.457 152.17 178.217 155.286 180.866 151.871C181.894 150.546 181.829 148.733 181.925 147.071C181.925 147.063 181.926 147.056 181.926 147.048C182.222 142.043 184.572 137.249 188.174 133.702V94.3741H142.221V117.581H109V362.356Z" fill="#F6F6FA"/>
<path d="M109 362.356H514V121.073H463.21V144.782H452.928V81.9766H419.373V151.15H392.967V78.0129L338.135 103.667V183.166H290.958V154.321H273.149V169.404H260.577V124.579H233.938V162.179H212.15C211.541 163.29 211.379 164.587 211.379 165.918C211.379 166.9 211.467 167.899 211.529 168.857C211.549 169.181 211.561 169.513 211.561 169.849C211.561 172.157 211.001 174.619 208.982 175.655C208.316 175.997 207.615 176.124 206.892 176.124C206.522 176.124 206.145 176.091 205.765 176.036C210.568 181.437 213.046 185.07 214.606 190.983C215.635 194.879 214.347 198.788 211.685 201.775L213.048 205.384C213.048 205.385 213.048 205.385 213.048 205.385L215.965 213.111L237.48 208.894L238.466 212.594L238.769 213.73L215.786 223.532C214.949 223.89 214.098 224.053 213.272 224.054C211.045 224.054 209 222.86 207.885 221.045C206.056 233.482 203.44 248.229 202.903 255.002C199.353 256 195.325 256.505 191.137 256.505C179.434 256.505 166.497 252.559 159.377 244.404C163.728 228.987 175.728 217.997 178.459 214.183C181.19 210.362 183.009 205.712 182.604 200.87C182.531 200.019 182.393 199.174 182.21 198.334C182.208 198.332 182.206 198.329 182.204 198.326C182.117 197.927 182.021 197.528 181.916 197.13C180.013 196.941 178.12 196.496 176.271 195.993C172.527 194.975 168.793 193.684 165.634 191.465C162.513 189.272 159.982 186.058 159.329 182.353C159.32 182.309 159.313 182.265 159.306 182.221C159.22 181.699 159.178 181.169 159.179 180.638C159.18 177.338 160.805 173.997 163.739 172.419C165.733 171.346 168.322 170.99 169.553 169.116C170.022 168.403 170.204 167.609 170.204 166.784C170.204 165.312 169.621 163.738 169.045 162.334C168.503 161.017 167.999 159.521 168 158.129C168.001 157.208 168.224 156.331 168.806 155.584C171.457 152.17 178.217 155.286 180.866 151.871C181.894 150.546 181.829 148.733 181.925 147.071C181.925 147.063 181.926 147.056 181.926 147.048C182.222 142.043 184.572 137.249 188.174 133.702V94.3741H142.221V117.581H109V362.356Z" fill="#F6F6FA"/>
<path d="M192.289 334.692C199.992 327.497 211.491 320.898 210.725 308.944C210.687 308.39 211.417 308.29 211.662 308.662C211.74 308.638 211.838 308.658 211.897 308.73L211.918 308.753C212.73 310.19 213.309 311.697 213.662 313.238L213.671 313.263C215.359 320.389 212.622 328.268 208.381 334.114C205.162 338.536 201.039 342.212 196.687 345.545C194.24 347.412 191.688 349.149 189.242 351.016C186.93 352.772 184.972 354.861 182.826 356.756C182.738 356.838 182.644 356.929 182.548 357.007C182.527 357.53 182.51 358.044 182.51 358.567C182.513 358.964 181.915 358.983 181.894 358.599C181.888 358.511 181.885 358.414 181.888 358.329L181.884 358.316C181.877 358.067 181.865 357.826 181.867 357.582C181.77 357.659 181.683 357.741 181.591 357.811C181.318 358.033 180.885 357.787 181.062 357.44C181.305 356.99 181.578 356.545 181.873 356.122C181.891 355.746 181.881 355.421 181.916 355.055L181.935 355.001C182.493 347.164 186.408 340.187 192.289 334.692Z" fill="#3899A9"/>
<path d="M169.437 331.539L169.449 331.555L169.453 331.569L169.457 331.581L169.461 331.594L169.465 331.607C169.966 332.433 170.465 333.26 170.954 334.09C170.648 333.366 170.387 332.642 170.172 331.911L169.968 331.804C169.765 331.635 169.563 331.465 169.356 331.305L169.192 331.166C169.278 331.308 169.331 331.431 169.437 331.539ZM124.833 285.427C133.896 292.47 142.997 299.543 151.02 307.743C157.166 314.038 162.741 321.146 167.551 328.582C167.953 328.887 168.341 329.196 168.734 329.517C168.855 329.613 168.986 329.713 169.104 329.817C169.337 329.992 169.552 330.178 169.779 330.361C169.69 329.962 169.623 329.564 169.555 329.165C169.381 329.225 169.175 329.204 169.027 329.115C168.861 329.018 168.763 328.839 168.855 328.587C168.887 328.486 168.933 328.383 168.966 328.282L168.969 328.274C169.095 327.943 169.218 327.634 169.36 327.312C169.298 326.319 169.305 325.319 169.377 324.32C169.397 323.861 169.442 323.394 169.514 322.94L169.529 322.852C170.339 316.32 173.637 309.962 176.958 304.225C183.689 292.647 189.738 280.457 190.625 266.94C190.65 266.472 191.088 266.165 191.482 266.243L191.49 266.247C191.572 266.257 191.652 266.289 191.729 266.349C191.801 266.397 191.863 266.462 191.926 266.548C197.62 275.149 199.153 286.125 195.443 295.782C193.233 301.52 189.418 306.52 185.13 310.922C179.969 316.236 173.537 320.717 170.442 327.565C170.26 327.983 170.089 328.397 169.924 328.824L169.867 328.91C169.926 329.486 170.015 330.066 170.117 330.643L170.661 331.087C171.019 331.39 170.75 331.848 170.387 331.916C170.579 332.71 170.822 333.508 171.116 334.313L171.051 334.333L171.027 334.277L170.866 334.291C170.6 333.938 170.336 333.599 170.061 333.263L170.049 333.245L170.037 333.208C169.34 332.3 168.652 331.377 167.974 330.458C167.794 330.225 167.616 329.993 167.44 329.753C166.334 328.878 165.21 328.037 164.074 327.2L164.065 327.196C157.169 322.124 149.857 317.604 143.583 311.788C139.917 308.397 136.881 304.628 134.374 300.344C131.982 296.249 129.444 292.568 126.503 288.965L126.498 288.952C125.742 288.015 124.952 287.08 124.136 286.154C123.959 285.955 123.956 285.739 124.051 285.565L124.056 285.557C124.186 285.314 124.529 285.183 124.833 285.427Z" fill="#3899A9"/>
<path d="M157.004 232.617C157.142 232.786 157.28 232.953 157.41 233.117C161.475 238.083 165.109 242.761 167.351 248.882C169.565 254.937 170.469 261.419 169.903 267.821C169.27 274.85 166.691 281.571 165.128 288.426C164.143 292.763 163.57 297.024 163.524 301.358L163.519 301.367C163.501 303.172 163.572 304.972 163.742 306.811C162.678 303.727 161.601 300.624 160.549 297.536L160.541 297.51C157.625 288.848 154.991 280.11 153.655 271.041C151.823 258.565 153.027 246.514 156.287 234.466L156.292 234.457C156.473 233.74 156.671 233.032 156.882 232.32C156.892 232.42 156.916 232.518 157.004 232.617Z" fill="#3899A9"/>
<path d="M126.281 261.831C141.659 273.911 153.987 289.231 162.254 306.764L162.326 306.812L162.335 306.816C163.166 307.313 163.993 307.818 164.833 308.319C164.914 308.371 164.982 308.428 165.031 308.496C165.161 308.66 165.194 308.86 165.16 309.044L165.156 309.053C165.063 309.464 164.647 309.791 164.184 309.519C163.704 309.238 163.23 308.948 162.755 308.659C154.909 303.915 147.263 298.804 141.978 291.218C135.955 282.584 131.086 272.981 126.093 263.73L126.076 263.701C125.867 263.303 125.649 262.901 125.439 262.504L125.406 262.423C125.203 261.911 125.813 261.47 126.281 261.831Z" fill="#3899A9"/>
<path d="M185 320.807C191.323 310.747 202.195 303.897 204.245 291.55C204.305 291.155 204.765 291.192 204.94 291.453C204.978 291.504 205.015 291.556 205.03 291.627C205.324 293.34 205.524 295.024 205.599 296.676C205.699 298.244 205.695 299.78 205.585 301.293C205.149 307.795 202.897 313.832 198.321 319.332C191.66 327.316 182.598 333.239 177.34 342.273C177.17 343.134 177.079 344.005 177.144 344.83L177.149 344.843L177.153 344.855C177.2 345.595 177.355 346.274 177.687 346.928C177.872 347.311 177.316 347.674 177.102 347.285C176.549 346.313 176.329 345.271 176.309 344.202L176.232 344.344L176.164 344.447C176.102 344.523 176.019 344.575 175.933 344.594C175.56 344.699 175.075 344.308 175.297 343.857C175.55 343.349 175.808 342.852 176.078 342.373C176.253 342.048 176.446 341.733 176.626 341.42C177.055 339.539 177.815 337.671 178.338 335.999C180.001 330.733 182.038 325.515 185 320.807Z" fill="#3899A9"/>
<path d="M128.72 310.112L128.856 310.161C139.076 316.716 148.934 323.799 158.305 331.483C164.287 336.368 170.426 341.324 175.605 347.072L175.726 347.21L175.739 347.227L175.743 347.24C176.531 348.098 177.284 348.982 178.011 349.894C178.095 349.938 178.181 349.983 178.27 350.039C178.711 350.995 179.157 351.922 179.6 352.835C179.063 352.396 178.496 351.995 177.903 351.621L177.709 351.499C177.204 351.183 176.682 350.879 176.147 350.601L175.646 350.34L175.53 350.291C171.883 348.457 167.726 347.224 164.273 345.535C159.318 343.117 154.534 340.223 150.5 336.468C143.346 329.842 138.564 321.245 131.925 314.192L131.883 314.149C130.784 312.98 129.633 311.847 128.402 310.779C128.125 310.528 128.395 310.049 128.72 310.112Z" fill="#3899A9"/>
<path d="M185.43 366.24C184.183 364.07 182.887 361.725 181.565 359.208L181.57 359.199C181.301 358.708 181.043 358.199 180.776 357.687C180.048 356.272 179.315 354.812 178.581 353.308C178.425 352.993 178.278 352.681 178.126 352.357C177.982 352.078 177.848 351.785 177.709 351.499C177.677 351.417 177.631 351.34 177.594 351.247L177.586 351.242C177.467 350.999 177.348 350.756 177.234 350.504C176.739 349.445 176.245 348.366 175.738 347.249L175.743 347.24L175.739 347.227L175.726 347.21C175.694 347.13 175.653 347.044 175.613 346.959C173.764 342.825 171.875 338.243 170.061 333.263L170.049 333.245L170.037 333.208C169.843 332.679 169.649 332.152 169.465 331.607L169.461 331.594L169.457 331.581L169.453 331.569L169.449 331.555L169.437 331.539C169.412 331.461 169.38 331.381 169.356 331.304C169.142 330.713 168.937 330.126 168.733 329.517C166.523 323.114 164.457 316.122 162.755 308.659C162.668 308.314 162.59 307.974 162.518 307.627L162.509 307.623C162.488 307.483 162.452 307.346 162.421 307.202C162.394 307.071 162.367 306.94 162.335 306.816L162.326 306.812C161.674 303.791 161.07 300.7 160.549 297.536L160.541 297.51C159.047 288.57 158.139 279.073 158.105 269.185C158.102 268.57 158.614 268.07 159.241 268.071C159.864 268.072 160.365 268.568 160.366 269.179C160.373 272.136 160.463 275.059 160.63 277.938L160.625 277.967C161.083 286.119 162.109 293.947 163.524 301.358L163.519 301.367C163.984 303.787 164.486 306.162 165.031 308.496C165.066 308.675 165.117 308.861 165.16 309.044L165.156 309.052C166.382 314.294 167.783 319.294 169.277 324.002L169.377 324.32C169.573 324.925 169.765 325.515 169.957 326.107C170.126 326.6 170.285 327.089 170.442 327.565C172.251 332.918 174.166 337.875 176.078 342.373C176.143 342.536 176.216 342.702 176.286 342.855C176.338 342.978 176.391 343.102 176.444 343.226C176.68 343.776 176.912 344.313 177.145 344.829L177.149 344.843L177.153 344.855C177.874 346.501 178.589 348.08 179.293 349.577C179.737 350.525 180.176 351.447 180.623 352.353C181.061 353.254 181.495 354.141 181.935 355C182.181 355.491 182.427 355.983 182.674 356.453C182.728 356.555 182.772 356.653 182.826 356.756C184.618 360.233 186.374 363.403 188.027 366.24H185.43Z" fill="#27425A"/>
<path d="M139.337 278.985C146.259 289.334 154.52 298.692 163.974 306.894C164.999 307.783 163.592 309.343 162.569 308.455C152.984 300.141 144.588 290.632 137.57 280.141C136.82 279.019 138.589 277.863 139.337 278.985Z" fill="#27425A"/>
<path d="M144.18 305.55C153.211 314.029 162.242 322.507 171.273 330.986C172.259 331.913 170.857 333.475 169.868 332.548C160.837 324.069 151.806 315.59 142.775 307.111C141.789 306.185 143.191 304.622 144.18 305.55Z" fill="#27425A"/>
<path d="M146.299 325.713C157.908 333.4 168.994 341.802 179.507 350.878C180.534 351.766 179.128 353.326 178.102 352.44C167.589 343.364 156.503 334.962 144.894 327.275C143.762 326.526 145.181 324.973 146.299 325.713Z" fill="#27425A"/>
<path d="M168.725 329.318C169.397 321.782 173.508 315.358 177.832 309.305C183.04 302.015 187.713 295.029 189.198 286.074C189.418 284.751 191.494 285.186 191.276 286.508C189.953 294.482 186.226 301.181 181.551 307.727C176.738 314.464 171.558 321.283 170.802 329.751C170.684 331.082 168.607 330.639 168.725 329.318Z" fill="#27425A"/>
<path d="M175.044 344.418C177.505 337.63 181.445 331.578 185.686 325.74C190.417 319.228 195.287 312.81 200.094 306.351C200.901 305.268 202.487 306.655 201.688 307.729C197.061 313.944 192.392 320.13 187.817 326.38C183.479 332.307 179.446 338.443 176.941 345.353C176.484 346.614 174.592 345.665 175.044 344.418Z" fill="#27425A"/>
<path d="M181.237 357.006C184.394 349.81 189.476 344.277 195.216 338.941C200.956 333.605 206.846 328.196 209.57 320.713C210.03 319.453 211.922 320.402 211.467 321.649C208.914 328.664 203.612 333.994 198.207 339.022C192.124 344.681 186.498 350.275 183.134 357.942C182.593 359.176 180.699 358.234 181.237 357.006Z" fill="#27425A"/>
<path d="M439.297 344.828C451.254 343.584 466.191 345.434 473.904 334.209C474.259 333.687 474.984 334.09 474.942 334.589C475.028 334.62 475.103 334.704 475.104 334.809L475.107 334.842C474.825 336.679 474.284 338.42 473.519 340.039L473.508 340.067C470.014 347.591 462.027 352.8 454.12 355.175C448.128 356.963 441.852 357.473 435.613 357.521C432.109 357.541 428.602 357.375 425.098 357.394C421.794 357.407 418.572 357.957 415.318 358.206C415.181 358.22 415.034 358.238 414.892 358.243C414.506 358.697 414.129 359.147 413.762 359.615C413.486 359.973 412.936 359.586 413.187 359.228C413.244 359.144 413.311 359.055 413.372 358.981L413.377 358.967C413.546 358.739 413.706 358.516 413.878 358.298C413.737 358.303 413.601 358.317 413.469 358.318C413.07 358.331 412.855 357.819 413.256 357.627C413.791 357.389 414.348 357.174 414.909 356.994C415.19 356.669 415.41 356.372 415.698 356.068L415.753 356.032C421.759 349.387 430.169 345.78 439.297 344.828Z" fill="#3899A9"/>
<path d="M421.04 326.575L421.04 326.599L421.034 326.613L421.029 326.627L421.023 326.641L421.018 326.656C420.886 327.734 420.754 328.812 420.607 329.885C420.843 329.029 421.117 328.205 421.438 327.405C421.386 327.346 421.351 327.268 421.33 327.172C421.267 326.884 421.205 326.595 421.133 326.312C421.121 326.235 421.105 326.148 421.083 326.076C421.062 326.262 421.023 326.408 421.04 326.575ZM413.481 255.154C416.652 267.581 419.835 280.063 421.261 292.825C422.344 302.612 422.344 312.745 421.428 322.654C421.574 323.198 421.705 323.737 421.83 324.289C421.873 324.458 421.92 324.636 421.952 324.809C422.038 325.122 422.1 325.434 422.175 325.752C422.376 325.335 422.595 324.933 422.814 324.529C422.617 324.465 422.448 324.307 422.377 324.127C422.297 323.929 422.334 323.702 422.593 323.539C422.693 323.471 422.807 323.408 422.907 323.34L422.916 323.336C423.26 323.123 423.589 322.93 423.941 322.737C424.583 321.806 425.293 320.915 426.059 320.069C426.399 319.671 426.769 319.282 427.152 318.923L427.227 318.855C432.542 313.551 439.964 310.082 446.97 307.184C461.135 301.356 475.118 294.521 485.411 283.009C485.761 282.607 486.369 282.628 486.668 282.962L486.672 282.973C486.738 283.037 486.788 283.12 486.813 283.225C486.844 283.318 486.855 283.418 486.851 283.537C485.908 295.086 479.571 305.954 469.462 312.101C463.449 315.748 456.519 317.651 449.585 318.7C441.228 319.976 432.317 319.649 424.732 323.695C424.276 323.945 423.833 324.203 423.385 324.474L423.272 324.512C422.921 325.068 422.593 325.647 422.28 326.232L422.455 326.997C422.563 327.511 421.999 327.739 421.627 327.554C421.24 328.395 420.897 329.275 420.595 330.195L420.524 330.168L420.541 330.101C420.471 330.132 420.39 330.087 420.388 330.006C420.396 329.51 420.4 329.029 420.389 328.542L420.39 328.517L420.406 328.476C420.419 327.192 420.452 325.901 420.49 324.62C420.492 324.29 420.494 323.962 420.507 323.628C420.131 322.097 419.714 320.586 419.284 319.067L419.279 319.058C416.666 309.859 413.29 300.874 411.757 291.427C410.855 285.915 410.784 280.488 411.547 274.958C412.283 269.675 412.594 264.662 412.491 259.451L412.496 259.435C412.478 258.085 412.426 256.714 412.346 255.333C412.327 255.037 412.475 254.841 412.684 254.748L412.694 254.745C412.981 254.616 413.38 254.731 413.481 255.154Z" fill="#3899A9"/>
<path d="M479.406 229.563C479.411 229.807 479.417 230.051 479.418 230.284C479.571 237.478 479.539 244.122 477.247 251.121C474.977 258.039 471.232 264.457 466.227 269.809C460.721 275.678 453.688 279.959 447.472 285.044C443.543 288.265 440.035 291.695 436.949 295.546L436.939 295.55C435.654 297.156 434.454 298.817 433.313 300.58C434.527 297.097 435.742 293.591 436.97 290.114L436.98 290.085C440.454 280.357 444.234 270.749 449.409 261.724C456.533 249.309 466.078 239.327 477.465 230.735L477.475 230.731C478.141 230.211 478.817 229.71 479.506 229.214C479.444 229.313 479.397 229.416 479.406 229.563Z" fill="#3899A9"/>
<path d="M431.358 234.993C436.647 256.196 436.927 278.244 432.014 299.532L432.045 299.624L432.049 299.633C432.445 300.64 432.831 301.65 433.231 302.666C433.266 302.768 433.287 302.864 433.284 302.959C433.285 303.193 433.175 303.394 433.014 303.536L433.005 303.54C432.633 303.847 432.03 303.86 431.807 303.303C431.575 302.727 431.353 302.147 431.131 301.567C427.436 292.02 424.176 282.28 424.773 271.916C425.443 260.115 427.828 248.226 429.855 236.567L429.86 236.529C429.952 236.031 430.039 235.524 430.13 235.026L430.159 234.932C430.336 234.337 431.191 234.353 431.358 234.993Z" fill="#3899A9"/>
<path d="M442.523 327.468C455.256 322.725 469.808 323.928 480.32 314.252C480.653 313.939 481.039 314.282 481.011 314.634C481.009 314.705 481.006 314.776 480.969 314.851C480.029 316.584 479.025 318.227 477.932 319.758C476.919 321.23 475.837 322.604 474.675 323.884C469.717 329.415 463.458 333.303 455.493 335.141C443.917 337.797 431.638 336.984 420.58 341.528C419.821 342.183 419.128 342.903 418.608 343.687L418.602 343.7L418.597 343.715C418.119 344.409 417.781 345.122 417.62 345.932C417.515 346.401 416.763 346.35 416.845 345.857C417.032 344.614 417.568 343.531 418.299 342.56L418.131 342.635L417.998 342.682C417.89 342.707 417.778 342.698 417.688 342.657C417.28 342.5 417.12 341.821 417.635 341.568C418.22 341.283 418.799 341.013 419.377 340.766C419.764 340.592 420.158 340.44 420.539 340.281C422.245 338.886 424.238 337.726 425.882 336.582C431.07 332.985 436.563 329.687 442.523 327.468Z" fill="#3899A9"/>
<path d="M399.62 279.891L399.707 280.028C404.257 292.8 408.111 305.8 411.107 319.009C413.034 327.425 415.053 336.01 415.653 344.656L415.664 344.861V344.885L415.659 344.899C415.762 346.201 415.816 347.5 415.826 348.807C415.87 348.904 415.915 349.001 415.955 349.112C415.679 350.266 415.428 351.398 415.182 352.514C415.011 351.76 414.786 351.017 414.516 350.283C414.489 350.201 414.463 350.118 414.428 350.041C414.197 349.418 413.943 348.793 413.659 348.182L413.393 347.61L413.324 347.488C411.345 343.383 408.488 339.471 406.581 335.627C403.842 330.117 401.59 324.294 400.613 318.207C398.86 307.441 400.616 296.512 399.624 285.71L399.617 285.644C399.454 283.854 399.219 282.062 398.867 280.276C398.794 279.863 399.372 279.615 399.62 279.891Z" fill="#3899A9"/>
<path d="M450.811 272.612L450.786 272.634C445.47 280.247 440.888 287.952 436.949 295.547L436.939 295.551C435.655 298.034 434.435 300.5 433.284 302.959C433.19 303.142 433.104 303.344 433.015 303.536L433.005 303.541C430.421 309.064 428.163 314.49 426.194 319.715L426.059 320.069C425.81 320.742 425.567 321.401 425.324 322.06C425.128 322.617 424.928 323.163 424.732 323.695C422.593 329.711 420.825 335.445 419.377 340.765C419.322 340.954 419.271 341.152 419.225 341.337C419.185 341.483 419.146 341.63 419.107 341.777C418.932 342.429 418.762 343.067 418.608 343.687L418.602 343.7L418.597 343.714C418.087 345.676 417.618 347.572 417.195 349.389C416.93 350.54 416.674 351.661 416.438 352.773C416.197 353.877 415.962 354.966 415.753 356.032C415.629 356.637 415.504 357.243 415.395 357.831C415.37 357.959 415.342 358.078 415.318 358.206C414.773 361.018 414.308 363.699 413.907 366.24H411.323C411.656 364.108 412.034 361.876 412.465 359.551L412.475 359.546C412.581 358.925 412.706 358.295 412.828 357.656C413.17 355.898 413.538 354.093 413.937 352.251C414.019 351.863 414.106 351.484 414.198 351.092C414.265 350.745 414.351 350.391 414.428 350.041C414.455 349.947 414.468 349.847 414.501 349.739L414.497 349.728C414.562 349.431 414.626 349.132 414.7 348.829C415.001 347.547 415.317 346.247 415.648 344.904L415.659 344.899L415.664 344.886L415.664 344.861C415.693 344.766 415.715 344.663 415.739 344.559C416.987 339.608 418.515 334.229 420.389 328.542L420.39 328.517L420.406 328.476C420.603 327.872 420.801 327.268 421.018 326.656L421.023 326.641L421.029 326.627L421.034 326.613L421.04 326.599L421.04 326.575C421.073 326.491 421.1 326.396 421.133 326.312C421.357 325.637 421.586 324.972 421.83 324.289C424.35 317.061 427.411 309.403 431.131 301.567C431.295 301.201 431.464 300.844 431.643 300.483L431.638 300.473C431.717 300.333 431.78 300.187 431.854 300.037C431.923 299.901 431.991 299.765 432.049 299.633L432.045 299.625C433.582 296.478 435.212 293.3 436.97 290.114L436.98 290.085C441.923 281.069 447.783 271.947 454.699 263.066C455.129 262.514 455.939 262.411 456.499 262.835C457.057 263.256 457.158 264.04 456.73 264.589C454.658 267.24 452.685 269.921 450.811 272.612Z" fill="#27425A"/>
<path d="M431.002 259.175C429.931 273.118 430.755 287.079 433.462 300.809C433.756 302.298 431.4 302.747 431.106 301.259C428.362 287.34 427.522 273.154 428.607 259.017C428.722 257.506 431.118 257.665 431.002 259.175Z" fill="#27425A"/>
<path d="M416.674 286.242C418.808 299.934 420.941 313.627 423.074 327.32C423.308 328.815 420.952 329.269 420.719 327.771C418.585 314.078 416.453 300.385 414.319 286.693C414.086 285.197 416.441 284.743 416.674 286.242Z" fill="#27425A"/>
<path d="M404.406 305.736C409.405 320.46 413.434 335.47 416.474 350.7C416.771 352.189 414.415 352.637 414.118 351.15C411.078 335.921 407.049 320.91 402.05 306.186C401.563 304.751 403.924 304.319 404.406 305.736Z" fill="#27425A"/>
<path d="M421.964 324.106C427.861 317.809 436.057 314.829 444.183 312.326C453.97 309.311 463.066 306.208 470.687 299.188C471.814 298.151 473.369 299.943 472.244 300.979C465.457 307.229 457.411 310.714 448.624 313.423C439.578 316.209 430.146 318.819 423.521 325.897C422.479 327.009 420.929 325.21 421.964 324.106Z" fill="#27425A"/>
<path d="M417.015 341.899C423.989 337.479 431.771 334.718 439.672 332.351C448.486 329.711 457.358 327.249 466.202 324.709C467.686 324.284 468.132 326.597 466.661 327.019C458.151 329.463 449.622 331.853 441.131 334.363C433.08 336.743 425.156 339.519 418.058 344.018C416.762 344.839 415.733 342.712 417.015 341.899Z" fill="#27425A"/>
<path d="M413.719 357.358C421.603 353.042 430.043 351.517 438.934 350.611C447.826 349.707 456.903 348.837 464.601 343.974C465.897 343.155 466.926 345.282 465.643 346.093C458.426 350.652 449.932 351.847 441.557 352.703C432.132 353.666 423.161 354.878 414.76 359.476C413.409 360.216 412.374 358.093 413.719 357.358Z" fill="#27425A"/>
<path d="M344.258 351.627C341.802 354.078 339.209 356.399 336.753 358.848C334.433 361.154 332.559 363.781 330.444 366.218L330.426 366.24H328.997C329.089 366.041 329.18 365.841 329.28 365.647C329.243 365.225 329.182 364.862 329.165 364.446L329.178 364.382C328.606 355.523 331.927 347.135 337.674 340.117C345.204 330.927 357.075 321.849 354.392 308.573C354.265 307.959 355.067 307.738 355.398 308.12C355.482 308.083 355.595 308.09 355.672 308.163L355.698 308.185C356.828 309.675 357.706 311.278 358.337 312.952L358.35 312.98C361.33 320.713 359.467 329.938 355.61 337.109C352.679 342.536 348.622 347.257 344.258 351.627Z" fill="#3899A9"/>
<path d="M311.596 339.938L311.613 339.957L311.62 339.969L311.626 339.984L311.633 339.996L311.639 340.011C312.326 340.863 313.013 341.715 313.685 342.573C313.233 341.807 312.829 341.035 312.478 340.247C312.398 340.242 312.317 340.212 312.233 340.158C311.98 339.998 311.728 339.838 311.471 339.688L311.266 339.557C311.385 339.702 311.463 339.833 311.596 339.938ZM254.599 294.835C265.826 301.394 277.099 307.981 287.336 315.989C295.182 322.137 302.511 329.28 309.033 336.904C309.53 337.185 310.011 337.475 310.5 337.777C310.652 337.867 310.814 337.96 310.962 338.059C311.249 338.22 311.519 338.398 311.801 338.569C311.64 338.136 311.504 337.699 311.367 337.263C311.182 337.355 310.948 337.36 310.769 337.284C310.568 337.2 310.43 337.013 310.495 336.718C310.516 336.601 310.551 336.477 310.572 336.36L310.576 336.35C310.665 335.961 310.756 335.597 310.866 335.217C310.645 334.113 310.5 332.992 310.428 331.863C310.381 331.345 310.36 330.815 310.371 330.296L310.374 330.194C310.284 322.76 313.007 315.155 315.851 308.242C321.623 294.287 326.537 279.747 325.466 264.476C325.422 263.949 325.866 263.541 326.319 263.569L326.329 263.573C326.422 263.572 326.517 263.597 326.612 263.653C326.7 263.697 326.78 263.76 326.863 263.847C334.553 272.644 337.947 284.712 335.266 296.074C333.666 302.825 330.156 308.985 326.027 314.544C321.057 321.253 314.537 327.217 312.116 335.341C311.976 335.836 311.85 336.324 311.729 336.826L311.678 336.932C311.832 337.568 312.02 338.205 312.223 338.835L312.9 339.252C313.348 339.54 313.115 340.092 312.719 340.222C313.054 341.083 313.449 341.942 313.902 342.8L313.831 342.832L313.796 342.772L313.619 342.81C313.267 342.455 312.92 342.113 312.56 341.778L312.543 341.761L312.525 341.719C311.605 340.806 310.695 339.872 309.794 338.942C309.558 338.709 309.321 338.474 309.089 338.231C307.716 337.413 306.329 336.637 304.927 335.866L304.916 335.862C296.42 331.193 287.539 327.204 279.624 321.61C275.001 318.35 271.025 314.573 267.562 310.144C264.259 305.907 260.853 302.157 257.009 298.553L257.002 298.539C256.012 297.6 254.985 296.669 253.928 295.751C253.701 295.555 253.664 295.315 253.744 295.104L253.748 295.095C253.857 294.804 254.222 294.607 254.599 294.835Z" fill="#3899A9"/>
<path d="M282.569 230.967C282.748 231.135 282.929 231.302 283.099 231.467C288.411 236.432 293.195 241.138 296.641 247.667C300.045 254.122 302.047 261.251 302.391 268.504C302.755 276.47 300.893 284.377 300.189 292.283C299.749 297.285 299.756 302.142 300.366 307.002L300.363 307.012C300.618 309.037 300.973 311.043 301.444 313.079C299.781 309.78 298.1 306.463 296.451 303.158L296.439 303.13C291.85 293.856 287.565 284.454 284.684 274.494C280.727 260.789 280.235 247.115 282.048 233.142L282.052 233.132C282.145 232.303 282.259 231.479 282.387 230.651C282.414 230.762 282.455 230.869 282.569 230.967Z" fill="#3899A9"/>
<path d="M252.619 268.195C271.686 279.468 287.834 294.819 299.77 313.243L299.859 313.287L299.868 313.291C300.875 313.725 301.879 314.168 302.896 314.607C302.994 314.654 303.078 314.708 303.145 314.777C303.315 314.941 303.383 315.159 303.372 315.371L303.368 315.381C303.328 315.856 302.912 316.284 302.352 316.046C301.773 315.802 301.196 315.546 300.62 315.292C291.109 311.13 281.763 306.528 274.687 298.805C266.622 290.019 259.702 279.978 252.697 270.349L252.674 270.318C252.379 269.904 252.073 269.486 251.777 269.071L251.728 268.986C251.423 268.442 252.039 267.859 252.619 268.195Z" fill="#3899A9"/>
<path d="M327.39 325.635C332.937 313.44 344.067 304.173 344.478 290.043C344.486 289.591 345.007 289.565 345.242 289.831C345.292 289.884 345.342 289.936 345.37 290.014C345.96 291.889 346.441 293.746 346.778 295.585C347.129 297.327 347.36 299.048 347.467 300.758C347.973 308.104 346.371 315.197 342.086 322.029C335.845 331.948 326.598 339.911 322.09 350.801C322.028 351.79 322.061 352.78 322.261 353.693L322.267 353.708L322.273 353.72C322.438 354.543 322.716 355.28 323.188 355.964C323.453 356.367 322.886 356.855 322.587 356.45C321.819 355.444 321.414 354.307 321.227 353.114L321.163 353.284L321.103 353.41C321.046 353.502 320.961 353.574 320.867 353.608C320.465 353.781 319.862 353.413 320.041 352.876C320.248 352.268 320.46 351.675 320.69 351.1C320.837 350.71 321.005 350.327 321.158 349.951C321.352 347.782 321.918 345.577 322.249 343.629C323.306 337.487 324.793 331.342 327.39 325.635Z" fill="#3899A9"/>
<path d="M262.722 321.913L262.882 321.949C275.329 327.791 287.452 334.278 299.12 341.509C306.567 346.103 314.201 350.753 320.878 356.432L321.035 356.568L321.051 356.586L321.058 356.599C322.072 357.445 323.05 358.324 324.003 359.239C324.104 359.276 324.206 359.313 324.315 359.364C324.956 360.37 325.596 361.341 326.231 362.3C325.565 361.887 324.868 361.52 324.147 361.19C324.069 361.15 323.991 361.11 323.91 361.081C323.297 360.801 322.666 360.537 322.023 360.305L321.422 360.085L321.286 360.047C316.921 358.529 312.076 357.757 307.951 356.371C302.032 354.391 296.232 351.851 291.14 348.237C282.116 341.865 275.449 332.94 266.935 326.013L266.88 325.971C265.472 324.822 264.01 323.722 262.467 322.707C262.118 322.467 262.348 321.891 262.722 321.913Z" fill="#3899A9"/>
<path d="M327.378 366.24C326.644 365.175 325.906 364.093 325.163 362.98C324.94 362.649 324.728 362.322 324.509 361.98C324.305 361.691 324.109 361.38 323.91 361.08C323.861 360.995 323.798 360.915 323.743 360.816L323.733 360.812C323.563 360.557 323.392 360.302 323.226 360.037C322.51 358.924 321.792 357.787 321.054 356.609L321.058 356.599L321.052 356.586L321.035 356.568C320.986 356.482 320.928 356.393 320.868 356.303C318.168 351.944 315.352 347.09 312.56 341.778L312.543 341.76L312.525 341.719C312.227 341.156 311.929 340.593 311.639 340.011L311.633 339.996L311.626 339.984L311.62 339.969L311.613 339.956L311.596 339.938C311.558 339.856 311.51 339.77 311.471 339.688C311.141 339.057 310.822 338.43 310.5 337.777C307.047 330.929 303.666 323.402 300.62 315.292C300.471 314.919 300.332 314.55 300.196 314.171L300.187 314.167C300.141 314.014 300.08 313.867 300.023 313.71C299.973 313.566 299.923 313.424 299.868 313.291L299.859 313.287C298.666 309.999 297.518 306.626 296.451 303.158L296.439 303.13C293.401 293.337 290.933 282.831 289.385 271.762C289.288 271.075 289.786 270.44 290.487 270.349C291.185 270.258 291.823 270.74 291.917 271.424C292.375 274.734 292.923 277.995 293.549 281.196L293.548 281.229C295.306 290.293 297.651 298.909 300.366 307.002L300.363 307.012C301.254 309.655 302.178 312.242 303.145 314.777C303.21 314.971 303.296 315.173 303.372 315.371L303.368 315.381C305.543 321.071 307.876 326.466 310.268 331.52L310.428 331.862C310.739 332.51 311.046 333.143 311.351 333.778C311.615 334.305 311.869 334.83 312.116 335.341C314.96 341.071 317.861 346.343 320.69 351.1C320.787 351.272 320.894 351.447 320.996 351.608C321.074 351.739 321.152 351.87 321.231 352.001C321.579 352.582 321.921 353.15 322.261 353.693L322.267 353.708L322.273 353.72C323.333 355.459 324.373 357.123 325.39 358.697C326.035 359.693 326.666 360.661 327.304 361.61C327.933 362.554 328.555 363.485 329.178 364.382C329.529 364.897 329.88 365.41 330.227 365.9C330.303 366.007 330.368 366.111 330.444 366.218L330.459 366.24H327.378Z" fill="#27425A"/>
<path d="M269.861 285.492C279.194 296.067 289.875 305.338 301.715 313.136C302.999 313.982 301.663 315.936 300.38 315.091C288.376 307.185 277.52 297.767 268.059 287.045C267.047 285.899 268.85 284.346 269.861 285.492Z" fill="#27425A"/>
<path d="M279.341 314.535C290.75 322.707 302.16 330.878 313.57 339.05C314.816 339.943 313.484 341.9 312.235 341.005C300.825 332.834 289.415 324.662 278.006 316.49C276.759 315.598 278.092 313.641 279.341 314.535Z" fill="#27425A"/>
<path d="M284.793 336.808C298.969 343.714 312.669 351.498 325.829 360.123C327.116 360.966 325.779 362.919 324.494 362.077C311.334 353.454 297.634 345.67 283.458 338.764C282.076 338.09 283.428 336.144 284.793 336.808Z" fill="#27425A"/>
<path d="M310.462 337.555C310.063 329.016 313.687 321.217 317.606 313.805C322.326 304.876 326.493 296.364 326.789 286.118C326.833 284.605 329.226 284.786 329.182 286.298C328.918 295.424 325.767 303.473 321.53 311.49C317.168 319.744 312.406 328.141 312.854 337.737C312.925 339.244 310.531 339.053 310.462 337.555Z" fill="#27425A"/>
<path d="M319.845 353.54C321.564 345.577 325.053 338.22 328.912 331.059C333.216 323.071 337.691 315.169 342.09 307.23C342.828 305.898 344.815 307.218 344.084 308.539C339.852 316.178 335.567 323.792 331.396 331.463C327.442 338.739 323.862 346.204 322.112 354.31C321.793 355.79 319.529 355.005 319.845 353.54Z" fill="#27425A"/>
<path d="M344.964 344.099C339.294 350.99 334.085 357.757 331.36 366.24H328.853C331.334 357.941 336.096 351.134 341.601 344.447C347.216 337.629 352.987 330.706 354.897 321.926C355.218 320.447 357.482 321.232 357.164 322.695C355.374 330.926 350.25 337.674 344.964 344.099Z" fill="#27425A"/>
<path d="M410.907 362.98H326.488C320.045 362.98 316.199 357.859 317.899 351.543L382.067 113.096C383.767 106.779 390.369 101.659 396.813 101.659H481.232C487.676 101.659 491.522 106.779 489.822 113.096L425.653 351.543C423.953 357.859 417.352 362.98 410.907 362.98Z" fill="#36414A"/>
<path d="M410.116 353.391H329.069C322.625 353.391 318.779 348.271 320.479 341.953L382.067 113.096C383.767 106.779 390.369 101.659 396.813 101.659H477.859C484.304 101.659 488.15 106.779 486.45 113.096L424.861 341.953C423.161 348.271 416.559 353.391 410.116 353.391Z" fill="#607783"/>
<path d="M475.823 106.169H392.164C388.48 106.169 384.705 109.096 383.733 112.708L319.356 351.931C318.384 355.541 320.583 358.469 324.267 358.469H407.926C411.61 358.469 415.385 355.541 416.356 351.931L480.734 112.708C481.706 109.096 479.507 106.169 475.823 106.169Z" fill="#EDF0F1"/>
<path d="M426.899 108.39C430.166 108.448 427.729 115.245 424.461 115.187C421.194 115.128 423.631 108.331 426.899 108.39Z" fill="#36414A"/>
<path d="M210.295 198.096L215.965 213.111L237.48 208.894L238.466 212.594L238.769 213.73L215.786 223.532C211.222 225.479 206.271 221.69 207.093 216.877L210.295 198.096Z" fill="#FABEB3"/>
<path d="M207.093 216.877L210.295 198.096L213.048 205.384C211.556 210.221 210.481 215.07 211.479 220.257C210.975 220.184 210.47 220.097 209.958 219.981C210.47 220.097 210.975 220.184 211.479 220.257C211.512 220.429 211.54 220.602 211.578 220.775C211.54 220.602 211.512 220.429 211.479 220.257C221.092 221.636 229.5 215.714 238.466 212.594L238.769 213.73L215.786 223.532C211.222 225.479 206.271 221.69 207.093 216.877Z" fill="#F79984"/>
<path d="M246.357 204.659L250.522 207.244L246.357 212.559L242.925 214.077L238.769 213.73L237.48 208.894L246.357 204.659Z" fill="#F79984"/>
<path d="M238.466 212.594L240.9 211.536C242.481 210.716 243.688 209.343 244.28 207.689L244.753 206.367L249.454 204.229C249.76 204.09 249.92 203.755 249.833 203.435C249.732 203.065 249.339 202.849 248.964 202.958L242.735 203.793C241.214 203.997 239.873 204.876 239.099 206.175L237.48 208.894L238.466 212.594Z" fill="#FABEB3"/>
<path d="M228.529 145.498C229.003 150.917 225.367 156.428 220.132 158.227C217.512 159.127 214.365 159.32 212.639 161.449C211.014 163.452 211.365 166.303 211.529 168.857C211.693 171.41 211.294 174.468 208.982 175.655C207.381 176.478 205.582 176.053 203.755 175.628C202.248 175.277 200.722 174.926 199.274 175.277C196.111 176.043 194.741 179.733 194.589 182.923C194.436 186.111 194.938 189.505 193.441 192.34C191.98 195.108 188.83 196.729 185.675 197.115C182.521 197.502 179.335 196.826 176.271 195.993C172.527 194.975 168.793 193.684 165.634 191.465C162.475 189.246 159.922 185.982 159.306 182.221C158.69 178.459 160.332 174.251 163.739 172.419C165.733 171.346 168.322 170.99 169.553 169.116C170.859 167.131 169.944 164.526 169.045 162.334C168.145 160.143 167.347 157.462 168.806 155.584C171.457 152.17 178.217 155.286 180.866 151.871C181.894 150.546 181.829 148.733 181.925 147.071C182.392 139.017 188.176 131.502 195.949 128.853C201.103 127.095 206.923 127.548 211.842 129.802C214.355 130.952 216.052 132.994 218.369 134.293C220.591 135.54 222.78 135.913 224.711 137.777C226.83 139.823 228.273 142.577 228.529 145.498Z" fill="#BE2E22"/>
<path d="M163.739 172.419C165.733 171.346 168.322 170.99 169.553 169.116C170.859 167.131 169.944 164.526 169.045 162.334C168.145 160.143 167.347 157.462 168.806 155.584C171.457 152.17 178.217 155.286 180.866 151.871C181.894 150.546 181.829 148.733 181.925 147.071C182.389 139.06 188.116 131.588 195.826 128.9C190.742 132.106 186.877 137.347 185.513 143.101C185.049 145.064 184.936 147.077 184.983 149.086C185.048 151.903 186.863 155.456 183.181 156.771C180.592 157.696 177.767 157.357 175.781 159.65C174.618 160.991 174.642 162.612 175.15 164.217C175.646 165.784 175.958 167.14 175.381 168.746C174.823 170.295 173.708 171.681 172.59 172.882C171.565 173.981 170.545 175.127 170.498 176.698C170.452 178.226 171.27 179.784 172.319 180.872C174.308 182.932 177.479 183.925 180.27 184.337C182.891 184.726 185.501 184.445 187.558 182.679C189.481 181.027 190.462 178.506 191.371 176.236C191.887 174.944 192.346 173.676 193.432 172.724C194.372 171.902 195.57 171.47 196.776 171.175C199.609 170.48 202.897 170.795 205.531 169.48C207.885 168.305 208.301 165.83 208.192 163.481C208.087 161.232 207.552 158.486 209.629 156.906C210.73 156.068 212.137 155.734 213.472 155.45C214.865 155.155 216.254 154.828 217.611 154.398C220.573 153.459 223.396 152.004 225.28 149.504C226.947 147.291 227.454 144.572 227.256 141.867C227.236 141.595 227.205 141.32 227.172 141.045C227.908 142.429 228.392 143.938 228.529 145.498C229.003 150.917 225.367 156.428 220.132 158.227C217.513 159.127 214.365 159.32 212.639 161.449C211.014 163.452 211.365 166.303 211.529 168.857C211.693 171.41 211.294 174.468 208.982 175.655C207.381 176.478 205.582 176.053 203.755 175.628C202.248 175.277 200.722 174.926 199.274 175.277C196.111 176.043 194.741 179.733 194.589 182.923C194.436 186.111 194.938 189.505 193.441 192.34C191.98 195.108 188.83 196.729 185.675 197.115C182.521 197.502 179.335 196.826 176.271 195.993C172.527 194.975 168.793 193.684 165.634 191.465C162.475 189.246 159.922 185.982 159.306 182.221C158.69 178.459 160.332 174.251 163.739 172.419Z" fill="#8E2E1C"/>
<path d="M177.89 355.312L183.449 356.377L185.709 340.822L176.271 339.47L177.89 355.312Z" fill="#FABEB3"/>
<path d="M202.903 240.141L178.907 238.956L177.186 257.774L180.204 291.457L174.847 302.574L176.271 339.47L185.709 340.822L192.956 298.328L202.903 240.141Z" fill="#252D33"/>
<path d="M177.394 353.868L174.701 361.867L201.9 362.263L201.653 360.491L184.647 352.931L182.352 354.688L177.394 353.868Z" fill="white"/>
<path d="M163.494 354.874L169.404 356.006L172.076 339.47L162.284 338.634L163.494 354.874Z" fill="#FABEB3"/>
<path d="M166.13 239.336C173.619 239.928 181.089 240.751 188.525 241.809L179.703 294.796L172.076 339.47L162.284 338.634L161.074 311.755C160.672 303.703 163.106 295.76 167.967 289.258L162.028 269.919C160.834 267.934 158.759 255.896 160.109 244.215C160.451 241.257 163.102 239.096 166.13 239.336Z" fill="#33414B"/>
<path d="M162.965 353.337L160.103 361.843L189.018 362.263L188.755 360.379L170.677 352.341L168.237 354.21L162.965 353.337Z" fill="white"/>
<path d="M166.512 279.125C168.746 285.086 170.98 291.047 173.215 297.008C173.585 297.994 172.019 298.277 171.653 297.3C169.419 291.339 167.184 285.378 164.951 279.417C164.581 278.43 166.146 278.148 166.512 279.125Z" fill="#252D33"/>
<path d="M167.156 292.337C167.599 292.221 168.011 292.447 168.212 292.861L170.537 297.668C170.725 298.054 170.475 298.558 170.083 298.661C169.64 298.775 169.228 298.55 169.028 298.136C168.252 296.534 167.476 294.932 166.701 293.329C166.513 292.942 166.764 292.438 167.156 292.337Z" fill="#252D33"/>
<path d="M163.924 244.939C174.042 252.529 187.528 255.46 199.97 252.767C200.98 252.549 201.473 254.063 200.452 254.284C187.417 257.104 173.443 254.074 162.842 246.122C162.012 245.499 163.1 244.322 163.924 244.939Z" fill="#D1DADD"/>
<path d="M194.281 206.571C194.948 204.695 196.046 202.992 197.561 201.662C197.876 201.385 198.37 201.277 198.705 201.601C198.99 201.874 199.106 202.426 198.768 202.722C198.427 203.021 198.104 203.339 197.803 203.676C197.653 203.845 197.507 204.018 197.368 204.195C197.298 204.283 197.23 204.374 197.163 204.464L197.075 204.586L197.066 204.596L197.043 204.632C196.798 204.996 196.572 205.372 196.372 205.761C196.269 205.961 196.172 206.164 196.082 206.369C196.036 206.473 195.993 206.576 195.951 206.681L195.897 206.82L195.877 206.868L195.864 206.909C195.724 207.301 195.357 207.634 194.899 207.517C194.517 207.417 194.132 206.99 194.281 206.571Z" fill="#D1DADD"/>
<path d="M202.404 172.348C201.022 172.702 198.196 171.097 195.414 169.491C192.868 168.022 190.36 166.553 189.026 166.586C186.238 166.654 178.918 166.229 176.812 172.961C175.028 178.667 178.402 185.763 180.206 191.583C181.16 194.659 182.337 197.719 182.604 200.87C183.009 205.712 181.19 210.362 178.459 214.183C175.728 217.997 163.728 228.987 159.377 244.404C169.045 255.477 189.432 258.789 202.903 255.002C203.731 244.56 209.5 215.165 209.71 204.499C209.723 203.86 209.974 203.426 210.375 203.074C213.901 199.981 215.791 195.474 214.606 190.983C212.717 183.823 209.482 180.007 202.404 172.348Z" fill="white"/>
<path d="M209.709 212.578H209.032V204.542H209.709V212.578Z" fill="#E0C2BC"/>
<path d="M182.21 198.334C182.122 197.932 182.025 197.531 181.919 197.131C181.918 197.13 181.917 197.13 181.915 197.13C182.02 197.528 182.117 197.927 182.204 198.326C182.206 198.328 182.208 198.332 182.21 198.334Z" fill="#D8DAE8"/>
<path d="M181.92 197.131C181.438 195.298 180.797 193.481 180.23 191.66C180.797 193.481 181.436 195.297 181.916 197.13C181.918 197.13 181.919 197.13 181.92 197.131ZM180.226 191.648C180.223 191.641 180.222 191.633 180.219 191.627C180.222 191.633 180.223 191.641 180.226 191.648ZM180.216 191.615C180.213 191.605 180.21 191.594 180.206 191.583C180.21 191.595 180.213 191.605 180.216 191.615Z" fill="#B59587"/>
<path d="M204.992 218.462C206.117 218.221 207.224 217.956 208.301 217.658C208.573 215.927 208.822 214.225 209.033 212.578C209.413 209.393 209.664 206.631 209.709 204.562C209.709 204.557 209.709 204.55 209.709 204.545C209.709 204.543 209.709 204.542 209.709 204.542C209.71 204.527 209.71 204.513 209.71 204.499C209.723 203.86 209.974 203.426 210.375 203.074C211.938 201.702 213.178 200.051 213.973 198.248C212.205 198.517 210.448 198.646 208.711 198.646C199.461 198.646 190.806 194.971 184.206 189.043C183.705 188.594 183.125 188.398 182.559 188.398C181.052 188.398 179.653 189.79 180.176 191.488L180.206 191.583C180.21 191.594 180.213 191.605 180.216 191.615C180.217 191.619 180.218 191.623 180.219 191.627C180.222 191.633 180.223 191.641 180.226 191.648C180.227 191.652 180.228 191.656 180.23 191.66C180.797 193.481 181.438 195.298 181.92 197.131C182.026 197.531 182.123 197.932 182.21 198.334C183.177 199.703 184.091 201.109 185.019 202.505C186.949 205.409 189.021 208.041 191.683 210.34C194.278 212.582 197.144 214.507 200.191 216.109C201.753 216.929 203.363 217.718 204.992 218.462Z" fill="#E4E9EB"/>
<path d="M190.248 170.615C191.05 172.493 192.579 174.05 194.514 174.822C196.687 175.688 199.171 175.516 201.225 174.423C201.684 174.18 202.065 174.881 201.606 175.125C199.377 176.31 196.631 176.52 194.268 175.579C192.146 174.732 190.418 173.061 189.533 170.989C189.333 170.521 190.046 170.144 190.248 170.615Z" fill="#D1DADD"/>
<path d="M247.337 200.523L256.824 182.47L246.967 177.491L237.479 195.545L247.337 200.523Z" fill="#6EB82E"/>
<path d="M247.041 198.718L246.681 198.536L254.607 183.454L247.437 179.832L239.696 194.562L247.226 198.365L247.041 198.718L246.681 198.536L247.041 198.718L246.856 199.071L238.605 194.904L247.088 178.763L255.698 183.111L247.216 199.253L246.856 199.071L247.041 198.718Z" fill="#F2E0B4"/>
<path d="M249.57 190.106C250.267 188.781 249.735 187.153 248.383 186.47C247.032 185.787 245.372 186.308 244.674 187.633C243.978 188.958 244.51 190.586 245.862 191.269C247.214 191.952 248.874 191.43 249.57 190.106Z" fill="#F2E0B4"/>
<path d="M236.244 191.928L236.416 191.849C236.416 191.849 238.406 190.933 239.979 190.208C240.789 189.836 241.741 190.291 241.938 191.146C242.117 191.919 242.346 192.693 242.376 192.913C242.691 195.141 242.612 197.403 242.085 199.593C241.799 200.782 241.528 202.363 240.25 202.907C240.047 202.993 237.667 203.946 237.684 204L237.266 202.568L236.217 198.962L236.244 191.928Z" fill="#FABEB3"/>
<path d="M219.622 200.759L237.006 197.956L237.684 204.001L207.883 213.73L206.952 207.542L206.256 202.914L219.622 200.759Z" fill="#FABEB3"/>
<path d="M206.256 202.914L219.622 200.759L237.006 197.956L237.542 202.737C227.684 205.588 217.811 210.071 207.396 210.487L206.952 207.542L206.256 202.914Z" fill="#FABEB3"/>
<path d="M204.313 210.482C197.356 203.712 190.455 197.555 185.013 189.262C187.475 187.762 189.539 185.482 192.005 183.988L206.256 202.914L207.396 210.487C206.373 210.528 205.345 210.523 204.313 210.482Z" fill="#FABEB3"/>
<path d="M191.129 182.826L192.005 183.988C189.539 185.482 187.475 187.762 185.013 189.262C190.455 197.555 197.356 203.712 204.313 210.482C205.345 210.523 206.373 210.527 207.396 210.487C217.811 210.071 226.359 207.236 236.217 204.385L237.684 204.001L207.883 213.73C198.164 216.903 181.78 189.008 181.78 189.008L191.129 182.826Z" fill="#F79984"/>
<path d="M181.163 188.474C184.412 186.362 187.66 184.25 190.907 182.137C191.273 181.9 191.812 182.112 192.004 182.464C192.227 182.873 192.036 183.3 191.67 183.539L181.926 189.875C181.561 190.113 181.021 189.902 180.83 189.548C180.607 189.139 180.798 188.712 181.163 188.474Z" fill="#D1DADD"/>
<path d="M211.558 144.791C206.965 147.01 200.555 150.52 195.688 147.336C194.81 146.762 194.172 146.074 193.728 145.327C193.178 145.281 192.62 145.4 192.046 145.798C190.513 146.864 189.862 149.004 190.469 150.734C191.115 152.578 192.626 153.213 194.598 153.47C194.228 158.773 192.699 162.763 191.069 168.121C191.671 170.854 192.683 172.436 194.903 173.467C197.122 174.5 197.657 174.466 199.969 173.651C200.474 170.975 201.084 167.342 202.016 164.779C203.747 165.909 207.86 167.145 209.725 167.092C210.429 167.073 217.885 155.861 217.966 140.406C216.106 142.17 213.94 143.64 211.558 144.791Z" fill="#FABEB3"/>
<path d="M206.026 166.438C204.479 165.989 202.922 165.37 202.016 164.779C201.206 167.008 200.639 170.045 200.172 172.56L200.391 162.913L206.026 166.438Z" fill="#F79984"/>
<path d="M195.353 147.967C194.836 147.327 194.18 146.858 193.452 146.559C193.058 146.396 192.854 147.077 193.241 147.247C193.886 147.527 194.442 147.967 194.888 148.552C195.099 148.828 195.276 149.132 195.421 149.459C195.551 149.755 195.59 149.994 195.832 150.195C195.962 150.302 196.174 150.214 196.22 150.044C196.406 149.355 195.746 148.456 195.353 147.967Z" fill="#F79984"/>
<path d="M207.779 149.771C207.84 149.47 207.929 149.166 207.844 148.864C207.721 148.428 207.186 148.264 206.837 148.567C206.598 148.774 206.5 149.074 206.385 149.359C206.279 149.619 206.198 149.868 206.145 150.143C205.968 151.047 207.183 151.414 207.542 150.556C207.651 150.295 207.722 150.047 207.779 149.771Z" fill="#40261D"/>
<path d="M215.586 150.689C215.638 150.387 215.716 150.082 215.621 149.782C215.483 149.35 214.943 149.204 214.605 149.517C214.373 149.732 214.285 150.036 214.179 150.324C214.083 150.588 214.011 150.838 213.966 151.116C213.821 152.025 215.047 152.352 215.376 151.482C215.477 151.218 215.54 150.968 215.586 150.689Z" fill="#40261D"/>
<path d="M209.795 160.378C207.854 159.711 206.023 158.747 204.378 157.537C205.622 159.217 207.497 160.14 209.454 160.771C209.561 160.634 209.672 160.502 209.795 160.378Z" fill="white"/>
<path d="M204.378 157.537C204.296 157.476 204.211 157.418 204.13 157.356C204.102 157.732 204.116 158.115 204.165 158.494C204.276 159.353 204.589 160.187 205.152 160.837C205.963 161.774 207.153 162.391 208.402 162.501C208.615 162.123 208.822 161.73 209.052 161.356C209.177 161.153 209.31 160.958 209.454 160.771C207.497 160.14 205.622 159.217 204.378 157.537Z" fill="#B51D24"/>
<path d="M210.308 144.043C208.304 143.483 206.271 143.658 204.398 144.554C203.952 144.768 204.312 145.438 204.759 145.223C206.444 144.417 208.266 144.259 210.071 144.764C210.548 144.898 210.785 144.178 210.308 144.043Z" fill="#BE2E22"/>
<path d="M217.137 146.73C216.75 145.967 216.084 145.402 215.266 145.123C214.795 144.964 214.559 145.685 215.027 145.844C215.663 146.06 216.156 146.494 216.455 147.083C216.675 147.52 217.359 147.166 217.137 146.73Z" fill="#BE2E22"/>
<path d="M210.937 158.154C211.393 157.884 211.965 157.939 212.473 157.872C212.764 157.834 213.189 157.722 213.312 157.43C213.391 157.241 213.275 157.02 213.203 156.845C213.096 156.581 212.987 156.318 212.881 156.054C212.669 155.525 212.44 155.002 212.29 154.453C212.188 154.083 212.732 153.867 212.924 154.201C213.249 154.767 213.488 155.377 213.744 155.976C213.976 156.521 214.343 157.136 214.085 157.733C213.883 158.199 213.407 158.482 212.923 158.607C212.642 158.679 212.343 158.691 212.054 158.712C211.767 158.735 211.506 158.793 211.229 158.862C210.793 158.968 210.556 158.38 210.937 158.154Z" fill="#40261D"/>
<path d="M236.678 191.307C239.526 189.418 242.727 188.068 246.08 187.321C247.098 187.095 247.467 188.642 246.45 188.868C243.222 189.587 240.182 190.89 237.441 192.709C237.078 192.949 236.536 192.732 236.345 192.382C236.121 191.969 236.315 191.548 236.678 191.307Z" fill="#FABEB3"/>
<path d="M240.663 191.938C242.194 190.6 244.131 189.712 246.169 189.468C246.589 189.418 247.057 189.608 247.143 190.061C247.217 190.446 246.989 190.961 246.54 191.015C246.087 191.069 245.638 191.152 245.197 191.27C244.701 191.402 244.427 191.498 243.987 191.694C243.113 192.081 242.44 192.512 241.764 193.103C241.446 193.38 240.905 193.391 240.619 193.059C240.339 192.737 240.325 192.233 240.663 191.938Z" fill="#FABEB3"/>
<path d="M241.251 194.174C242.578 192.933 244.231 192.048 246.01 191.615C246.421 191.515 246.903 191.79 246.984 192.208C247.065 192.636 246.82 193.055 246.379 193.162C246.178 193.211 245.977 193.265 245.778 193.326C245.683 193.356 245.591 193.386 245.499 193.417L245.36 193.466H245.358L245.351 193.47C244.966 193.63 244.587 193.792 244.22 193.99C244.048 194.082 243.88 194.18 243.714 194.282C243.63 194.334 243.548 194.386 243.467 194.44L243.339 194.526L243.305 194.551C242.972 194.795 242.652 195.056 242.35 195.339C242.043 195.627 241.486 195.619 241.206 195.295C240.919 194.964 240.923 194.48 241.251 194.174Z" fill="#FABEB3"/>
<path d="M240.764 197.731C242.124 196.124 243.84 194.936 245.841 194.218C246.24 194.075 246.74 194.424 246.814 194.809C246.903 195.276 246.638 195.611 246.211 195.765L246.173 195.777L246.162 195.781L246.024 195.836C245.92 195.877 245.818 195.92 245.715 195.965C245.511 196.054 245.309 196.15 245.11 196.251C244.703 196.46 244.311 196.698 243.932 196.954L243.928 196.956L243.919 196.964L243.769 197.073C243.68 197.139 243.592 197.207 243.505 197.276C243.331 197.415 243.162 197.557 242.997 197.706C242.832 197.854 242.673 198.008 242.517 198.166C242.44 198.246 242.364 198.326 242.289 198.408L242.19 198.517C242.183 198.525 242.028 198.705 242.13 198.585C241.86 198.903 241.4 199.094 241.011 198.827C240.688 198.606 240.475 198.072 240.764 197.731Z" fill="#FABEB3"/>
<path d="M273.603 211.749L263.273 212.404L257.07 207.71H255.368L259.088 203.465L263.959 202.661L273.603 209.209V211.749Z" fill="#F79984"/>
<path d="M273.603 209.209L270.047 208.411C267.67 207.877 265.587 206.485 264.212 204.511L263.113 202.932L256.152 201.741C255.698 201.664 255.368 201.277 255.368 200.826C255.368 200.304 255.808 199.884 256.34 199.898L264.846 198.845C266.922 198.588 269.005 199.281 270.491 200.726L273.603 203.748V209.209Z" fill="#FABEB3"/>
<path d="M319.004 351.249H329.497L329.561 347.523H318.922L319.004 351.249Z" fill="#FABEB3"/>
<path d="M300.797 359.017L318.724 351.249H330.311L332.21 360.841H299.745L300.797 359.017Z" fill="#C57115"/>
<path d="M332.21 360.841L332.51 362.356H298.873L299.745 360.841H332.21Z" fill="white"/>
<path d="M369.724 277.794V236.335L364.135 238.438C360.72 239.723 359.002 243.468 360.288 246.825C361.172 249.131 360.435 251.732 358.465 253.262L315.896 286.323C313.95 287.834 312.877 290.179 313.02 292.609L316.241 347.522H333.442L335.264 300.438L369.724 277.794Z" fill="#252D33"/>
<path d="M368.176 238.956L368.031 253.37L340.977 283.068C338.947 285.299 337.846 288.197 337.896 291.186C338.002 297.467 341.924 303.079 347.861 305.445L390.2 322.309L396.023 304.202L360.371 290.776L379.508 283.107C394.371 277.15 404.084 262.972 404.084 247.23L368.176 238.956Z" fill="#33414B"/>
<path d="M349.612 291.457C355.694 291.014 361.63 289.304 367.014 286.504C367.938 286.024 368.673 287.439 367.752 287.918C362.097 290.858 355.901 292.579 349.521 293.043C348.485 293.118 348.585 291.532 349.612 291.457Z" fill="#252D33"/>
<path d="M355.453 294.057L359.513 291.615C359.874 291.397 360.412 291.491 360.629 291.866C360.844 292.238 360.758 292.729 360.372 292.961L356.312 295.403C355.951 295.62 355.413 295.527 355.195 295.151C354.981 294.779 355.067 294.289 355.453 294.057Z" fill="#252D33"/>
<path d="M338.341 193.717C336.173 190.084 333.99 186.656 330.267 188.87C324.475 192.313 319.126 194.687 312.274 197.203L319.077 211.772C325.902 209.996 333.838 208.975 340.042 205.286C343.748 203.084 340.556 197.429 338.341 193.717Z" fill="#C57115"/>
<path d="M304.711 201.402L311.968 198.096C313.574 202.906 315.94 207.301 319.271 211.078L305.44 215.311L273.603 211.749V203.748L304.711 201.402Z" fill="#FABEB3"/>
<path d="M306.787 212.625L273.603 209.519V203.748L304.711 201.402L311.263 198.417C311.49 202.674 312.712 206.443 314.938 209.721L306.787 212.625Z" fill="#FABEB3"/>
<path d="M306.787 212.625L314.938 209.721C312.712 206.443 311.49 202.674 311.263 198.417L312.274 197.956L312.593 197.822C313.706 202.562 315.621 207.264 319.172 211.108L305.44 215.311L273.603 211.749V209.519L306.787 212.625Z" fill="#F79984"/>
<path d="M312.833 197.253C314.332 202.131 316.612 206.72 319.599 210.888C320.199 211.725 318.835 212.581 318.236 211.745C315.173 207.471 312.823 202.727 311.286 197.725C310.986 196.748 312.532 196.271 312.833 197.253Z" fill="#F88A10"/>
<path d="M359.42 242.979C358.965 239.801 357.92 236.722 356.717 233.748C351.874 221.769 344.959 210.139 335.976 200.693C333.065 197.631 329.885 194.84 326.452 192.385C335.628 183.123 350.446 174.976 364.941 171.911C370.964 170.637 377.022 173.913 379.176 179.572L390.2 192.937C405.893 211.961 410.478 237.569 402.333 260.694V260.695C383.733 248.293 363.702 246.661 359.431 248.084C359.731 246.412 359.662 244.669 359.42 242.979Z" fill="#C57115"/>
<path d="M376.826 239.105C383.494 239.835 390.043 241.441 396.205 244.186C401.773 219.625 388.204 197.411 372.454 179.052C370.205 176.429 374.068 172.913 376.49 175.382C377.64 176.554 378.565 177.966 379.175 179.572L390.2 192.937C405.893 211.961 410.478 237.569 402.333 260.694V260.695C400.68 259.594 399.016 258.58 397.354 257.643C397.001 255.752 396.386 253.906 395.395 252.126C391.922 244.751 383.903 243.456 376.356 241.581C374.806 241.196 375.237 238.931 376.826 239.105Z" fill="#9F5B0F"/>
<path d="M362.416 242.643C367.478 242.391 372.507 243.242 377.208 245.089C378.174 245.468 377.393 246.86 376.434 246.484C372.005 244.744 367.226 243.993 362.465 244.231C361.424 244.282 361.374 242.694 362.416 242.643Z" fill="#9F5B0F"/>
<path d="M340.468 204.834C349.028 213.959 355.343 225.03 358.751 236.974C359.72 240.372 360.442 243.831 360.94 247.325C361.084 248.336 359.465 248.397 359.321 247.391C357.617 235.45 352.989 223.961 345.968 214.065C343.962 211.237 341.763 208.551 339.386 206.016C338.685 205.269 339.762 204.082 340.468 204.834Z" fill="#F88A10"/>
<path d="M392.437 228.419C392.437 228.419 387.069 230.765 383.468 232.674C382.346 236.623 385.326 240.364 388.647 242.051C391.337 243.417 394.767 243.26 397.316 241.654C399.865 240.048 401.435 237.053 401.284 234.087L392.437 228.419Z" fill="#FABEB3"/>
<path d="M376.286 243.291C377.017 238.691 379.873 234.736 383.989 232.439C385.67 231.503 387.194 234.036 385.514 234.974C382.008 236.93 379.801 240.168 379.183 244.062C378.887 245.927 375.992 245.147 376.286 243.291Z" fill="#FABEB3"/>
<path d="M379.707 245.535C380.437 240.936 383.294 236.979 387.409 234.684C389.09 233.747 390.614 236.28 388.934 237.217C385.428 239.173 383.221 242.411 382.603 246.305C382.307 248.17 379.412 247.391 379.707 245.535Z" fill="#FABEB3"/>
<path d="M384.045 246.723C384.776 242.123 387.632 238.167 391.748 235.871C393.428 234.933 394.953 237.467 393.273 238.404C389.767 240.36 387.56 243.598 386.942 247.492C386.646 249.358 383.751 248.578 384.045 246.723Z" fill="#FABEB3"/>
<path d="M388.563 246.704C389.292 242.105 392.149 238.149 396.266 235.853C397.946 234.916 399.47 237.45 397.79 238.386C394.284 240.342 392.077 243.58 391.459 247.475C391.163 249.34 388.269 248.56 388.563 246.704Z" fill="#FABEB3"/>
<path d="M392.437 228.419L403.381 197.685L371.969 186.723L378.568 172.964L419.165 186.063C421.683 186.875 422.901 189.67 421.76 192.014L401.284 234.087L392.437 228.419Z" fill="#FABEB3"/>
<path d="M371.969 186.723L378.568 172.964L389.924 176.628C390.251 181.013 390.4 185.354 389.148 189.355C394.846 192.45 401.667 194.797 407.769 196.521C405.317 198.157 403.394 200.082 401.76 202.238L403.381 197.685L371.969 186.723Z" fill="#F79984"/>
<path d="M407.769 196.521C401.667 194.797 394.846 192.45 389.148 189.355C390.4 185.354 390.251 181.013 389.924 176.628L419.165 186.063C421.683 186.875 422.901 189.67 421.76 192.014L401.284 234.087L392.437 228.419L401.76 202.238C403.394 200.082 405.317 198.157 407.769 196.521Z" fill="#FABEB3"/>
<path d="M394.31 194.618C387.121 191.892 380.36 190.099 372.522 188.595C368.229 187.771 364.668 183.609 365.687 178.991C366.646 174.642 363.2 171.987 367.875 171.637C379.717 170.751 391.638 175.428 399.392 178.257C398.927 183.818 397.18 189.543 394.31 194.618Z" fill="#C57115"/>
<path d="M399.685 178.581C399.102 184.224 397.291 189.662 394.365 194.555C393.837 195.438 392.474 194.58 393.001 193.699C395.783 189.048 397.512 183.863 398.066 178.497C398.172 177.485 399.791 177.561 399.685 178.581Z" fill="#F88A10"/>
<path d="M332.397 157.001C329.383 155.664 327.711 152.424 328.023 149.397C328.337 146.371 330.401 143.634 333.117 141.85C335.834 140.065 339.149 139.152 342.474 138.74C345.275 138.393 348.161 138.385 350.895 139.036C352.283 139.367 353.722 139.942 354.43 141.073C355.138 142.204 354.658 143.971 353.258 144.258C354.428 144.073 355.695 144.664 356.209 145.635C356.721 146.606 356.435 147.87 355.541 148.58C356.892 148.452 358.29 149.183 358.843 150.307C359.394 151.432 359.058 152.862 358.048 153.685C359.428 154.13 359.994 155.716 359.684 157.013C359.375 158.311 358.431 159.395 357.572 160.47C355.399 163.189 353.606 166.157 352.251 169.282C350.248 168.582 348.364 167.605 346.682 166.396" fill="#362315"/>
<path d="M331.131 149.682C332.884 149.348 334.638 149.463 336.412 149.668C337.92 149.843 342.535 150.818 342.535 150.818C343.633 153.965 344.171 156.055 346.76 158.204C347.006 158.409 347.281 158.621 347.603 158.629C348.034 158.64 348.509 158.316 348.92 158.197C349.5 158.027 350.068 157.819 350.634 157.604C352.407 156.933 354.336 155.988 356.071 157.256C357.514 158.311 357.898 160.452 357.081 162.026C356.265 163.599 354.436 164.544 352.636 164.531C351.917 169.542 352.061 171.386 352.834 176.389C351.945 178.764 349.656 181.729 347.534 182.38C345.412 183.032 343.012 183.05 341.044 182.035C340.935 179.573 340.695 177.171 340.188 174.758C338.522 175.033 336.732 175.117 335.067 174.84C334.434 174.735 333.766 174.566 333.343 174.094C333.027 173.739 332.895 173.264 332.775 172.808C330.838 165.511 330.354 157.372 331.131 149.682Z" fill="#FABEB3"/>
<path d="M341.044 182.035C340.935 179.573 340.695 177.171 340.188 174.758C339.255 174.912 338.286 175.002 337.32 175.006C339.489 174.62 340.995 173.803 342.764 173.309C342.466 176.501 341.515 182.278 341.044 182.035Z" fill="#F79984"/>
<path d="M352.994 159.582C353.539 159.072 354.187 158.732 354.877 158.554C355.252 158.457 355.348 159.092 354.979 159.195C354.365 159.368 353.81 159.693 353.336 160.162C353.111 160.385 352.913 160.635 352.742 160.91C352.586 161.159 352.522 161.369 352.279 161.519C352.148 161.6 351.969 161.494 351.951 161.337C351.873 160.695 352.578 159.971 352.994 159.582Z" fill="#F79984"/>
<path d="M339.656 157.155C339.64 156.878 339.599 156.595 339.714 156.334C339.88 155.958 340.381 155.878 340.655 156.192C340.842 156.407 340.892 156.688 340.959 156.957C341.02 157.204 341.06 157.437 341.073 157.69C341.115 158.522 339.98 158.701 339.768 157.888C339.703 157.641 339.672 157.409 339.656 157.155Z" fill="#40261D"/>
<path d="M331.556 156.499C331.611 156.227 331.644 155.943 331.823 155.719C332.08 155.396 332.585 155.442 332.769 155.814C332.895 156.069 332.87 156.353 332.866 156.63C332.862 156.883 332.841 157.118 332.788 157.368C332.615 158.183 331.471 158.076 331.475 157.237C331.475 156.981 331.505 156.749 331.556 156.499Z" fill="#40261D"/>
<path d="M340.467 169.802C339.055 169.921 337.759 170.397 336.604 171.201C336.297 171.414 336.666 171.858 336.972 171.645C338.045 170.898 339.246 170.477 340.556 170.368C340.931 170.336 340.84 169.771 340.467 169.802Z" fill="#F79984"/>
<path d="M333.619 151.293C332.616 150.649 330.797 151.629 330.29 152.547C330.112 152.869 330.492 153.343 330.853 153.239C331.339 153.1 331.759 152.826 332.235 152.662C332.695 152.504 333.279 152.501 333.641 152.162C333.888 151.932 333.942 151.501 333.619 151.293Z" fill="#362315"/>
<path d="M342.35 152.346C341.384 151.213 339.233 150.904 337.816 151.002C337.141 151.049 337.223 152.025 337.837 152.123C338.583 152.242 339.305 152.329 340.031 152.557C340.647 152.75 341.27 153.06 341.915 153.124C342.332 153.164 342.628 152.672 342.35 152.346Z" fill="#362315"/>
<path d="M341.607 163.367C339.255 164.687 336.686 165.632 334.029 166.155C334.337 166.565 334.572 167.023 334.779 167.496C337.159 167.035 339.443 166.155 341.361 164.776C341.489 164.313 341.575 163.839 341.607 163.367Z" fill="#F6F6F7"/>
<path d="M334.779 167.496C334.999 168.001 335.185 168.525 335.382 169.032C336.954 169.108 338.542 168.544 339.717 167.518C340.534 166.807 341.07 165.824 341.361 164.775C339.443 166.155 337.159 167.034 334.779 167.496Z" fill="#B51D24"/>
<path d="M352.776 175.869C351.812 181.237 346.411 184.062 341.299 181.952C340.441 181.598 340.066 182.973 340.914 183.323C346.729 185.721 353.081 182.333 354.173 176.247C354.334 175.353 352.938 174.97 352.776 175.869Z" fill="#F88A10"/>
<path d="M327.485 136.862C329.453 137.885 331.405 138.95 333.325 140.069C333.43 139.974 333.535 139.879 333.641 139.776C337.448 136.195 343.101 134.615 348.261 135.702C353.413 136.782 357.916 140.49 359.893 145.286C361.667 149.597 361.602 155.132 358.929 158.879C359.026 158.959 359.115 159.046 359.212 159.134C359.974 159.84 358.864 160.999 358.103 160.293C353.332 155.878 348.261 151.789 342.931 148.073C339.44 145.627 335.844 143.349 332.142 141.229C330.352 140.197 328.546 139.212 326.707 138.259C325.784 137.783 326.561 136.385 327.485 136.862Z" fill="#C57115"/>
<path d="M332.619 163.443C333.283 161.119 333.948 158.796 334.612 156.473C334.752 155.982 335.544 156.149 335.403 156.642C334.776 158.836 334.148 161.03 333.522 163.223C334.111 163.341 334.701 163.458 335.291 163.577C335.802 163.679 335.629 164.455 335.118 164.353C334.388 164.206 333.658 164.061 332.929 163.915C332.724 163.874 332.561 163.647 332.619 163.443Z" fill="#40261D"/>
<path d="M335.99 139.911C343.423 145.512 350.858 151.113 358.292 156.713C359.12 157.337 358.032 158.514 357.21 157.896C349.776 152.295 342.342 146.694 334.907 141.093C334.079 140.469 335.167 139.291 335.99 139.911Z" fill="#F88A10"/>
<path d="M287.373 217.92H223.361L225.583 255.438H285.152L287.373 217.92Z" fill="#F58810"/>
<path d="M225.583 255.438L223.361 266.23H287.373L285.152 255.438H225.583Z" fill="#C57115"/>
<path d="M246.299 223.043V214.987C246.299 210.362 249.795 206.311 254.492 205.878C259.884 205.38 264.435 209.542 264.435 214.726V223.043C264.435 223.444 264.766 223.77 265.175 223.77C265.584 223.77 265.916 223.444 265.916 223.043V215.025C265.916 209.464 261.565 204.673 255.898 204.399C249.84 204.106 244.818 208.851 244.818 214.726V223.043C244.818 223.444 245.15 223.77 245.559 223.77C245.968 223.77 246.299 223.444 246.299 223.043Z" fill="#252D33"/>
<path d="M251.274 208.282C251.54 207.895 251.436 207.371 251.042 207.111L247.699 204.898C247.305 204.638 246.77 204.739 246.504 205.124C246.238 205.51 246.342 206.035 246.736 206.296L250.079 208.508C250.474 208.769 251.008 208.667 251.274 208.282Z" fill="#FABEB3"/>
<path d="M250.189 209.799C250.455 209.413 250.351 208.889 249.958 208.628L246.614 206.415C246.22 206.155 245.685 206.257 245.419 206.642C245.154 207.028 245.257 207.552 245.651 207.813L248.995 210.026C249.388 210.287 249.923 210.184 250.189 209.799Z" fill="#FABEB3"/>
<path d="M248.742 211.463C249.008 211.077 248.904 210.553 248.51 210.292L245.167 208.08C244.773 207.818 244.238 207.921 243.972 208.306C243.706 208.692 243.81 209.216 244.204 209.477L247.547 211.69C247.942 211.95 248.476 211.849 248.742 211.463Z" fill="#FABEB3"/>
<path d="M247.666 212.879C247.931 212.493 247.828 211.969 247.434 211.708L244.523 209.781C244.129 209.521 243.594 209.622 243.328 210.008C243.062 210.395 243.166 210.919 243.56 211.179L246.471 213.106C246.864 213.367 247.4 213.265 247.666 212.879Z" fill="#FABEB3"/>
<path d="M384.139 334.6C389.112 319.56 394.085 304.521 399.059 289.482C399.696 287.552 402.853 288.282 402.207 290.233C397.234 305.272 392.26 320.311 387.288 335.35C386.649 337.281 383.494 336.55 384.139 334.6Z" fill="#528F75"/>
<path d="M401.244 281.542C401.939 279.652 402.633 277.762 403.328 275.873C403.475 275.47 403.659 275.138 404.042 274.902C404.384 274.692 404.892 274.593 405.286 274.705C406.055 274.923 406.784 275.787 406.477 276.624C405.782 278.514 405.087 280.404 404.393 282.294C404.245 282.696 404.061 283.028 403.678 283.264C403.337 283.474 402.828 283.573 402.435 283.461C401.667 283.242 400.936 282.379 401.244 281.542Z" fill="#528F75"/>
<path d="M416.174 234.533C418.119 228.187 420.065 221.841 422.01 215.495C422.607 213.547 425.762 214.28 425.159 216.246C423.214 222.592 421.268 228.938 419.323 235.284C418.725 237.233 415.571 236.499 416.174 234.533Z" fill="#528F75"/>
<path d="M254.21 207.839C253.72 207.423 253.668 206.696 254.094 206.217L257.701 202.146C258.127 201.667 258.868 201.616 259.356 202.033C259.846 202.449 259.897 203.175 259.473 203.655L255.864 207.725C255.439 208.204 254.698 208.255 254.21 207.839Z" fill="#FABEB3"/>
<path d="M257.187 209.332C256.698 208.916 256.646 208.189 257.07 207.71L260.679 203.64C261.104 203.16 261.845 203.11 262.334 203.526C262.823 203.943 262.875 204.669 262.45 205.148L258.842 209.218C258.417 209.698 257.675 209.748 257.187 209.332Z" fill="#FABEB3"/>
<path d="M259.691 211.025C259.202 210.607 259.151 209.881 259.576 209.402L263.184 205.332C263.608 204.852 264.349 204.801 264.838 205.217C265.328 205.634 265.379 206.361 264.954 206.839L261.346 210.91C260.921 211.39 260.181 211.441 259.691 211.025Z" fill="#FABEB3"/>
<path d="M261.619 212.518C261.13 212.101 261.078 211.375 261.503 210.896L264.645 207.351C265.069 206.872 265.81 206.822 266.3 207.238C266.788 207.655 266.841 208.381 266.415 208.86L263.273 212.404C262.849 212.883 262.108 212.934 261.619 212.518Z" fill="#FABEB3"/>
<path d="M514 362V368H3V362H514Z" fill="#36414A"/>
</g>
<rect x="513" y="362" width="98" height="6" fill="#36414A"/>
<rect y="362" width="109" height="6" fill="#36414A"/>
<defs>
<clipPath id="clip0_75_2044">
<rect width="405" height="397" fill="white" transform="matrix(-1 0 0 1 514 0)"/>
</clipPath>
</defs>
</svg>
