<svg width="164" height="45" viewBox="0 0 164 45" fill="none" xmlns="http://www.w3.org/2000/svg">
<path d="M26.25 10.5L29.4779 23.0427C29.5133 23.1801 29.5312 23.3225 29.5312 23.4656V45H19.0312V10.5H26.25Z" fill="#93573D"/>
<path d="M26.25 42.75C26.076 42.75 25.909 42.671 25.786 42.5303C25.6629 42.3897 25.5938 42.1989 25.5938 42V26.25C25.5938 26.0511 25.6629 25.8603 25.786 25.7197C25.909 25.579 26.076 25.5 26.25 25.5C26.424 25.5 26.591 25.579 26.714 25.7197C26.8371 25.8603 26.9062 26.0511 26.9062 26.25V42C26.9062 42.1989 26.8371 42.3897 26.714 42.5303C26.591 42.671 26.424 42.75 26.25 42.75Z" fill="#794832"/>
<path d="M22.9688 45H0V23.6193C1.63521e-05 23.374 0.0263256 23.1297 0.0783398 22.8917L3.28125 10.5H26.25L23.0471 22.8917C22.9951 23.1297 22.9688 23.374 22.9688 23.6193V45Z" fill="#AB6647"/>
<path d="M8.4341 39.75H7.31585C7.13561 39.75 6.9573 39.7076 6.79203 39.6254C6.62676 39.5432 6.47807 39.423 6.35524 39.2722C6.23241 39.1214 6.13807 38.9434 6.07809 38.7491C6.01812 38.5549 5.99379 38.3486 6.00663 38.1431L6.56248 29.25H9.18748L9.74332 38.1431C9.75617 38.3486 9.73184 38.5549 9.67186 38.7491C9.61189 38.9434 9.51754 39.1214 9.39471 39.2722C9.27188 39.423 9.1232 39.5432 8.95793 39.6254C8.79266 39.7076 8.61435 39.75 8.4341 39.75Z" fill="#E74444"/>
<path d="M15.6122 39.75H14.5754C14.392 39.75 14.2106 39.7061 14.043 39.6211C13.8754 39.5361 13.7252 39.4119 13.6022 39.2565C13.4791 39.1011 13.3859 38.918 13.3286 38.7189C13.2713 38.5199 13.2511 38.3093 13.2693 38.1007L13.7813 32.25H16.4063L16.9182 38.1007C16.9365 38.3093 16.9163 38.5199 16.859 38.7189C16.8016 38.918 16.7085 39.1011 16.5854 39.2565C16.4624 39.4119 16.3122 39.5361 16.1446 39.6211C15.9769 39.7061 15.7956 39.75 15.6122 39.75Z" fill="#E74444"/>
<path d="M2.625 6C1.90009 6 1.3125 7.00734 1.3125 8.25C1.3125 9.49266 1.90009 10.5 2.625 10.5H26.25V6H2.625Z" fill="#93573D"/>
<path d="M30.1875 7.94747C30.1875 8.38116 30.1128 8.81061 29.9676 9.21129C29.8224 9.61197 29.6095 9.97604 29.3412 10.2827C29.0728 10.5894 28.7543 10.8326 28.4037 10.9986C28.0531 11.1646 27.6773 11.25 27.2979 11.25H25.6846C25.6257 11.25 25.5685 11.2724 25.5221 11.3138L21.4266 14.9543C20.9632 15.3661 20.3765 15.553 19.7935 15.4743C19.2105 15.3957 18.6781 15.0579 18.3113 14.534C17.968 14.0435 17.795 13.4255 17.8254 12.7983C17.8558 12.1711 18.0874 11.5788 18.4761 11.1346L22.517 6.51638C22.554 6.47408 22.5793 6.42017 22.5895 6.36149C22.5997 6.3028 22.5945 6.24196 22.5744 6.18668C22.5544 6.13139 22.5205 6.08415 22.4769 6.05092C22.4334 6.01769 22.3822 5.99997 22.3298 6H10.5L17.0719 1.90312C17.4963 1.63858 17.9721 1.49997 18.4556 1.5H35.1729C35.243 1.50002 35.3103 1.5319 35.36 1.58861C35.4096 1.64532 35.4375 1.72223 35.4375 1.80244V7.19756C35.4375 7.27777 35.4096 7.35468 35.36 7.41139C35.3103 7.4681 35.243 7.49998 35.1729 7.5H30.5791C30.5277 7.49999 30.4768 7.51155 30.4293 7.53404C30.3817 7.55652 30.3386 7.58948 30.3022 7.63103C30.2658 7.67258 30.237 7.72191 30.2173 7.77621C30.1976 7.8305 30.1875 7.8887 30.1875 7.94747Z" fill="#F5CBAA"/>
<path d="M32.8125 0H38.0625V9.75H32.8125V0Z" fill="#155384"/>
<path d="M22.9688 45L26.25 41.25L29.5312 45H22.9688Z" fill="#794832"/>
<path d="M10.5 23.25C10.326 23.25 10.159 23.329 10.036 23.4697C9.91289 23.6103 9.84375 23.8011 9.84375 24V26.25H8.53125V24C8.53125 23.8011 8.46211 23.6103 8.33904 23.4697C8.21597 23.329 8.04905 23.25 7.875 23.25C7.70095 23.25 7.53403 23.329 7.41096 23.4697C7.28789 23.6103 7.21875 23.8011 7.21875 24V26.25H5.90625V24C5.90625 23.8011 5.83711 23.6103 5.71404 23.4697C5.59097 23.329 5.42405 23.25 5.25 23.25C5.07595 23.25 4.90903 23.329 4.78596 23.4697C4.66289 23.6103 4.59375 23.8011 4.59375 24V26.25L6.5625 29.25H9.1875L11.1562 26.25V24C11.1562 23.8011 11.0871 23.6103 10.964 23.4697C10.841 23.329 10.674 23.25 10.5 23.25Z" fill="#D9DBDD"/>
<path d="M13.7812 32.25V31.5L12.4688 30.75C12.4688 30.75 12.9609 23.25 16.4062 23.25V32.25H13.7812Z" fill="#D9DBDD"/>
<path d="M50.1992 19.5352C50.1862 19.4961 50.2253 19.3984 50.3164 19.2422C50.4076 19.0729 50.5052 18.8711 50.6094 18.6367C50.7266 18.3893 50.8372 18.1159 50.9414 17.8164C51.0586 17.5039 51.1367 17.1849 51.1758 16.8594C51.2279 16.5339 51.2279 16.2083 51.1758 15.8828C51.1237 15.5573 50.987 15.2448 50.7656 14.9453C50.6354 14.7891 50.4401 14.7044 50.1797 14.6914C49.9323 14.6654 49.6458 14.7044 49.3203 14.8086C49.0078 14.8997 48.6758 15.0495 48.3242 15.2578C47.9857 15.4531 47.6732 15.6875 47.3867 15.9609C47.1003 16.2214 46.8529 16.5143 46.6445 16.8398C46.4492 17.1654 46.3385 17.4974 46.3125 17.8359C46.2865 18.1094 46.293 18.3633 46.332 18.5977C46.3841 18.832 46.4492 19.0469 46.5273 19.2422C46.6055 19.4375 46.6901 19.6198 46.7812 19.7891C46.8724 19.9583 46.957 20.1081 47.0352 20.2383C47.1393 20.4206 47.3021 20.6224 47.5234 20.8438C47.7448 21.0651 47.9857 21.319 48.2461 21.6055C48.5065 21.8789 48.7669 22.1914 49.0273 22.543C49.2878 22.8945 49.5156 23.2917 49.7109 23.7344C49.9062 24.1771 50.043 24.6719 50.1211 25.2188C50.1992 25.7656 50.1927 26.3711 50.1016 27.0352C49.9583 27.9987 49.7305 28.7995 49.418 29.4375C49.1055 30.0885 48.7604 30.6094 48.3828 31C48.0182 31.3906 47.6471 31.6706 47.2695 31.8398C46.8919 32.0221 46.5794 32.1393 46.332 32.1914C46.1367 32.2305 45.9023 32.263 45.6289 32.2891C45.3685 32.3281 45.0885 32.3216 44.7891 32.2695C44.5026 32.2305 44.2096 32.1393 43.9102 31.9961C43.6107 31.8659 43.3438 31.6576 43.1094 31.3711C42.8359 31.0456 42.6211 30.694 42.4648 30.3164C42.3216 29.9909 42.2174 29.6133 42.1523 29.1836C42.0742 28.7669 42.1068 28.3307 42.25 27.875C42.3542 27.7578 42.4648 27.6536 42.582 27.5625C42.6992 27.4714 42.8164 27.3932 42.9336 27.3281C43.0638 27.25 43.2005 27.1784 43.3438 27.1133C43.513 27.0612 43.6823 27.0156 43.8516 26.9766C43.9948 26.9505 44.1445 26.9375 44.3008 26.9375C44.4701 26.9245 44.6263 26.944 44.7695 26.9961C44.5742 27.2174 44.4375 27.4258 44.3594 27.6211C44.3073 27.7253 44.2682 27.8164 44.2422 27.8945C44.1901 28.1419 44.1706 28.4349 44.1836 28.7734C44.2096 29.125 44.2812 29.457 44.3984 29.7695C44.5286 30.0951 44.7109 30.3685 44.9453 30.5898C45.1797 30.8242 45.4922 30.9479 45.8828 30.9609C46.8333 30.987 47.6406 30.2448 48.3047 28.7344C48.526 28.2656 48.6367 27.7904 48.6367 27.3086C48.6497 26.8268 48.5911 26.3646 48.4609 25.9219C48.3438 25.4792 48.181 25.069 47.9727 24.6914C47.7773 24.3008 47.5755 23.9688 47.3672 23.6953C47.1589 23.4219 46.9049 23.1289 46.6055 22.8164C46.319 22.4909 46.0326 22.1393 45.7461 21.7617C45.4596 21.3841 45.1992 20.974 44.9648 20.5312C44.7435 20.0885 44.5938 19.6068 44.5156 19.0859C44.4115 18.3568 44.4766 17.6927 44.7109 17.0938C44.9583 16.4818 45.2839 15.9479 45.6875 15.4922C46.1042 15.0365 46.5534 14.6654 47.0352 14.3789C47.5299 14.0924 47.9661 13.9102 48.3438 13.832C50.4401 13.4154 51.8138 13.7669 52.4648 14.8867C52.7383 15.3164 52.888 15.7721 52.9141 16.2539C52.9401 16.7357 52.9076 17.1849 52.8164 17.6016C52.7383 18.0052 52.6341 18.3503 52.5039 18.6367C52.3867 18.9102 52.3086 19.0599 52.2695 19.0859C52.1914 19.1641 52.0677 19.2487 51.8984 19.3398C51.7292 19.431 51.4557 19.5156 51.0781 19.5938C50.974 19.6198 50.8698 19.6328 50.7656 19.6328C50.6745 19.6328 50.5768 19.6263 50.4727 19.6133C50.3685 19.6003 50.2773 19.5742 50.1992 19.5352ZM61.625 27.6016C61.625 27.3281 61.651 27.0156 61.7031 26.6641C61.7682 26.3125 61.8464 25.9544 61.9375 25.5898C62.0286 25.2122 62.1198 24.8477 62.2109 24.4961C62.3021 24.1445 62.3802 23.832 62.4453 23.5586C62.5234 23.2201 62.5169 22.9596 62.4258 22.7773C62.3346 22.5951 62.1784 22.5039 61.957 22.5039C61.8529 22.5039 61.6445 22.5951 61.332 22.7773C61.0326 22.9596 60.7005 23.2786 60.3359 23.7344C59.9844 24.1771 59.6328 24.7826 59.2812 25.5508C58.9427 26.306 58.6758 27.2695 58.4805 28.4414C58.2331 28.5716 57.9987 28.6562 57.7773 28.6953C57.6602 28.7214 57.556 28.7409 57.4648 28.7539C57.2044 28.7669 57.0352 28.7214 56.957 28.6172C56.8789 28.526 56.8919 28.2917 56.9961 27.9141C57.0482 27.7318 57.1393 27.4388 57.2695 27.0352C57.4128 26.6315 57.5495 26.1953 57.6797 25.7266C57.8099 25.2448 57.9206 24.7695 58.0117 24.3008C58.1159 23.819 58.168 23.4023 58.168 23.0508C58.168 22.8034 58.1224 22.6341 58.0312 22.543C57.9531 22.4518 57.8359 22.4062 57.6797 22.4062C57.5625 22.4062 57.3672 22.4714 57.0938 22.6016C56.8203 22.7318 56.5143 22.9857 56.1758 23.3633C55.8372 23.7409 55.4987 24.2682 55.1602 24.9453C54.8346 25.6094 54.5547 26.4753 54.3203 27.543V27.5039C54.2943 27.6081 54.2682 27.7122 54.2422 27.8164C54.2161 27.9076 54.1966 28.0052 54.1836 28.1094C54.1706 28.2135 54.151 28.3112 54.125 28.4023L53.1484 28.832C53.0833 28.8581 52.9987 28.8776 52.8945 28.8906C52.8034 28.9036 52.7122 28.8841 52.6211 28.832C52.543 28.793 52.4844 28.7018 52.4453 28.5586C52.4062 28.4154 52.4193 28.2005 52.4844 27.9141L53.7148 22.8164C53.7539 22.6471 53.7865 22.4844 53.8125 22.3281C53.8385 22.1849 53.8516 22.0482 53.8516 21.918C53.8646 21.7747 53.8581 21.6576 53.832 21.5664C54.0534 21.4622 54.2487 21.3841 54.418 21.332C54.5872 21.2799 54.724 21.2409 54.8281 21.2148C54.9583 21.1758 55.069 21.1562 55.1602 21.1562C55.5768 21.1562 55.7135 21.5143 55.5703 22.2305C55.5182 22.4388 55.4401 22.7448 55.3359 23.1484C55.5833 22.8359 55.8438 22.543 56.1172 22.2695C56.4036 21.9831 56.6901 21.7292 56.9766 21.5078C57.263 21.2865 57.5495 21.1107 57.8359 20.9805C58.1354 20.8503 58.4284 20.7852 58.7148 20.7852C58.9362 20.7852 59.1185 20.8503 59.2617 20.9805C59.418 21.1107 59.5352 21.2865 59.6133 21.5078C59.7044 21.7161 59.7565 21.9701 59.7695 22.2695C59.7826 22.556 59.7695 22.8555 59.7305 23.168C59.9388 22.8945 60.1667 22.6211 60.4141 22.3477C60.6745 22.0612 60.9414 21.8073 61.2148 21.5859C61.5013 21.3646 61.7943 21.1823 62.0938 21.0391C62.3932 20.8958 62.6927 20.8242 62.9922 20.8242C63.3438 20.8242 63.6107 20.9284 63.793 21.1367C63.9883 21.3451 64.1185 21.612 64.1836 21.9375C64.2617 22.263 64.2812 22.6146 64.2422 22.9922C64.2161 23.3698 64.1641 23.7344 64.0859 24.0859L63.4219 26.7227C63.2786 27.3737 63.4154 27.6992 63.832 27.6992C64.1576 27.6992 64.5156 27.543 64.9062 27.2305C65.2969 26.918 65.6745 26.5469 66.0391 26.1172C66.4167 25.6875 66.7682 25.2448 67.0938 24.7891C67.4193 24.3333 67.6927 23.9688 67.9141 23.6953C67.9922 23.6042 68.0703 23.5521 68.1484 23.5391C68.2396 23.526 68.3112 23.5456 68.3633 23.5977C68.4284 23.6367 68.4609 23.7083 68.4609 23.8125C68.474 23.9167 68.4414 24.0469 68.3633 24.2031C68.1029 24.6589 67.7839 25.1667 67.4062 25.7266C67.0286 26.2734 66.612 26.7878 66.1562 27.2695C65.7135 27.7513 65.2383 28.1549 64.7305 28.4805C64.2227 28.806 63.6953 28.9688 63.1484 28.9688C62.9661 28.9688 62.7839 28.9492 62.6016 28.9102C62.4323 28.8711 62.2695 28.7995 62.1133 28.6953C61.9701 28.5911 61.8529 28.4544 61.7617 28.2852C61.6706 28.1029 61.625 27.875 61.625 27.6016ZM76.8984 24.6133C76.7161 24.8737 76.4818 25.1992 76.1953 25.5898C75.9089 25.9674 75.6094 26.3516 75.2969 26.7422C74.9974 27.1198 74.6979 27.4714 74.3984 27.7969C74.112 28.1094 73.8711 28.3307 73.6758 28.4609C73.5456 28.5391 73.3958 28.6042 73.2266 28.6562C73.0573 28.7083 72.8815 28.7409 72.6992 28.7539C72.5299 28.7669 72.3672 28.7539 72.2109 28.7148C72.0547 28.6888 71.918 28.6367 71.8008 28.5586C71.6836 28.4674 71.5859 28.3372 71.5078 28.168C71.4427 28.0247 71.3776 27.8359 71.3125 27.6016C71.2604 27.3672 71.2409 27.0742 71.2539 26.7227C70.9414 27.2435 70.5964 27.6471 70.2188 27.9336C69.8411 28.207 69.4831 28.4089 69.1445 28.5391C68.7539 28.6823 68.3633 28.7669 67.9727 28.793C67.7904 28.793 67.5951 28.7279 67.3867 28.5977C67.1784 28.4805 67.0026 28.2917 66.8594 28.0312C66.7161 27.7578 66.625 27.4128 66.5859 26.9961C66.5469 26.5664 66.599 26.0586 66.7422 25.4727C66.9245 24.6784 67.2109 23.9557 67.6016 23.3047C68.0052 22.6536 68.4414 22.1003 68.9102 21.6445C69.3789 21.1758 69.8411 20.8242 70.2969 20.5898C70.7526 20.3555 71.1302 20.2513 71.4297 20.2773C71.7812 20.3424 72.0677 20.4466 72.2891 20.5898C72.4714 20.7201 72.5885 20.9154 72.6406 21.1758C72.7057 21.4232 72.6016 21.7552 72.3281 22.1719C72.5104 22.1328 72.6602 22.1068 72.7773 22.0938C72.9076 22.0807 73.0052 22.0742 73.0703 22.0742C73.1484 22.0742 73.2005 22.0807 73.2266 22.0938C73.2396 22.1198 73.2461 22.1784 73.2461 22.2695C73.2461 22.3477 73.2266 22.4974 73.1875 22.7188C73.1484 22.9401 73.0898 23.2396 73.0117 23.6172C72.9336 23.9948 72.8294 24.4831 72.6992 25.082C72.6732 25.1992 72.6471 25.3099 72.6211 25.4141C72.6081 25.5052 72.5885 25.6029 72.5625 25.707C72.5495 25.7982 72.5299 25.9089 72.5039 26.0391C72.4779 26.1693 72.4453 26.332 72.4062 26.5273C72.3932 26.6445 72.3867 26.7747 72.3867 26.918C72.3997 27.0482 72.4258 27.1719 72.4648 27.2891C72.5039 27.4062 72.5625 27.5039 72.6406 27.582C72.7318 27.6471 72.8555 27.6797 73.0117 27.6797C73.1419 27.6797 73.3112 27.6016 73.5195 27.4453C73.7279 27.276 73.9492 27.0677 74.1836 26.8203C74.418 26.5599 74.6589 26.2799 74.9062 25.9805C75.1667 25.668 75.4076 25.3685 75.6289 25.082C75.8503 24.7956 76.0456 24.5417 76.2148 24.3203C76.3971 24.099 76.5273 23.9362 76.6055 23.832C76.7096 23.7148 76.8138 23.6497 76.918 23.6367C77.0221 23.6107 77.1003 23.6367 77.1523 23.7148C77.2044 23.793 77.2109 23.9102 77.1719 24.0664C77.1458 24.2227 77.0547 24.4049 76.8984 24.6133ZM71.1758 25.4727C71.2409 25.2122 71.319 24.9062 71.4102 24.5547C71.5013 24.2031 71.5794 23.8646 71.6445 23.5391C71.7096 23.2135 71.7552 22.9466 71.7812 22.7383C71.8203 22.5169 71.8138 22.4128 71.7617 22.4258C71.6966 22.4388 71.625 22.4583 71.5469 22.4844C71.4818 22.5104 71.3971 22.5299 71.293 22.543C71.1888 22.556 71.0846 22.5755 70.9805 22.6016C71.0846 22.3932 71.1432 22.224 71.1562 22.0938C71.1823 21.9505 71.1888 21.8398 71.1758 21.7617C71.1628 21.6706 71.1367 21.599 71.0977 21.5469C70.9544 21.4297 70.7005 21.5273 70.3359 21.8398C69.9844 22.1393 69.5742 22.6992 69.1055 23.5195C68.9102 23.8581 68.7539 24.2227 68.6367 24.6133C68.5195 24.9909 68.4349 25.349 68.3828 25.6875C68.3438 26.026 68.3372 26.3255 68.3633 26.5859C68.3893 26.8333 68.4414 26.9961 68.5195 27.0742C68.6628 27.2174 68.8255 27.2891 69.0078 27.2891C69.1901 27.276 69.3724 27.224 69.5547 27.1328C69.75 27.0286 69.9388 26.8984 70.1211 26.7422C70.3164 26.5859 70.4857 26.4232 70.6289 26.2539C70.7852 26.0846 70.9089 25.9284 71 25.7852C71.1042 25.6419 71.1628 25.5378 71.1758 25.4727ZM74.8477 28.4023C74.7565 28.5456 74.6589 28.6367 74.5547 28.6758C74.4375 28.7279 74.3398 28.7344 74.2617 28.6953C74.1706 28.6693 74.112 28.6042 74.0859 28.5C74.0599 28.3958 74.0859 28.2656 74.1641 28.1094C74.2031 28.0312 74.2943 27.8555 74.4375 27.582C74.5677 27.3086 74.7305 26.9831 74.9258 26.6055C75.1081 26.2148 75.3099 25.7982 75.5312 25.3555C75.7526 24.8997 75.9609 24.4701 76.1562 24.0664C76.3646 23.6628 76.5534 23.3047 76.7227 22.9922C76.8919 22.6667 77.0156 22.4323 77.0938 22.2891C76.9505 22.1589 76.8529 22.0677 76.8008 22.0156C76.7487 21.9505 76.7096 21.8203 76.6836 21.625C76.6576 21.4557 76.6966 21.2344 76.8008 20.9609C76.9049 20.6875 77.0417 20.4271 77.2109 20.1797C77.3802 19.9193 77.569 19.6979 77.7773 19.5156C77.9857 19.3333 78.1875 19.2422 78.3828 19.2422C78.7474 19.2422 79.0013 19.3594 79.1445 19.5938C79.3008 19.8281 79.3919 20.069 79.418 20.3164C79.444 20.4857 79.431 20.7005 79.3789 20.9609C79.3268 21.2214 79.2292 21.4557 79.0859 21.6641C79.125 21.6901 79.1771 21.7227 79.2422 21.7617C79.3073 21.7878 79.4115 21.8008 79.5547 21.8008C79.763 21.8008 79.9062 21.7878 79.9844 21.7617C80.0755 21.7357 80.2122 21.7227 80.3945 21.7227C80.6159 21.7227 80.7982 21.7812 80.9414 21.8984C81.0846 22.0026 81.2018 22.1393 81.293 22.3086C81.3841 22.4648 81.4492 22.6406 81.4883 22.8359C81.5404 23.0182 81.5729 23.1875 81.5859 23.3438C81.625 23.6693 81.5404 24.0078 81.332 24.3594C81.1237 24.7109 80.8698 25.0951 80.5703 25.5117C80.388 25.7721 80.2057 26.0651 80.0234 26.3906C79.8411 26.7161 79.763 27.0091 79.7891 27.2695C79.8151 27.4388 79.8607 27.5755 79.9258 27.6797C79.9909 27.7839 80.1732 27.8359 80.4727 27.8359C80.694 27.8359 80.9349 27.7578 81.1953 27.6016C81.4688 27.4323 81.7422 27.224 82.0156 26.9766C82.3021 26.7161 82.582 26.4362 82.8555 26.1367C83.1289 25.8242 83.3828 25.5247 83.6172 25.2383C83.8516 24.9388 84.0469 24.6719 84.2031 24.4375C84.3724 24.2031 84.4961 24.0339 84.5742 23.9297C84.6393 23.8255 84.724 23.7539 84.8281 23.7148C84.9323 23.6758 85.0234 23.6758 85.1016 23.7148C85.1797 23.7539 85.2253 23.832 85.2383 23.9492C85.2643 24.0664 85.2188 24.2227 85.1016 24.418C85.0234 24.5482 84.8867 24.7565 84.6914 25.043C84.5091 25.3294 84.2812 25.6484 84.0078 26C83.7474 26.3516 83.4544 26.7161 83.1289 27.0938C82.8034 27.4583 82.4583 27.7969 82.0938 28.1094C81.7422 28.4089 81.3841 28.6562 81.0195 28.8516C80.668 29.0469 80.3294 29.1445 80.0039 29.1445C79.6654 29.1445 79.3854 29.0794 79.1641 28.9492C78.9427 28.819 78.7604 28.6628 78.6172 28.4805C78.487 28.2852 78.3893 28.0768 78.3242 27.8555C78.2721 27.6211 78.2526 27.4062 78.2656 27.2109C78.2786 27.0547 78.3177 26.8919 78.3828 26.7227C78.4609 26.5404 78.5456 26.3581 78.6367 26.1758C78.7409 25.9805 78.8451 25.7917 78.9492 25.6094C79.0664 25.4141 79.1706 25.2253 79.2617 25.043C79.4831 24.6654 79.6589 24.3464 79.7891 24.0859C79.9323 23.8125 80.0039 23.5846 80.0039 23.4023C80.0039 23.2852 79.9779 23.181 79.9258 23.0898C79.8737 22.9987 79.7891 22.9531 79.6719 22.9531C79.5938 22.9531 79.5352 22.9596 79.4961 22.9727C79.4701 22.9727 79.4375 22.9727 79.3984 22.9727C79.3724 22.9727 79.3268 22.9792 79.2617 22.9922C79.2096 22.9922 79.125 22.9922 79.0078 22.9922C78.8385 22.9922 78.6953 22.9661 78.5781 22.9141C78.4609 22.862 78.3503 22.8229 78.2461 22.7969C78.194 22.888 78.0768 23.0833 77.8945 23.3828C77.7122 23.6823 77.4974 24.0339 77.25 24.4375C77.0156 24.8411 76.7617 25.2643 76.4883 25.707C76.2279 26.1497 75.9805 26.5664 75.7461 26.957C75.5117 27.3346 75.3164 27.6602 75.1602 27.9336C74.9909 28.194 74.8867 28.3503 74.8477 28.4023ZM90.9219 23.5586C90.974 23.4805 91.0391 23.4349 91.1172 23.4219C91.2083 23.3958 91.2799 23.4023 91.332 23.4414C91.3841 23.4805 91.4102 23.5456 91.4102 23.6367C91.4232 23.7279 91.3906 23.8516 91.3125 24.0078C91.0521 24.5026 90.707 25.0365 90.2773 25.6094C89.8607 26.1823 89.418 26.7227 88.9492 27.2305C88.4805 27.7253 88.0247 28.1354 87.582 28.4609C87.1393 28.7865 86.7682 28.9492 86.4688 28.9492C86.0391 28.9492 85.681 28.8646 85.3945 28.6953C85.1081 28.526 84.8802 28.3177 84.7109 28.0703C84.5547 27.8229 84.444 27.556 84.3789 27.2695C84.3138 26.9701 84.2943 26.6966 84.3203 26.4492C84.3333 26.2409 84.3789 25.8698 84.457 25.3359C84.5352 24.7891 84.6393 24.1641 84.7695 23.4609C84.8997 22.7448 85.043 21.9831 85.1992 21.1758C85.3685 20.3555 85.5443 19.5677 85.7266 18.8125C85.5052 18.8385 85.2839 18.8646 85.0625 18.8906C84.8411 18.9167 84.6393 18.9297 84.457 18.9297C84.0404 18.9297 83.6497 18.8841 83.2852 18.793C82.9076 18.6888 82.6276 18.5911 82.4453 18.5C82.3411 18.4479 82.2956 18.3763 82.3086 18.2852C82.3216 18.181 82.3607 18.0833 82.4258 17.9922C82.4909 17.888 82.5755 17.8034 82.6797 17.7383C82.7708 17.6602 82.8555 17.6211 82.9336 17.6211C83.181 17.6471 83.4479 17.6732 83.7344 17.6992C84.0208 17.7122 84.3333 17.7122 84.6719 17.6992C84.9193 17.6862 85.1536 17.6667 85.375 17.6406C85.6094 17.6146 85.8372 17.582 86.0586 17.543C86.2279 16.918 86.3906 16.3776 86.5469 15.9219C86.7161 15.4531 86.8659 15.1276 86.9961 14.9453C87.0352 14.8802 87.1198 14.8281 87.25 14.7891C87.3932 14.737 87.543 14.7044 87.6992 14.6914C87.8555 14.6654 88.0052 14.6654 88.1484 14.6914C88.2917 14.7044 88.3958 14.75 88.4609 14.8281C88.526 14.9323 88.5521 15.1992 88.5391 15.6289C88.526 16.0586 88.4544 16.6055 88.3242 17.2695C88.8711 17.2695 89.3529 17.3021 89.7695 17.3672C90.1992 17.4193 90.5638 17.4844 90.8633 17.5625C91.1628 17.6276 91.4036 17.6992 91.5859 17.7773C91.7682 17.8424 91.9049 17.888 91.9961 17.9141C92.0872 17.9401 92.1328 18.0052 92.1328 18.1094C92.1458 18.2135 92.1263 18.3242 92.0742 18.4414C92.0352 18.5456 91.9635 18.6367 91.8594 18.7148C91.7552 18.793 91.638 18.819 91.5078 18.793C91.3776 18.7799 91.2279 18.7539 91.0586 18.7148C90.9023 18.6758 90.707 18.6432 90.4727 18.6172C90.2513 18.5911 89.9844 18.5651 89.6719 18.5391C89.3594 18.513 88.9948 18.5 88.5781 18.5C88.5 18.5 88.4089 18.5065 88.3047 18.5195C88.2135 18.5195 88.1159 18.5195 88.0117 18.5195C87.9596 18.7279 87.9076 18.9362 87.8555 19.1445C87.8164 19.3398 87.7578 19.5482 87.6797 19.7695C87.5104 20.2904 87.3151 20.8568 87.0938 21.4688C86.8984 22.0026 86.6641 22.6146 86.3906 23.3047C86.1172 23.9948 85.8112 24.7305 85.4727 25.5117C85.3945 26.0716 85.401 26.5013 85.4922 26.8008C85.5964 27.0872 85.7201 27.2956 85.8633 27.4258C86.0326 27.569 86.2409 27.6471 86.4883 27.6602C86.6836 27.6862 86.918 27.6211 87.1914 27.4648C87.4779 27.2956 87.7708 27.0742 88.0703 26.8008C88.3698 26.5273 88.6693 26.2279 88.9688 25.9023C89.2812 25.5768 89.5677 25.2578 89.8281 24.9453C90.0885 24.6328 90.3164 24.3529 90.5117 24.1055C90.707 23.8451 90.8438 23.6628 90.9219 23.5586ZM89.8281 31.0195C89.7109 30.9414 89.6523 30.8568 89.6523 30.7656C89.6393 30.6745 89.6589 30.5833 89.7109 30.4922C89.763 30.388 89.8411 30.2839 89.9453 30.1797C90.0495 30.0885 90.1732 29.8542 90.3164 29.4766C90.4596 29.112 90.6094 28.6693 90.7656 28.1484C90.9349 27.6146 91.0977 27.0352 91.2539 26.4102C91.4232 25.7852 91.5794 25.1732 91.7227 24.5742C91.8659 23.9753 91.9896 23.4219 92.0938 22.9141C92.1979 22.4062 92.276 22.0026 92.3281 21.7031C92.3932 21.3385 92.4648 20.9414 92.543 20.5117C92.6081 20.1341 92.6797 19.6979 92.7578 19.2031C92.8359 18.6953 92.9076 18.1354 92.9727 17.5234L94.5352 16.8203C94.7565 16.7161 94.9128 16.7422 95.0039 16.8984C95.0951 17.0417 95.0951 17.3477 95.0039 17.8164C94.9648 18.0508 94.8932 18.4349 94.7891 18.9688C94.6849 19.4896 94.5612 20.069 94.418 20.707C94.2878 21.332 94.1445 21.9766 93.9883 22.6406C93.8451 23.2917 93.7018 23.8711 93.5586 24.3789C93.4284 24.8607 93.2786 25.4141 93.1094 26.0391C92.8099 27.1068 92.3932 28.5651 91.8594 30.4141C92.0417 30.7266 92.3802 30.8828 92.875 30.8828C93.4219 30.8828 94.0534 30.6745 94.7695 30.2578C95.4987 29.8411 96.2018 29.2161 96.8789 28.3828C97.556 27.5495 98.1484 26.5078 98.6562 25.2578C99.1771 23.9948 99.5026 22.5234 99.6328 20.8438C99.6979 19.9323 99.6523 19.1315 99.4961 18.4414C99.3398 17.7513 99.099 17.1719 98.7734 16.7031C98.4609 16.2344 98.0703 15.8828 97.6016 15.6484C97.1458 15.4141 96.638 15.2969 96.0781 15.2969C94.763 15.2969 93.4023 15.8438 91.9961 16.9375L91.8984 15.3164C92.237 14.9388 92.6211 14.6523 93.0508 14.457C93.4935 14.2487 93.9036 14.0924 94.2812 13.9883C94.724 13.8711 95.1732 13.806 95.6289 13.793C96.4622 13.793 97.263 13.9557 98.0312 14.2812C98.8125 14.5938 99.4831 15.0755 100.043 15.7266C100.616 16.3776 101.052 17.1979 101.352 18.1875C101.651 19.1641 101.755 20.3099 101.664 21.625C101.612 22.3802 101.456 23.168 101.195 23.9883C100.948 24.7956 100.616 25.5898 100.199 26.3711C99.7956 27.1523 99.3138 27.8945 98.7539 28.5977C98.194 29.3008 97.582 29.9128 96.918 30.4336C96.2539 30.9674 95.5443 31.3841 94.7891 31.6836C94.0339 31.9961 93.2526 32.1523 92.4453 32.1523C92.1979 32.1393 91.931 32.0938 91.6445 32.0156C91.3971 31.9505 91.1172 31.8398 90.8047 31.6836C90.4922 31.5273 90.1667 31.306 89.8281 31.0195ZM111.254 24.4375C110.863 25.0104 110.421 25.5703 109.926 26.1172C109.431 26.651 108.904 27.1328 108.344 27.5625C107.797 27.9792 107.23 28.3177 106.645 28.5781C106.072 28.8385 105.512 28.9688 104.965 28.9688C104.678 28.9688 104.366 28.8971 104.027 28.7539C103.702 28.6237 103.402 28.4154 103.129 28.1289C102.855 27.8424 102.634 27.4714 102.465 27.0156C102.309 26.5599 102.263 26.0065 102.328 25.3555C102.38 24.8216 102.543 24.2617 102.816 23.6758C103.103 23.0768 103.448 22.5299 103.852 22.0352C104.268 21.5404 104.73 21.1302 105.238 20.8047C105.759 20.4792 106.28 20.3164 106.801 20.3164C107.296 20.3164 107.654 20.4401 107.875 20.6875C108.096 20.9349 108.194 21.2409 108.168 21.6055C108.129 22.0091 108.012 22.3802 107.816 22.7188C107.634 23.0573 107.413 23.3633 107.152 23.6367C106.892 23.9102 106.612 24.1576 106.312 24.3789C106.026 24.6003 105.753 24.8021 105.492 24.9844C105.206 25.1797 104.932 25.3685 104.672 25.5508C104.411 25.7201 104.184 25.8763 103.988 26.0195C104.001 26.3451 104.06 26.6185 104.164 26.8398C104.268 27.0612 104.398 27.2435 104.555 27.3867C104.711 27.5169 104.887 27.6146 105.082 27.6797C105.29 27.7318 105.499 27.7578 105.707 27.7578C106.15 27.7578 106.612 27.6211 107.094 27.3477C107.576 27.0612 108.044 26.7227 108.5 26.332C108.969 25.9284 109.398 25.5117 109.789 25.082C110.193 24.6523 110.525 24.2812 110.785 23.9688C110.876 23.8646 110.967 23.806 111.059 23.793C111.163 23.7669 111.241 23.7799 111.293 23.832C111.358 23.8711 111.391 23.9492 111.391 24.0664C111.391 24.1706 111.345 24.2943 111.254 24.4375ZM106.254 21.4297C106.098 21.4297 105.909 21.5078 105.688 21.6641C105.479 21.8203 105.271 22.0482 105.062 22.3477C104.854 22.6341 104.659 22.9922 104.477 23.4219C104.294 23.8385 104.158 24.3203 104.066 24.8672C104.223 24.75 104.392 24.6328 104.574 24.5156C104.757 24.3854 104.939 24.2487 105.121 24.1055C105.681 23.6758 106.072 23.2982 106.293 22.9727C106.514 22.6471 106.638 22.3672 106.664 22.1328C106.69 21.8854 106.664 21.7096 106.586 21.6055C106.508 21.4883 106.397 21.4297 106.254 21.4297ZM109.555 28.1875C110.128 25.7786 110.583 23.8451 110.922 22.3867C111.273 20.9284 111.54 19.8151 111.723 19.0469C111.931 18.1354 112.074 17.5039 112.152 17.1523C112.191 16.9049 112.224 16.6641 112.25 16.4297C112.276 16.2214 112.289 16.0065 112.289 15.7852C112.289 15.5638 112.27 15.362 112.23 15.1797C112.335 15.1146 112.445 15.0625 112.562 15.0234C112.693 14.9844 112.816 14.9518 112.934 14.9258C113.077 14.8867 113.22 14.8542 113.363 14.8281C113.507 14.8021 113.637 14.7891 113.754 14.7891C113.858 14.7891 113.956 14.8021 114.047 14.8281C114.138 14.8411 114.197 14.8802 114.223 14.9453C114.301 15.0104 114.333 15.1406 114.32 15.3359C114.32 15.5312 114.307 15.7331 114.281 15.9414C114.229 16.1888 114.171 16.4557 114.105 16.7422C113.949 17.3021 113.734 18.1094 113.461 19.1641C113.227 20.0625 112.908 21.2865 112.504 22.8359C112.113 24.3854 111.618 26.3385 111.02 28.6953C110.954 28.7604 110.876 28.806 110.785 28.832C110.694 28.8581 110.609 28.8711 110.531 28.8711C110.44 28.8711 110.342 28.8646 110.238 28.8516C110.147 28.8255 110.056 28.7865 109.965 28.7344C109.887 28.6823 109.809 28.6107 109.73 28.5195C109.652 28.4414 109.594 28.3307 109.555 28.1875ZM118.52 16.9961C118.48 17.1393 118.402 17.2826 118.285 17.4258C118.181 17.556 118.057 17.6667 117.914 17.7578C117.784 17.8359 117.647 17.888 117.504 17.9141C117.361 17.9401 117.243 17.9141 117.152 17.8359C116.879 17.6276 116.736 17.4062 116.723 17.1719C116.71 16.9245 116.768 16.6966 116.898 16.4883C117.029 16.2669 117.191 16.0846 117.387 15.9414C117.582 15.7852 117.751 15.694 117.895 15.668C118.038 15.6419 118.155 15.6745 118.246 15.7656C118.35 15.8438 118.428 15.9544 118.48 16.0977C118.533 16.2279 118.559 16.3776 118.559 16.5469C118.572 16.7161 118.559 16.8659 118.52 16.9961ZM115.824 21.1562C115.889 21.0781 116.013 21.013 116.195 20.9609C116.378 20.9089 116.566 20.8698 116.762 20.8438C116.957 20.8047 117.133 20.7852 117.289 20.7852C117.458 20.7721 117.556 20.7721 117.582 20.7852C117.595 20.7982 117.562 20.9349 117.484 21.1953C117.406 21.4557 117.309 21.7617 117.191 22.1133C117.074 22.4648 116.951 22.8294 116.82 23.207C116.69 23.5716 116.592 23.8711 116.527 24.1055C116.462 24.3398 116.384 24.6068 116.293 24.9062C116.202 25.1927 116.117 25.4792 116.039 25.7656C115.974 26.0391 115.928 26.2995 115.902 26.5469C115.876 26.7943 115.896 26.9831 115.961 27.1133C116.026 27.2695 116.098 27.3802 116.176 27.4453C116.254 27.4974 116.339 27.5234 116.43 27.5234C116.69 27.5234 117.016 27.3802 117.406 27.0938C117.81 26.8073 118.214 26.4688 118.617 26.0781C119.034 25.6745 119.418 25.2708 119.77 24.8672C120.121 24.4505 120.382 24.1185 120.551 23.8711C120.655 23.7409 120.759 23.6562 120.863 23.6172C120.98 23.5781 121.072 23.5846 121.137 23.6367C121.215 23.6888 121.254 23.7734 121.254 23.8906C121.267 24.0078 121.228 24.1445 121.137 24.3008C120.928 24.6654 120.622 25.1016 120.219 25.6094C119.815 26.1042 119.385 26.5859 118.93 27.0547C118.474 27.5104 118.025 27.901 117.582 28.2266C117.152 28.5521 116.801 28.7214 116.527 28.7344C116.306 28.7474 116.085 28.7083 115.863 28.6172C115.655 28.5391 115.46 28.4284 115.277 28.2852C115.108 28.1289 114.965 27.9531 114.848 27.7578C114.73 27.5495 114.665 27.3346 114.652 27.1133C114.613 26.7878 114.613 26.3451 114.652 25.7852C114.691 25.2122 114.763 24.6328 114.867 24.0469C114.971 23.4479 115.102 22.8815 115.258 22.3477C115.427 21.8138 115.616 21.4167 115.824 21.1562ZM125.434 25.0234C125.095 25.5182 124.743 26 124.379 26.4688C124.027 26.9375 123.682 27.3607 123.344 27.7383C123.018 28.1029 122.712 28.3958 122.426 28.6172C122.152 28.8516 121.931 28.9688 121.762 28.9688C121.358 28.9688 121.026 28.7799 120.766 28.4023C120.518 28.0117 120.323 27.5365 120.18 26.9766C120.049 26.4036 119.965 25.7982 119.926 25.1602C119.9 24.5091 119.906 23.9297 119.945 23.4219C119.997 22.9141 120.056 22.5104 120.121 22.2109C120.186 21.8984 120.264 21.6576 120.355 21.4883C120.46 21.319 120.577 21.1953 120.707 21.1172C120.85 21.0391 121.026 20.974 121.234 20.9219C121.326 20.8958 121.43 20.8763 121.547 20.8633C121.664 20.8503 121.768 20.8568 121.859 20.8828C121.964 20.8958 122.042 20.9349 122.094 21C122.146 21.0651 122.152 21.1628 122.113 21.293C122.087 21.4102 122.042 21.5859 121.977 21.8203C121.924 22.0417 121.866 22.2956 121.801 22.582C121.736 22.8685 121.671 23.168 121.605 23.4805C121.553 23.793 121.514 24.0924 121.488 24.3789C121.449 24.8737 121.449 25.3099 121.488 25.6875C121.527 26.0521 121.586 26.3646 121.664 26.625C121.742 26.8724 121.827 27.0612 121.918 27.1914C122.009 27.3216 122.081 27.3867 122.133 27.3867C122.198 27.3867 122.315 27.3021 122.484 27.1328C122.667 26.9505 122.868 26.7161 123.09 26.4297C123.324 26.1432 123.565 25.8112 123.812 25.4336C124.073 25.056 124.314 24.6654 124.535 24.2617C124.457 24.0534 124.424 23.806 124.438 23.5195C124.477 23.0768 124.574 22.6797 124.73 22.3281C124.887 21.9635 125.062 21.6576 125.258 21.4102C125.466 21.1628 125.674 20.974 125.883 20.8438C126.104 20.7005 126.299 20.6289 126.469 20.6289C126.807 20.6289 127.016 20.7201 127.094 20.9023C127.185 21.0716 127.217 21.2474 127.191 21.4297C127.165 21.7031 127.042 22.0807 126.82 22.5625C126.612 23.0312 126.339 23.5456 126 24.1055C126.065 24.1315 126.137 24.1576 126.215 24.1836C126.293 24.2096 126.384 24.2227 126.488 24.2227C126.931 24.2227 127.328 24.1706 127.68 24.0664C128.044 23.9622 128.357 23.8385 128.617 23.6953C128.891 23.5521 129.118 23.4023 129.301 23.2461C129.496 23.0768 129.652 22.9401 129.77 22.8359C129.848 22.7578 129.926 22.7188 130.004 22.7188C130.082 22.7188 130.147 22.7383 130.199 22.7773C130.251 22.8164 130.277 22.875 130.277 22.9531C130.277 23.0312 130.238 23.1159 130.16 23.207C129.691 23.7799 129.118 24.2422 128.441 24.5938C127.777 24.9453 126.996 25.1211 126.098 25.1211C126.02 25.1211 125.922 25.1146 125.805 25.1016C125.688 25.0885 125.564 25.0625 125.434 25.0234ZM137.113 24.4375C136.723 25.0104 136.28 25.5703 135.785 26.1172C135.29 26.651 134.763 27.1328 134.203 27.5625C133.656 27.9792 133.09 28.3177 132.504 28.5781C131.931 28.8385 131.371 28.9688 130.824 28.9688C130.538 28.9688 130.225 28.8971 129.887 28.7539C129.561 28.6237 129.262 28.4154 128.988 28.1289C128.715 27.8424 128.493 27.4714 128.324 27.0156C128.168 26.5599 128.122 26.0065 128.188 25.3555C128.24 24.8216 128.402 24.2617 128.676 23.6758C128.962 23.0768 129.307 22.5299 129.711 22.0352C130.128 21.5404 130.59 21.1302 131.098 20.8047C131.618 20.4792 132.139 20.3164 132.66 20.3164C133.155 20.3164 133.513 20.4401 133.734 20.6875C133.956 20.9349 134.053 21.2409 134.027 21.6055C133.988 22.0091 133.871 22.3802 133.676 22.7188C133.493 23.0573 133.272 23.3633 133.012 23.6367C132.751 23.9102 132.471 24.1576 132.172 24.3789C131.885 24.6003 131.612 24.8021 131.352 24.9844C131.065 25.1797 130.792 25.3685 130.531 25.5508C130.271 25.7201 130.043 25.8763 129.848 26.0195C129.861 26.3451 129.919 26.6185 130.023 26.8398C130.128 27.0612 130.258 27.2435 130.414 27.3867C130.57 27.5169 130.746 27.6146 130.941 27.6797C131.15 27.7318 131.358 27.7578 131.566 27.7578C132.009 27.7578 132.471 27.6211 132.953 27.3477C133.435 27.0612 133.904 26.7227 134.359 26.332C134.828 25.9284 135.258 25.5117 135.648 25.082C136.052 24.6523 136.384 24.2812 136.645 23.9688C136.736 23.8646 136.827 23.806 136.918 23.793C137.022 23.7669 137.1 23.7799 137.152 23.832C137.217 23.8711 137.25 23.9492 137.25 24.0664C137.25 24.1706 137.204 24.2943 137.113 24.4375ZM132.113 21.4297C131.957 21.4297 131.768 21.5078 131.547 21.6641C131.339 21.8203 131.13 22.0482 130.922 22.3477C130.714 22.6341 130.518 22.9922 130.336 23.4219C130.154 23.8385 130.017 24.3203 129.926 24.8672C130.082 24.75 130.251 24.6328 130.434 24.5156C130.616 24.3854 130.798 24.2487 130.98 24.1055C131.54 23.6758 131.931 23.2982 132.152 22.9727C132.374 22.6471 132.497 22.3672 132.523 22.1328C132.549 21.8854 132.523 21.7096 132.445 21.6055C132.367 21.4883 132.257 21.4297 132.113 21.4297ZM134.965 28.4023C134.874 28.5456 134.776 28.6367 134.672 28.6758C134.555 28.7279 134.457 28.7344 134.379 28.6953C134.288 28.6693 134.229 28.6042 134.203 28.5C134.177 28.3958 134.203 28.2656 134.281 28.1094C134.32 28.0312 134.411 27.8555 134.555 27.582C134.685 27.3086 134.848 26.9831 135.043 26.6055C135.225 26.2148 135.427 25.7982 135.648 25.3555C135.87 24.8997 136.078 24.4701 136.273 24.0664C136.482 23.6628 136.671 23.3047 136.84 22.9922C137.009 22.6667 137.133 22.4323 137.211 22.2891C137.068 22.1589 136.97 22.0677 136.918 22.0156C136.866 21.9505 136.827 21.8203 136.801 21.625C136.775 21.4557 136.814 21.2344 136.918 20.9609C137.022 20.6875 137.159 20.4271 137.328 20.1797C137.497 19.9193 137.686 19.6979 137.895 19.5156C138.103 19.3333 138.305 19.2422 138.5 19.2422C138.865 19.2422 139.118 19.3594 139.262 19.5938C139.418 19.8281 139.509 20.069 139.535 20.3164C139.561 20.4857 139.548 20.7005 139.496 20.9609C139.444 21.2214 139.346 21.4557 139.203 21.6641C139.242 21.6901 139.294 21.7227 139.359 21.7617C139.424 21.7878 139.529 21.8008 139.672 21.8008C139.88 21.8008 140.023 21.7878 140.102 21.7617C140.193 21.7357 140.329 21.7227 140.512 21.7227C140.733 21.7227 140.915 21.7812 141.059 21.8984C141.202 22.0026 141.319 22.1393 141.41 22.3086C141.501 22.4648 141.566 22.6406 141.605 22.8359C141.658 23.0182 141.69 23.1875 141.703 23.3438C141.742 23.6693 141.658 24.0078 141.449 24.3594C141.241 24.7109 140.987 25.0951 140.688 25.5117C140.505 25.7721 140.323 26.0651 140.141 26.3906C139.958 26.7161 139.88 27.0091 139.906 27.2695C139.932 27.4388 139.978 27.5755 140.043 27.6797C140.108 27.7839 140.29 27.8359 140.59 27.8359C140.811 27.8359 141.052 27.7578 141.312 27.6016C141.586 27.4323 141.859 27.224 142.133 26.9766C142.419 26.7161 142.699 26.4362 142.973 26.1367C143.246 25.8242 143.5 25.5247 143.734 25.2383C143.969 24.9388 144.164 24.6719 144.32 24.4375C144.49 24.2031 144.613 24.0339 144.691 23.9297C144.757 23.8255 144.841 23.7539 144.945 23.7148C145.049 23.6758 145.141 23.6758 145.219 23.7148C145.297 23.7539 145.342 23.832 145.355 23.9492C145.382 24.0664 145.336 24.2227 145.219 24.418C145.141 24.5482 145.004 24.7565 144.809 25.043C144.626 25.3294 144.398 25.6484 144.125 26C143.865 26.3516 143.572 26.7161 143.246 27.0938C142.921 27.4583 142.576 27.7969 142.211 28.1094C141.859 28.4089 141.501 28.6562 141.137 28.8516C140.785 29.0469 140.447 29.1445 140.121 29.1445C139.783 29.1445 139.503 29.0794 139.281 28.9492C139.06 28.819 138.878 28.6628 138.734 28.4805C138.604 28.2852 138.507 28.0768 138.441 27.8555C138.389 27.6211 138.37 27.4062 138.383 27.2109C138.396 27.0547 138.435 26.8919 138.5 26.7227C138.578 26.5404 138.663 26.3581 138.754 26.1758C138.858 25.9805 138.962 25.7917 139.066 25.6094C139.184 25.4141 139.288 25.2253 139.379 25.043C139.6 24.6654 139.776 24.3464 139.906 24.0859C140.049 23.8125 140.121 23.5846 140.121 23.4023C140.121 23.2852 140.095 23.181 140.043 23.0898C139.991 22.9987 139.906 22.9531 139.789 22.9531C139.711 22.9531 139.652 22.9596 139.613 22.9727C139.587 22.9727 139.555 22.9727 139.516 22.9727C139.49 22.9727 139.444 22.9792 139.379 22.9922C139.327 22.9922 139.242 22.9922 139.125 22.9922C138.956 22.9922 138.812 22.9661 138.695 22.9141C138.578 22.862 138.467 22.8229 138.363 22.7969C138.311 22.888 138.194 23.0833 138.012 23.3828C137.829 23.6823 137.615 24.0339 137.367 24.4375C137.133 24.8411 136.879 25.2643 136.605 25.707C136.345 26.1497 136.098 26.5664 135.863 26.957C135.629 27.3346 135.434 27.6602 135.277 27.9336C135.108 28.194 135.004 28.3503 134.965 28.4023ZM148.969 21.3125C149.138 21.1823 149.301 21.0846 149.457 21.0195C149.626 20.9414 149.776 20.8893 149.906 20.8633C150.049 20.8242 150.193 20.8112 150.336 20.8242C150.688 20.8503 150.902 20.9609 150.98 21.1562C151.072 21.3516 151.085 21.6641 151.02 22.0938C150.98 22.3151 150.902 22.5951 150.785 22.9336C150.668 23.2721 150.531 23.6888 150.375 24.1836C150.219 24.6654 150.049 25.2188 149.867 25.8438C149.698 26.4688 149.535 27.1719 149.379 27.9531C149.223 28.5911 149.053 29.3268 148.871 30.1602C148.715 30.8893 148.526 31.7682 148.305 32.7969C148.096 33.8255 147.868 35.0039 147.621 36.332C147.556 36.6576 147.413 36.8464 147.191 36.8984C146.983 36.9505 146.762 36.9245 146.527 36.8203C146.436 36.7682 146.352 36.7096 146.273 36.6445C146.208 36.5794 146.137 36.5013 146.059 36.4102C145.98 36.332 145.915 36.2214 145.863 36.0781C146.163 34.9844 146.423 33.9883 146.645 33.0898C146.879 32.1914 147.087 31.4102 147.27 30.7461C147.465 29.9779 147.647 29.2878 147.816 28.6758C147.882 28.4023 147.94 28.1354 147.992 27.875C148.057 27.6016 148.122 27.3346 148.188 27.0742C148.018 27.3477 147.836 27.6081 147.641 27.8555C147.445 28.1029 147.23 28.3177 146.996 28.5C146.762 28.6823 146.508 28.819 146.234 28.9102C145.974 29.0143 145.701 29.0469 145.414 29.0078C144.711 28.9167 144.21 28.6562 143.91 28.2266C143.624 27.7969 143.5 27.237 143.539 26.5469C143.552 26.2734 143.591 25.974 143.656 25.6484C143.721 25.3229 143.793 25.0104 143.871 24.7109C143.949 24.4115 144.021 24.1445 144.086 23.9102C144.164 23.6628 144.223 23.487 144.262 23.3828C144.418 22.888 144.529 22.4648 144.594 22.1133C144.672 21.7617 144.62 21.4688 144.438 21.2344C144.62 21.1172 144.789 21.0391 144.945 21C145.115 20.9479 145.264 20.9089 145.395 20.8828C145.538 20.8698 145.681 20.8698 145.824 20.8828C146.176 20.9349 146.378 21.0651 146.43 21.2734C146.495 21.4818 146.475 21.7943 146.371 22.2109C146.319 22.4323 146.234 22.7188 146.117 23.0703C146 23.4089 145.876 23.7604 145.746 24.125C145.616 24.4896 145.499 24.8281 145.395 25.1406C145.29 25.4401 145.232 25.6549 145.219 25.7852C145.102 26.3711 145.095 26.8268 145.199 27.1523C145.303 27.4648 145.531 27.6211 145.883 27.6211C146.052 27.6211 146.241 27.5495 146.449 27.4062C146.658 27.25 146.866 27.0482 147.074 26.8008C147.296 26.5534 147.51 26.2734 147.719 25.9609C147.927 25.6354 148.116 25.3099 148.285 24.9844C148.467 24.6589 148.624 24.3398 148.754 24.0273C148.897 23.7148 149.001 23.4349 149.066 23.1875C149.158 22.7057 149.216 22.3281 149.242 22.0547C149.268 21.7812 149.177 21.5339 148.969 21.3125Z" fill="#D72638"/>
</svg>
