<svg width="58" height="70" viewBox="0 0 58 70" fill="none" xmlns="http://www.w3.org/2000/svg">
<path d="M38.9688 17.5L43.4264 35.7915C43.4751 35.9918 43.4999 36.1994 43.5 36.4082V67.8125H29V17.5H38.9688Z" fill="#93573D"/>
<path d="M38.9688 64.5312C38.7284 64.5312 38.4979 64.416 38.3279 64.2109C38.158 64.0058 38.0625 63.7276 38.0625 63.4375V40.4688C38.0625 40.1787 38.158 39.9005 38.3279 39.6954C38.4979 39.4902 38.7284 39.375 38.9688 39.375C39.2091 39.375 39.4396 39.4902 39.6096 39.6954C39.7795 39.9005 39.875 40.1787 39.875 40.4688V63.4375C39.875 63.7276 39.7795 64.0058 39.6096 64.2109C39.4396 64.416 39.2091 64.5312 38.9688 64.5312Z" fill="#794832"/>
<path d="M34.4375 67.8125H2.71875V36.6323C2.71877 36.2746 2.7551 35.9182 2.82693 35.5712L7.25 17.5H38.9688L34.5457 35.5712C34.4739 35.9182 34.4375 36.2746 34.4375 36.6323V67.8125Z" fill="#AB6647"/>
<path d="M14.3659 60.1562H12.8216C12.5727 60.1563 12.3265 60.0944 12.0982 59.9745C11.87 59.8546 11.6647 59.6793 11.4951 59.4595C11.3254 59.2396 11.1951 58.9799 11.1123 58.6967C11.0295 58.4134 10.9959 58.1125 11.0136 57.8129L11.7812 44.8438H15.4062L16.1738 57.8129C16.1916 58.1125 16.158 58.4134 16.0751 58.6967C15.9923 58.9799 15.862 59.2396 15.6924 59.4595C15.5228 59.6793 15.3175 59.8546 15.0892 59.9745C14.861 60.0944 14.6148 60.1563 14.3659 60.1562Z" fill="#F88A10"/>
<path d="M24.2785 60.1562H22.8466C22.5934 60.1563 22.3429 60.0922 22.1115 59.9683C21.88 59.8443 21.6726 59.6632 21.5027 59.4366C21.3328 59.21 21.2041 58.9429 21.1249 58.6526C21.0457 58.3623 21.0179 58.0552 21.0431 57.7511L21.75 49.2188H25.375L26.082 57.7511C26.1072 58.0552 26.0793 58.3623 26.0002 58.6526C25.921 58.9429 25.7923 59.21 25.6224 59.4366C25.4525 59.6632 25.2451 59.8443 25.0136 59.9683C24.7821 60.0922 24.5317 60.1563 24.2785 60.1562Z" fill="#F88A10"/>
<path d="M6.34375 10.9375C5.34268 10.9375 4.53125 12.4065 4.53125 14.2188C4.53125 16.031 5.34268 17.5 6.34375 17.5H38.9688V10.9375H6.34375Z" fill="#93573D"/>
<path d="M44.4062 13.7776C44.4063 14.41 44.3031 15.0363 44.1025 15.6206C43.902 16.205 43.6081 16.7359 43.2375 17.1831C42.867 17.6303 42.4271 17.9851 41.9429 18.2271C41.4588 18.4692 40.9398 18.5938 40.4158 18.5938H38.1879C38.1066 18.5938 38.0276 18.6265 37.9635 18.6867L32.3078 23.9958C31.6679 24.5965 30.8578 24.8689 30.0527 24.7542C29.2476 24.6395 28.5123 24.1469 28.0058 23.3829C27.5317 22.6675 27.2928 21.7663 27.3348 20.8517C27.3767 19.9371 27.6967 19.0732 28.2333 18.4255L33.8137 11.6905C33.8648 11.6289 33.8996 11.5503 33.9138 11.4647C33.9279 11.3791 33.9206 11.2904 33.893 11.2097C33.8653 11.1291 33.8184 11.0602 33.7583 11.0118C33.6982 10.9633 33.6275 10.9375 33.5552 10.9375H17.2188L26.2942 4.96289C26.8804 4.57709 27.5374 4.37496 28.2051 4.375H51.2908C51.3877 4.37504 51.4807 4.42152 51.5492 4.50422C51.6177 4.58693 51.6562 4.69909 51.6562 4.81605V12.6839C51.6562 12.8009 51.6177 12.9131 51.5492 12.9958C51.4807 13.0785 51.3877 13.125 51.2908 13.125H44.9471C44.876 13.125 44.8057 13.1418 44.7401 13.1746C44.6745 13.2074 44.6149 13.2555 44.5647 13.3161C44.5144 13.3767 44.4746 13.4486 44.4474 13.5278C44.4202 13.607 44.4062 13.6919 44.4062 13.7776Z" fill="#F5CBAA"/>
<path d="M48.0312 2.1875H55.2812V16.4062H48.0312V2.1875Z" fill="#155384"/>
<path d="M34.4375 67.8125L38.9688 62.3438L43.5 67.8125H34.4375Z" fill="#794832"/>
<path d="M17.2188 36.0938C16.9784 36.0938 16.7479 36.209 16.5779 36.4141C16.408 36.6192 16.3125 36.8974 16.3125 37.1875V40.4688H14.5V37.1875C14.5 36.8974 14.4045 36.6192 14.2346 36.4141C14.0646 36.209 13.8341 36.0938 13.5938 36.0938C13.3534 36.0938 13.1229 36.209 12.9529 36.4141C12.783 36.6192 12.6875 36.8974 12.6875 37.1875V40.4688H10.875V37.1875C10.875 36.8974 10.7795 36.6192 10.6096 36.4141C10.4396 36.209 10.2091 36.0938 9.96875 36.0938C9.7284 36.0938 9.49789 36.209 9.32793 36.4141C9.15798 36.6192 9.0625 36.8974 9.0625 37.1875V40.4688L11.7812 44.8438H15.4062L18.125 40.4688V37.1875C18.125 36.8974 18.0295 36.6192 17.8596 36.4141C17.6896 36.209 17.4591 36.0938 17.2188 36.0938Z" fill="#D9DBDD"/>
<path d="M21.75 49.2188V48.125L19.9375 47.0312C19.9375 47.0312 20.6172 36.0938 25.375 36.0938V49.2188H21.75Z" fill="#D9DBDD"/>
</svg>
